M48
;Layer_Color=9474304
;FILE_FORMAT=4:4
METRIC,LZ
;TYPE=PLATED
T1F00S00C0.3000
T4F00S00C0.9000
;TYPE=NON_PLATED
T5F00S00C0.7000
T6F00S00C0.8000
T7F00S00C0.9000
T8F00S00C3.2000
%
T01
X0035Y0007725
X00341Y0009725
X0036525Y0011125
X00379999Y00121
X0038925Y0012275
X00389Y0014075
X00401999Y00137
X00417Y00143
X00421Y0012865
X00437Y0014075
X0046Y00141
X0051Y00156
X00502Y00167679
X00522436Y0018875
X00522Y00197
X00515Y00235
X00513Y00243
X0053075Y00248
X00523186Y00284
X0052275Y0029225
X00533999Y00322999
X00542Y003231
X0055
X005581
X00574Y00321
X00582
X0059
X00598Y00321
X00671Y00324
X00653Y00266
X00629
X00641Y00244
Y00232
X00629Y0021
X00653
X00667Y0016
X0063925Y0011975
X00654Y00044
X00567Y00167
X0048Y00189
Y00235
X00484Y00267
X004395Y003335
X00402Y00178
X00368Y00143
X00343Y00146
X00332Y00179
X003765Y0009
X00382Y000845
X003875Y0009
X00382Y000955
X0039875Y0010925
X00319825Y00124
X0029356Y0010244
X00268Y00114
X00252Y00107
X00243Y00099
X00234Y00107
Y00131
X00243Y00139
X00252Y00131
X00218Y00138
X002006Y0015375
X00185Y00145
X00168Y0011
Y00097
X00157Y00066
X00128
X00121
X001085Y00081
X00095
Y0005075
X00109Y00049
X00066Y0004
X00056Y00033
X00045Y0004
X00046Y00066
X00056Y00072
X00066Y00066
X00075Y00128
X00091Y00137
X00087Y00145
X00095
X00091Y00153
X00082Y0017
Y00178
X00109Y00162
X00143Y00167
X00167Y0018
X00172Y00202
X00144Y0021805
X0013495
X00107Y0021
X00095
X00072Y00216
X00064
X00063Y00245
X00071
X00099Y0025705
X0010575Y0023425
X0012985Y00249
X0013046Y00259936
X001296Y0026885
X00130506Y00277514
X0013796Y00317
X00146Y0034
X0017Y00316
X0018
X00199Y003085
X002Y00273
X00198Y00264
X002221Y002461
X00224Y002335
X0021134Y0023034
X0020184Y002185
X0025575Y00218
X00265Y00227
X0026125Y0024325
Y00252
X002458Y00281
X00238Y0029
X00252999Y00292999
X00254Y00308999
X00256357Y00317357
X00255Y00338
X0027Y00331999
X00302Y00338
X00309Y003335
X003145Y003275
X00319875Y00320875
X003135Y003135
X00308Y00297
X00306Y00281
X00303Y00271
X00311Y0024385
X00305Y00228
X003005Y002035
X00302479Y00192
X0032Y0019
X0026325Y0018975
Y0018025
X0025035Y0017665
X00247516Y0019
Y00201
X00225Y00283999
X00234Y00311
X00235735Y00322999
X00103Y0033
X00092Y00308
X0009Y00291
X00062Y00290999
X00064985Y00308
X00051Y00306
X00031Y00302
Y00276
X00052
X00035Y0024
X00011Y00224
X00023Y00137
X0004975Y0013775
X0004975Y0012825
X001Y00119
Y00111
X00158Y00247
X00171
X00062Y00331
X00258Y00065
X0026Y00054
X0026125Y0004375
X002685Y0003375
X0027775
X0028725
X00293625Y00047
X00278Y0006125
X002685Y0006075
X00313Y00068
X00301999Y00349999
X00286975Y00359485
X00272Y00348
X00270299Y00380614
X00262Y00374
X00301Y00385
Y00393
X0032125Y0039575
X0033075Y003955
X002185Y00398
X00204Y00414
X00205Y00424
X00167Y00391
X0017Y0038
Y00368
X0016375Y0036175
X0016775Y0034425
X001585
X00131Y00345
X0012125
X00119Y0036025
X0011925Y0036975
X00113Y0038
X00122753Y00390247
X00087Y0039
Y00398
Y00406
Y00424
Y00432
Y0044
Y00448
X00108Y0046
X00144Y00458
X00112Y00507
X00177Y00522
X0019125Y00344
X002006
X0006348Y0034427
X00063Y00367
X00087Y00382
X00009Y00368
Y00459
X0035075Y0039525
X0036025Y003955
X00351Y00349
X00418Y00357
X004305Y003575
X004455
X00452Y00346
X00465Y00358
X00472Y00352
X00489Y00368
Y00382
X004725Y0039675
X00463
X00516Y00364
X00652Y00392
X00621Y00521
X00437Y00517
T04
X003556Y000254
X00381
X004064
X004318
X004572
X00508
X005334
X005588
X005842
X006096
X00635
X005969Y0006985
X005715
X005461
X005207
X004953
X004699
Y0009525
X004953
X005207
X005461
X005715
X005969
Y0012065
X005715
X005461
X005207
X004953
X004699
X003302Y000254
X0031496Y0041275
X0028956
Y0043815
Y0046355
X0031496
Y0043815
Y00508
X0028956
X0026416
X0023876
X0034036
X0036576
X0039116
X0041656
X004572
X004826
X00508
X005334
X005588
X005842
X006096
X00635
Y0046355
X006096
X005842
X005588
X005334
X00508
X004826
X004572
Y0043815
X004826
X00508
X005334
X005588
X005842
X006096
X00635
Y0041275
X006096
X005842
X005588
X005334
X00508
X004826
X004572
X0041656
X0039116
X0036576
X0034036
Y0043815
Y0046355
X0036576
X0039116
X0041656
Y0043815
X0039116
X0036576
T05
X0064325Y00146
X0067075
X000395Y0026825
Y0030975
X00037Y0048825
Y0051575
X00101
Y0048825
T06
X000455Y00028
Y00078
T07
X00196Y000325
X00226
T08
X006604Y000762
X001397Y000254
X001524Y00508
X006604Y003556
M30
