G04*
G04 #@! TF.GenerationSoftware,Altium Limited,Altium Designer,18.0.12 (696)*
G04*
G04 Layer_Color=16711935*
%FSLAX44Y44*%
%MOMM*%
G71*
G01*
G75*
%ADD12C,0.2540*%
D12*
X0Y10000D02*
G03*
X10000Y0I10000J0D01*
G01*
Y522000D02*
G03*
X0Y512000I0J-10000D01*
G01*
X650000Y0D02*
G03*
X660000Y10000I0J10000D01*
G01*
X685800Y50800D02*
Y101200D01*
X677000Y110000D02*
X685800Y101200D01*
X685800Y190800D02*
Y355000D01*
X677000Y182000D02*
X685800Y190800D01*
X269000Y0D02*
X650000D01*
X258000Y11000D02*
X269000Y0D01*
X10000Y-0D02*
X153000D01*
X164000Y11000D01*
X10000Y522000D02*
X127000D01*
X138400Y533400D01*
X140000D01*
X685800Y355000D02*
X685800Y355000D01*
Y379600D01*
X660400Y405000D02*
X685800Y379600D01*
X660400Y405000D02*
Y406400D01*
X660000Y25000D02*
X685800Y50800D01*
X660000Y20000D02*
Y25000D01*
Y10000D02*
Y20000D01*
X660400Y515000D02*
Y517100D01*
X644100Y533400D02*
X660400Y517100D01*
X642500Y533400D02*
X644100D01*
X164000Y11000D02*
X258000D01*
X140000Y533400D02*
X642500Y533400D01*
X677000Y110000D02*
Y182000D01*
X660400Y406400D02*
Y515000D01*
X-0Y10000D02*
X0Y512000D01*
M02*
