G04*
G04 #@! TF.GenerationSoftware,Altium Limited,Altium Designer,18.0.12 (696)*
G04*
G04 Layer_Color=255*
%FSLAX44Y44*%
%MOMM*%
G71*
G01*
G75*
%ADD26R,1.5000X1.5000*%
%ADD28R,2.2000X2.2000*%
%ADD29R,0.4500X0.5000*%
%ADD30O,0.3000X1.6500*%
%ADD31O,1.6500X0.3000*%
G04:AMPARAMS|DCode=32|XSize=0.25mm|YSize=1mm|CornerRadius=0.0625mm|HoleSize=0mm|Usage=FLASHONLY|Rotation=90.000|XOffset=0mm|YOffset=0mm|HoleType=Round|Shape=RoundedRectangle|*
%AMROUNDEDRECTD32*
21,1,0.2500,0.8750,0,0,90.0*
21,1,0.1250,1.0000,0,0,90.0*
1,1,0.1250,0.4375,0.0625*
1,1,0.1250,0.4375,-0.0625*
1,1,0.1250,-0.4375,-0.0625*
1,1,0.1250,-0.4375,0.0625*
%
%ADD32ROUNDEDRECTD32*%
%ADD33R,1.0000X1.0000*%
%ADD34R,0.7000X1.1000*%
%ADD35R,1.0000X0.8000*%
%ADD36R,0.8000X0.5000*%
%ADD37R,1.3000X0.4500*%
%ADD38O,0.8000X0.2800*%
%ADD39R,0.8000X0.9000*%
%ADD40R,0.5000X0.4500*%
%ADD41R,3.6000X1.5000*%
%ADD42R,1.6000X3.5000*%
%ADD43R,0.9000X1.2500*%
G04:AMPARAMS|DCode=44|XSize=0.28mm|YSize=0.85mm|CornerRadius=0.098mm|HoleSize=0mm|Usage=FLASHONLY|Rotation=0.000|XOffset=0mm|YOffset=0mm|HoleType=Round|Shape=RoundedRectangle|*
%AMROUNDEDRECTD44*
21,1,0.2800,0.6540,0,0,0.0*
21,1,0.0840,0.8500,0,0,0.0*
1,1,0.1960,0.0420,-0.3270*
1,1,0.1960,-0.0420,-0.3270*
1,1,0.1960,-0.0420,0.3270*
1,1,0.1960,0.0420,0.3270*
%
%ADD44ROUNDEDRECTD44*%
G04:AMPARAMS|DCode=45|XSize=0.28mm|YSize=0.85mm|CornerRadius=0.098mm|HoleSize=0mm|Usage=FLASHONLY|Rotation=90.000|XOffset=0mm|YOffset=0mm|HoleType=Round|Shape=RoundedRectangle|*
%AMROUNDEDRECTD45*
21,1,0.2800,0.6540,0,0,90.0*
21,1,0.0840,0.8500,0,0,90.0*
1,1,0.1960,0.3270,0.0420*
1,1,0.1960,0.3270,-0.0420*
1,1,0.1960,-0.3270,-0.0420*
1,1,0.1960,-0.3270,0.0420*
%
%ADD45ROUNDEDRECTD45*%
%ADD46R,0.5000X0.8000*%
%ADD47R,1.0000X1.0000*%
%ADD48R,0.9500X0.9500*%
%ADD49R,0.8000X0.4800*%
%ADD50R,0.4250X0.4000*%
%ADD51R,0.6000X0.7000*%
%ADD52R,0.8000X0.8000*%
%ADD53R,0.8000X0.6500*%
%ADD54R,0.6500X0.8000*%
%ADD55R,0.7000X0.6000*%
%ADD56R,0.9000X0.6500*%
%ADD57R,1.3500X0.4000*%
%ADD58R,1.9000X1.9000*%
%ADD59R,0.9000X0.8000*%
%ADD60R,0.5000X0.3000*%
%ADD61R,1.2000X1.0000*%
%ADD62O,0.2800X0.8000*%
%ADD63O,1.8000X0.4500*%
%ADD64R,1.4000X1.0000*%
G04:AMPARAMS|DCode=65|XSize=0.45mm|YSize=1.05mm|CornerRadius=0.0675mm|HoleSize=0mm|Usage=FLASHONLY|Rotation=90.000|XOffset=0mm|YOffset=0mm|HoleType=Round|Shape=RoundedRectangle|*
%AMROUNDEDRECTD65*
21,1,0.4500,0.9150,0,0,90.0*
21,1,0.3150,1.0500,0,0,90.0*
1,1,0.1350,0.4575,0.1575*
1,1,0.1350,0.4575,-0.1575*
1,1,0.1350,-0.4575,-0.1575*
1,1,0.1350,-0.4575,0.1575*
%
%ADD65ROUNDEDRECTD65*%
%ADD119R,1.5000X2.5000*%
%ADD120C,1.0000*%
%ADD121R,1.7000X1.7000*%
%ADD122R,4.5000X4.5000*%
%ADD123R,3.6000X4.3000*%
%ADD126C,1.5000*%
%ADD127C,0.7000*%
%ADD128C,0.9000*%
%ADD129C,0.8000*%
%ADD130O,1.8000X1.1500*%
%ADD131O,2.0000X1.4500*%
%ADD132C,1.5240*%
D26*
X469900Y69850D02*
D03*
Y95250D02*
D03*
X635000Y463550D02*
D03*
Y438150D02*
D03*
X469900Y120650D02*
D03*
X635000Y412750D02*
D03*
X416560D02*
D03*
Y463550D02*
D03*
Y438150D02*
D03*
X635000Y508000D02*
D03*
X416560D02*
D03*
X508000Y25400D02*
D03*
X330200D02*
D03*
D28*
X102000Y66000D02*
D03*
X142000D02*
D03*
D29*
X299250Y35000D02*
D03*
X308750D02*
D03*
X165750Y451000D02*
D03*
X156250D02*
D03*
X263250Y22000D02*
D03*
X272750D02*
D03*
X530750Y238000D02*
D03*
X521250D02*
D03*
X50750Y240000D02*
D03*
X41250D02*
D03*
X157250Y417000D02*
D03*
X166750D02*
D03*
X157250Y401000D02*
D03*
X166750D02*
D03*
X165750Y441000D02*
D03*
X156250D02*
D03*
X308750Y55000D02*
D03*
X299250D02*
D03*
X50750Y230000D02*
D03*
X41250D02*
D03*
X374750Y63000D02*
D03*
X365250D02*
D03*
X374750Y133000D02*
D03*
X365250D02*
D03*
X269750Y293000D02*
D03*
X260250D02*
D03*
X71250Y308000D02*
D03*
X80750D02*
D03*
X96250Y222000D02*
D03*
X105750D02*
D03*
X181250Y224000D02*
D03*
X190750D02*
D03*
X171750D02*
D03*
X162250D02*
D03*
X269750Y214000D02*
D03*
X260250D02*
D03*
X389250Y117000D02*
D03*
X398750D02*
D03*
X365250Y117000D02*
D03*
X374750D02*
D03*
X191250Y338000D02*
D03*
X200750D02*
D03*
X135250Y224000D02*
D03*
X144750D02*
D03*
X211750D02*
D03*
X202250D02*
D03*
X231750Y290000D02*
D03*
X222250D02*
D03*
X158250Y338000D02*
D03*
X167750D02*
D03*
X98250Y308000D02*
D03*
X107750D02*
D03*
X121250Y339000D02*
D03*
X130750D02*
D03*
X98250Y264000D02*
D03*
X107750D02*
D03*
Y274000D02*
D03*
X98250D02*
D03*
X410750Y143000D02*
D03*
X401250D02*
D03*
X260250Y338000D02*
D03*
X269750D02*
D03*
X360250Y389500D02*
D03*
X350750D02*
D03*
X183250Y150000D02*
D03*
X192750D02*
D03*
X321250Y389500D02*
D03*
X330750D02*
D03*
X472750Y391000D02*
D03*
X463250D02*
D03*
X260250Y310000D02*
D03*
X269750D02*
D03*
X452750Y143000D02*
D03*
X443250D02*
D03*
X373250D02*
D03*
X382750D02*
D03*
X524750Y248000D02*
D03*
X515250D02*
D03*
X308750Y45000D02*
D03*
X299250D02*
D03*
D30*
X480500Y372000D02*
D03*
X475500D02*
D03*
X470500D02*
D03*
X465500D02*
D03*
X460500D02*
D03*
X455500D02*
D03*
X450500D02*
D03*
X445500D02*
D03*
X440500D02*
D03*
X435500D02*
D03*
X430500D02*
D03*
X425500D02*
D03*
X420500D02*
D03*
X415500D02*
D03*
X410500D02*
D03*
X405500D02*
D03*
X400500D02*
D03*
X395500D02*
D03*
X390500D02*
D03*
X385500D02*
D03*
X380500D02*
D03*
X375500D02*
D03*
X370500D02*
D03*
X365500D02*
D03*
X360500D02*
D03*
X355500D02*
D03*
X350500D02*
D03*
X345500D02*
D03*
X340500D02*
D03*
X335500D02*
D03*
X330500D02*
D03*
X325500D02*
D03*
X320500D02*
D03*
X315500D02*
D03*
X310500D02*
D03*
X305500D02*
D03*
Y160000D02*
D03*
X310500D02*
D03*
X315500D02*
D03*
X320500D02*
D03*
X325500D02*
D03*
X330500D02*
D03*
X335500D02*
D03*
X340500D02*
D03*
X345500D02*
D03*
X350500D02*
D03*
X355500D02*
D03*
X360500D02*
D03*
X365500D02*
D03*
X370500D02*
D03*
X375500D02*
D03*
X380500D02*
D03*
X385500D02*
D03*
X390500D02*
D03*
X395500D02*
D03*
X400500D02*
D03*
X405500D02*
D03*
X410500D02*
D03*
X415500D02*
D03*
X420500D02*
D03*
X425500D02*
D03*
X430500D02*
D03*
X435500D02*
D03*
X440500D02*
D03*
X445500D02*
D03*
X450500D02*
D03*
X455500D02*
D03*
X460500D02*
D03*
X465500D02*
D03*
X470500D02*
D03*
X475500D02*
D03*
X480500D02*
D03*
D31*
X287000Y353500D02*
D03*
Y348500D02*
D03*
Y343500D02*
D03*
Y338500D02*
D03*
Y333500D02*
D03*
Y328500D02*
D03*
Y323500D02*
D03*
Y318500D02*
D03*
Y313500D02*
D03*
Y308500D02*
D03*
Y303500D02*
D03*
Y298500D02*
D03*
Y293500D02*
D03*
Y288500D02*
D03*
Y283500D02*
D03*
Y278500D02*
D03*
Y273500D02*
D03*
Y268500D02*
D03*
Y263500D02*
D03*
Y258500D02*
D03*
Y253500D02*
D03*
Y248500D02*
D03*
Y243500D02*
D03*
Y238500D02*
D03*
Y233500D02*
D03*
Y228500D02*
D03*
Y223500D02*
D03*
Y218500D02*
D03*
Y213500D02*
D03*
Y208500D02*
D03*
Y203500D02*
D03*
Y198500D02*
D03*
Y193500D02*
D03*
Y188500D02*
D03*
Y183500D02*
D03*
Y178500D02*
D03*
X499000D02*
D03*
Y183500D02*
D03*
Y188500D02*
D03*
Y193500D02*
D03*
Y198500D02*
D03*
Y203500D02*
D03*
Y208500D02*
D03*
Y213500D02*
D03*
Y218500D02*
D03*
Y223500D02*
D03*
Y228500D02*
D03*
Y233500D02*
D03*
Y238500D02*
D03*
Y243500D02*
D03*
Y248500D02*
D03*
Y253500D02*
D03*
Y258500D02*
D03*
Y263500D02*
D03*
Y268500D02*
D03*
Y273500D02*
D03*
Y278500D02*
D03*
Y283500D02*
D03*
Y288500D02*
D03*
Y293500D02*
D03*
Y298500D02*
D03*
Y303500D02*
D03*
Y308500D02*
D03*
Y313500D02*
D03*
Y318500D02*
D03*
Y323500D02*
D03*
Y328500D02*
D03*
Y333500D02*
D03*
Y338500D02*
D03*
Y343500D02*
D03*
Y348500D02*
D03*
Y353500D02*
D03*
D32*
X107000Y133750D02*
D03*
Y138250D02*
D03*
Y142750D02*
D03*
Y147250D02*
D03*
Y151750D02*
D03*
Y156250D02*
D03*
X75000D02*
D03*
Y151750D02*
D03*
Y147250D02*
D03*
Y142750D02*
D03*
Y138250D02*
D03*
Y133750D02*
D03*
D33*
X665500Y171000D02*
D03*
Y121000D02*
D03*
X648500D02*
D03*
Y171000D02*
D03*
D34*
X233500Y53000D02*
D03*
X218500D02*
D03*
X188500D02*
D03*
D35*
X248500Y44000D02*
D03*
Y21000D02*
D03*
X173500Y44000D02*
D03*
Y21000D02*
D03*
D36*
X429000Y94000D02*
D03*
Y102000D02*
D03*
Y86000D02*
D03*
Y78000D02*
D03*
X413000Y102000D02*
D03*
Y86000D02*
D03*
Y94000D02*
D03*
Y78000D02*
D03*
X153000Y203000D02*
D03*
X137000D02*
D03*
Y195000D02*
D03*
Y187000D02*
D03*
Y179000D02*
D03*
X153000Y195000D02*
D03*
Y187000D02*
D03*
Y179000D02*
D03*
X62000Y382000D02*
D03*
X78000D02*
D03*
Y390000D02*
D03*
Y398000D02*
D03*
Y406000D02*
D03*
X62000Y390000D02*
D03*
Y398000D02*
D03*
Y406000D02*
D03*
Y424000D02*
D03*
X78000D02*
D03*
Y432000D02*
D03*
Y440000D02*
D03*
Y448000D02*
D03*
X62000Y432000D02*
D03*
Y440000D02*
D03*
Y448000D02*
D03*
D37*
X56000Y46500D02*
D03*
Y53000D02*
D03*
Y59500D02*
D03*
Y40000D02*
D03*
Y66000D02*
D03*
D38*
X209000Y303500D02*
D03*
Y243500D02*
D03*
Y248500D02*
D03*
Y253500D02*
D03*
Y258500D02*
D03*
Y263500D02*
D03*
Y268500D02*
D03*
Y273500D02*
D03*
Y278500D02*
D03*
Y283500D02*
D03*
Y288500D02*
D03*
Y293500D02*
D03*
Y298500D02*
D03*
Y308500D02*
D03*
Y313500D02*
D03*
Y318500D02*
D03*
X121000Y243500D02*
D03*
Y248500D02*
D03*
Y308500D02*
D03*
Y303500D02*
D03*
Y298500D02*
D03*
Y293500D02*
D03*
Y288500D02*
D03*
Y283500D02*
D03*
Y278500D02*
D03*
Y273500D02*
D03*
Y268500D02*
D03*
Y263500D02*
D03*
Y258500D02*
D03*
Y253500D02*
D03*
Y313500D02*
D03*
Y318500D02*
D03*
D39*
X336000Y71000D02*
D03*
X322000D02*
D03*
X340000Y134000D02*
D03*
X326000D02*
D03*
X62000Y323000D02*
D03*
X76000D02*
D03*
D40*
X314000Y126750D02*
D03*
Y117250D02*
D03*
X267000Y80750D02*
D03*
Y71250D02*
D03*
X278000D02*
D03*
Y80750D02*
D03*
X298000Y71250D02*
D03*
Y80750D02*
D03*
X516000Y259250D02*
D03*
Y268750D02*
D03*
X122000Y151250D02*
D03*
Y160750D02*
D03*
X112000Y179750D02*
D03*
Y170250D02*
D03*
X122000D02*
D03*
Y179750D02*
D03*
X59000Y109250D02*
D03*
Y118750D02*
D03*
X69000D02*
D03*
Y109250D02*
D03*
X59000Y137750D02*
D03*
Y128250D02*
D03*
X63000Y360750D02*
D03*
Y351250D02*
D03*
X33000Y128250D02*
D03*
Y137750D02*
D03*
X43000Y128250D02*
D03*
Y137750D02*
D03*
X288000Y80750D02*
D03*
Y71250D02*
D03*
X186000Y427750D02*
D03*
Y418250D02*
D03*
Y399250D02*
D03*
Y408750D02*
D03*
X265000Y131250D02*
D03*
Y140750D02*
D03*
X619000Y89750D02*
D03*
Y80250D02*
D03*
Y100250D02*
D03*
Y109750D02*
D03*
X203000Y376750D02*
D03*
Y367250D02*
D03*
X233000Y367250D02*
D03*
Y376750D02*
D03*
X213000D02*
D03*
Y367250D02*
D03*
X223000Y376750D02*
D03*
Y367250D02*
D03*
X246000Y274750D02*
D03*
Y265250D02*
D03*
X196000Y418250D02*
D03*
Y427750D02*
D03*
Y408750D02*
D03*
Y399250D02*
D03*
X126000Y369750D02*
D03*
Y360250D02*
D03*
X222000Y252250D02*
D03*
Y261750D02*
D03*
X516000Y197750D02*
D03*
Y188250D02*
D03*
X270000Y274750D02*
D03*
Y265250D02*
D03*
X269000Y189750D02*
D03*
Y180250D02*
D03*
Y243250D02*
D03*
Y252750D02*
D03*
X516000Y292750D02*
D03*
Y283250D02*
D03*
D41*
X42000Y184250D02*
D03*
Y153750D02*
D03*
X140000Y134250D02*
D03*
Y103750D02*
D03*
D42*
X641000Y210000D02*
D03*
Y266000D02*
D03*
D43*
X93500Y193000D02*
D03*
X74500D02*
D03*
X93500Y174000D02*
D03*
X74500D02*
D03*
X88500Y115000D02*
D03*
X107500D02*
D03*
D44*
X374500Y104750D02*
D03*
X379500D02*
D03*
X384500D02*
D03*
X389500D02*
D03*
X374500Y75250D02*
D03*
X379500D02*
D03*
X384500D02*
D03*
X389500D02*
D03*
D45*
X367250Y97500D02*
D03*
Y92500D02*
D03*
Y87500D02*
D03*
Y82500D02*
D03*
X396750Y82500D02*
D03*
Y87500D02*
D03*
Y92500D02*
D03*
Y97500D02*
D03*
D46*
X194000Y129000D02*
D03*
Y113000D02*
D03*
X202000D02*
D03*
X210000D02*
D03*
X218000D02*
D03*
X202000Y129000D02*
D03*
X210000D02*
D03*
X218000D02*
D03*
X534000Y377000D02*
D03*
Y361000D02*
D03*
X542000D02*
D03*
X550000D02*
D03*
X558000D02*
D03*
X542000Y377000D02*
D03*
X550000D02*
D03*
X558000D02*
D03*
X535000Y175000D02*
D03*
Y159000D02*
D03*
X543000D02*
D03*
X551000D02*
D03*
X559000D02*
D03*
X543000Y175000D02*
D03*
X551000D02*
D03*
X559000D02*
D03*
X535000Y205000D02*
D03*
Y189000D02*
D03*
X543000D02*
D03*
X551000D02*
D03*
X559000D02*
D03*
X543000Y205000D02*
D03*
X551000D02*
D03*
X559000D02*
D03*
X534000Y347000D02*
D03*
Y331000D02*
D03*
X542000D02*
D03*
X550000D02*
D03*
X558000D02*
D03*
X542000Y347000D02*
D03*
X550000D02*
D03*
X558000D02*
D03*
X574000D02*
D03*
Y331000D02*
D03*
X582000D02*
D03*
X590000D02*
D03*
X598000D02*
D03*
X582000Y347000D02*
D03*
X590000D02*
D03*
X598000D02*
D03*
X239000Y441000D02*
D03*
Y425000D02*
D03*
X247000D02*
D03*
X255000D02*
D03*
X263000D02*
D03*
X247000Y441000D02*
D03*
X255000D02*
D03*
X263000D02*
D03*
X239000Y470000D02*
D03*
Y454000D02*
D03*
X247000D02*
D03*
X255000D02*
D03*
X263000D02*
D03*
X247000Y470000D02*
D03*
X255000D02*
D03*
X263000D02*
D03*
X199000D02*
D03*
Y454000D02*
D03*
X207000D02*
D03*
X215000D02*
D03*
X223000D02*
D03*
X207000Y470000D02*
D03*
X215000D02*
D03*
X223000D02*
D03*
X574000Y377000D02*
D03*
Y361000D02*
D03*
X582000D02*
D03*
X590000D02*
D03*
X598000D02*
D03*
X582000Y377000D02*
D03*
X590000D02*
D03*
X598000D02*
D03*
X575000Y175000D02*
D03*
Y159000D02*
D03*
X583000D02*
D03*
X591000D02*
D03*
X599000D02*
D03*
X583000Y175000D02*
D03*
X591000D02*
D03*
X599000D02*
D03*
D47*
X12000Y493500D02*
D03*
Y510500D02*
D03*
X62000Y493500D02*
D03*
Y510500D02*
D03*
X76000Y493500D02*
D03*
Y510500D02*
D03*
X126000Y493500D02*
D03*
Y510500D02*
D03*
D48*
X278000Y43750D02*
D03*
D49*
Y53900D02*
D03*
D50*
X287380Y40500D02*
D03*
Y47000D02*
D03*
Y53500D02*
D03*
X268620D02*
D03*
Y47000D02*
D03*
Y40500D02*
D03*
D51*
X279618Y127000D02*
D03*
X296382D02*
D03*
X279618Y141000D02*
D03*
X296382D02*
D03*
D52*
X218000Y70000D02*
D03*
X202000D02*
D03*
X123000Y401000D02*
D03*
X139000D02*
D03*
X123000Y417000D02*
D03*
X139000D02*
D03*
X123000Y441000D02*
D03*
X139000D02*
D03*
X19000Y391000D02*
D03*
X35000D02*
D03*
X33000Y218000D02*
D03*
X49000D02*
D03*
X19000Y361000D02*
D03*
X35000D02*
D03*
X19000Y376000D02*
D03*
X35000D02*
D03*
X19000Y406000D02*
D03*
X35000D02*
D03*
X19000Y451000D02*
D03*
X35000D02*
D03*
X19000Y436000D02*
D03*
X35000D02*
D03*
X19000Y421000D02*
D03*
X35000D02*
D03*
X19000Y466000D02*
D03*
X35000D02*
D03*
D53*
X528000Y272750D02*
D03*
Y259250D02*
D03*
X225000Y315250D02*
D03*
Y328750D02*
D03*
X98000Y234250D02*
D03*
Y247750D02*
D03*
X258000Y279750D02*
D03*
Y266250D02*
D03*
D54*
X102750Y323000D02*
D03*
X89250D02*
D03*
X96250Y99000D02*
D03*
X109750D02*
D03*
X340750Y119000D02*
D03*
X327250D02*
D03*
D55*
X518000Y174382D02*
D03*
Y157618D02*
D03*
D56*
X341000Y104500D02*
D03*
Y85500D02*
D03*
X317000D02*
D03*
Y95000D02*
D03*
Y104500D02*
D03*
D57*
X41750Y282500D02*
D03*
Y289000D02*
D03*
Y295500D02*
D03*
Y276000D02*
D03*
Y302000D02*
D03*
D58*
X15000Y249000D02*
D03*
Y329000D02*
D03*
Y277000D02*
D03*
Y301000D02*
D03*
D59*
X82000Y224000D02*
D03*
Y238000D02*
D03*
X67000Y238000D02*
D03*
Y224000D02*
D03*
D60*
X69000Y286000D02*
D03*
Y291000D02*
D03*
Y296000D02*
D03*
X83000D02*
D03*
Y291000D02*
D03*
Y286000D02*
D03*
D61*
X243000Y107000D02*
D03*
Y131000D02*
D03*
X99500Y340500D02*
D03*
Y359500D02*
D03*
X78500Y340500D02*
D03*
Y359500D02*
D03*
D62*
X127500Y325000D02*
D03*
X132500D02*
D03*
X137500D02*
D03*
X142500D02*
D03*
X147500D02*
D03*
X152500D02*
D03*
X157500D02*
D03*
X162500D02*
D03*
X172500D02*
D03*
X177500D02*
D03*
X182500D02*
D03*
X187500D02*
D03*
X192500D02*
D03*
X197500D02*
D03*
X202500D02*
D03*
X167500D02*
D03*
X192500Y237000D02*
D03*
X197500D02*
D03*
X202500D02*
D03*
X187500D02*
D03*
X182500D02*
D03*
X177500D02*
D03*
X172500D02*
D03*
X167500D02*
D03*
X162500D02*
D03*
X157500D02*
D03*
X152500D02*
D03*
X147500D02*
D03*
X142500D02*
D03*
X137500D02*
D03*
X132500D02*
D03*
X127500D02*
D03*
D63*
X143250Y374750D02*
D03*
Y368250D02*
D03*
Y361750D02*
D03*
Y355250D02*
D03*
X184750Y374750D02*
D03*
Y368250D02*
D03*
Y361750D02*
D03*
Y355250D02*
D03*
D64*
X271500Y103000D02*
D03*
X293500Y112500D02*
D03*
Y93500D02*
D03*
D65*
X183500Y163950D02*
D03*
Y176650D02*
D03*
Y189350D02*
D03*
Y202050D02*
D03*
X238500D02*
D03*
Y189350D02*
D03*
Y176650D02*
D03*
Y163950D02*
D03*
D119*
X91000Y145000D02*
D03*
D120*
X196000Y508000D02*
D03*
X627000Y371000D02*
D03*
X101000Y26000D02*
D03*
X139700Y25400D02*
D03*
D121*
X382000Y90000D02*
D03*
D122*
X165000Y281000D02*
D03*
D123*
X211000Y183000D02*
D03*
D126*
X495300Y69850D02*
D03*
X520700D02*
D03*
X546100D02*
D03*
X571500D02*
D03*
X596900D02*
D03*
Y95250D02*
D03*
X571500D02*
D03*
X546100D02*
D03*
X520700D02*
D03*
X495300D02*
D03*
X609600Y463550D02*
D03*
X584200D02*
D03*
X558800D02*
D03*
X482600D02*
D03*
X508000D02*
D03*
X533400D02*
D03*
X457200D02*
D03*
X609600Y438150D02*
D03*
X584200D02*
D03*
X558800D02*
D03*
X482600D02*
D03*
X508000D02*
D03*
X533400D02*
D03*
X457200D02*
D03*
X495300Y120650D02*
D03*
X520700D02*
D03*
X546100D02*
D03*
X571500D02*
D03*
X596900D02*
D03*
X609600Y412750D02*
D03*
X584200D02*
D03*
X558800D02*
D03*
X482600D02*
D03*
X508000D02*
D03*
X533400D02*
D03*
X457200D02*
D03*
X391160D02*
D03*
X365760D02*
D03*
X340360D02*
D03*
X314960D02*
D03*
X289560D02*
D03*
X391160Y463550D02*
D03*
X365760D02*
D03*
X340360D02*
D03*
X314960D02*
D03*
X289560D02*
D03*
Y438150D02*
D03*
X314960D02*
D03*
X340360D02*
D03*
X365760D02*
D03*
X391160D02*
D03*
X609600Y508000D02*
D03*
X584200D02*
D03*
X558800D02*
D03*
X533400D02*
D03*
X508000D02*
D03*
X457200D02*
D03*
X482600D02*
D03*
X391160D02*
D03*
X365760D02*
D03*
X340360D02*
D03*
X314960D02*
D03*
X289560D02*
D03*
X238760D02*
D03*
X264160D02*
D03*
X533400Y25400D02*
D03*
X558800D02*
D03*
X584200D02*
D03*
X609600D02*
D03*
X635000D02*
D03*
X355600D02*
D03*
X381000D02*
D03*
X406400D02*
D03*
X431800D02*
D03*
X457200D02*
D03*
D127*
X670750Y146000D02*
D03*
X643250D02*
D03*
X37000Y488250D02*
D03*
Y515750D02*
D03*
X101000Y488250D02*
D03*
Y515750D02*
D03*
X39500Y268250D02*
D03*
Y309750D02*
D03*
D128*
X226000Y32500D02*
D03*
X196000D02*
D03*
D129*
X45500Y28000D02*
D03*
Y78000D02*
D03*
D130*
X18000Y14250D02*
D03*
Y91750D02*
D03*
D131*
X56000Y15750D02*
D03*
Y90250D02*
D03*
D132*
X152400Y508000D02*
D03*
X660400Y355600D02*
D03*
Y76200D02*
D03*
M02*
