G04*
G04 #@! TF.GenerationSoftware,Altium Limited,Altium Designer,18.0.12 (696)*
G04*
G04 Layer_Color=255*
%FSLAX44Y44*%
%MOMM*%
G71*
G01*
G75*
%ADD26R,1.5000X1.5000*%
%ADD120C,1.0000*%
%ADD126C,1.5000*%
%ADD127C,0.7000*%
%ADD128C,0.9000*%
%ADD129C,0.8000*%
%ADD130O,1.8000X1.1500*%
%ADD131O,2.0000X1.4500*%
%ADD132C,1.5240*%
D26*
X469900Y69850D02*
D03*
Y95250D02*
D03*
X635000Y463550D02*
D03*
Y438150D02*
D03*
X469900Y120650D02*
D03*
X635000Y412750D02*
D03*
X416560D02*
D03*
Y463550D02*
D03*
Y438150D02*
D03*
X635000Y508000D02*
D03*
X416560D02*
D03*
X508000Y25400D02*
D03*
X330200D02*
D03*
D120*
X139700D02*
D03*
D126*
X495300Y69850D02*
D03*
X520700D02*
D03*
X546100D02*
D03*
X571500D02*
D03*
X596900D02*
D03*
Y95250D02*
D03*
X571500D02*
D03*
X546100D02*
D03*
X520700D02*
D03*
X495300D02*
D03*
X609600Y463550D02*
D03*
X584200D02*
D03*
X558800D02*
D03*
X482600D02*
D03*
X508000D02*
D03*
X533400D02*
D03*
X457200D02*
D03*
X609600Y438150D02*
D03*
X584200D02*
D03*
X558800D02*
D03*
X482600D02*
D03*
X508000D02*
D03*
X533400D02*
D03*
X457200D02*
D03*
X495300Y120650D02*
D03*
X520700D02*
D03*
X546100D02*
D03*
X571500D02*
D03*
X596900D02*
D03*
X609600Y412750D02*
D03*
X584200D02*
D03*
X558800D02*
D03*
X482600D02*
D03*
X508000D02*
D03*
X533400D02*
D03*
X457200D02*
D03*
X391160D02*
D03*
X365760D02*
D03*
X340360D02*
D03*
X314960D02*
D03*
X289560D02*
D03*
X391160Y463550D02*
D03*
X365760D02*
D03*
X340360D02*
D03*
X314960D02*
D03*
X289560D02*
D03*
Y438150D02*
D03*
X314960D02*
D03*
X340360D02*
D03*
X365760D02*
D03*
X391160D02*
D03*
X609600Y508000D02*
D03*
X584200D02*
D03*
X558800D02*
D03*
X533400D02*
D03*
X508000D02*
D03*
X457200D02*
D03*
X482600D02*
D03*
X391160D02*
D03*
X365760D02*
D03*
X340360D02*
D03*
X314960D02*
D03*
X289560D02*
D03*
X238760D02*
D03*
X264160D02*
D03*
X533400Y25400D02*
D03*
X558800D02*
D03*
X584200D02*
D03*
X609600D02*
D03*
X635000D02*
D03*
X355600D02*
D03*
X381000D02*
D03*
X406400D02*
D03*
X431800D02*
D03*
X457200D02*
D03*
D127*
X670750Y146000D02*
D03*
X643250D02*
D03*
X37000Y488250D02*
D03*
Y515750D02*
D03*
X101000Y488250D02*
D03*
Y515750D02*
D03*
X39500Y268250D02*
D03*
Y309750D02*
D03*
D128*
X226000Y32500D02*
D03*
X196000D02*
D03*
D129*
X45500Y28000D02*
D03*
Y78000D02*
D03*
D130*
X18000Y14250D02*
D03*
Y91750D02*
D03*
D131*
X56000Y15750D02*
D03*
Y90250D02*
D03*
D132*
X152400Y508000D02*
D03*
X660400Y355600D02*
D03*
Y76200D02*
D03*
M02*
