G04*
G04 #@! TF.GenerationSoftware,Altium Limited,Altium Designer,18.0.12 (696)*
G04*
G04 Layer_Physical_Order=3*
G04 Layer_Color=3326705*
%FSLAX44Y44*%
%MOMM*%
G71*
G01*
G75*
%ADD10C,0.5000*%
%ADD26R,1.5000X1.5000*%
%ADD126C,1.5000*%
%ADD130O,1.8000X1.1500*%
%ADD131O,2.0000X1.4500*%
%ADD133C,0.6000*%
G36*
X641874Y528027D02*
X655027Y514874D01*
Y448030D01*
X653039Y448000D01*
X652884Y448780D01*
X652442Y449442D01*
X652442Y449442D01*
X646966Y454918D01*
X646734Y455073D01*
X646521Y455255D01*
X645497Y455829D01*
X645382Y455866D01*
X645280Y455934D01*
X645006Y455989D01*
X644741Y456075D01*
X644500Y458062D01*
Y473050D01*
X644100D01*
Y475065D01*
X638000Y481165D01*
X284165Y481165D01*
X277000Y474000D01*
Y461000D01*
X277288D01*
X278116Y459000D01*
X272558Y453442D01*
X272116Y452780D01*
X271961Y452000D01*
X271961Y427000D01*
X271961Y427000D01*
X272116Y426220D01*
X272558Y425558D01*
X272558Y425558D01*
X279558Y418558D01*
X280220Y418116D01*
X280624Y416002D01*
X280305Y415230D01*
X279978Y412750D01*
X280305Y410270D01*
X281262Y407959D01*
X282735Y406039D01*
X282690Y405736D01*
X282021Y404039D01*
X277000D01*
X273000Y404039D01*
X272220Y403884D01*
X271558Y403442D01*
X271558Y403442D01*
X265155Y397039D01*
X224387D01*
X223598Y398000D01*
X223210Y399951D01*
X222105Y401605D01*
X220451Y402710D01*
X218500Y403098D01*
X216549Y402710D01*
X214895Y401605D01*
X213790Y399951D01*
X213402Y398000D01*
X212614Y397039D01*
X171868D01*
X171574Y396981D01*
X171276Y396951D01*
X171187Y396904D01*
X171088Y396884D01*
X170839Y396717D01*
X170574Y396576D01*
X170510Y396498D01*
X170426Y396442D01*
X168951Y395710D01*
X167000Y396098D01*
X165049Y395710D01*
X163574Y396442D01*
X163490Y396498D01*
X163426Y396576D01*
X163161Y396718D01*
X162912Y396884D01*
X162813Y396904D01*
X162724Y396951D01*
X162425Y396981D01*
X162132Y397039D01*
X92886D01*
X92098Y398000D01*
X91710Y399951D01*
X91351Y400488D01*
X90759Y402000D01*
X91351Y403512D01*
X91710Y404049D01*
X92098Y406000D01*
X91710Y407951D01*
X90605Y409605D01*
X88951Y410710D01*
X87000Y411098D01*
X85049Y410710D01*
X83395Y409605D01*
X82290Y407951D01*
X81902Y406000D01*
X82290Y404049D01*
X82649Y403512D01*
X83241Y402000D01*
X82649Y400488D01*
X82290Y399951D01*
X81902Y398000D01*
X81114Y397039D01*
X72000D01*
X72000Y397039D01*
X71220Y396884D01*
X70558Y396442D01*
X46558Y372442D01*
X46116Y371780D01*
X45961Y371000D01*
Y330000D01*
X46116Y329220D01*
X46558Y328558D01*
X55558Y319558D01*
X56220Y319116D01*
X56606Y319039D01*
X56409Y317039D01*
X43829Y317039D01*
X43729Y317019D01*
X43629Y317029D01*
X43342Y316942D01*
X43048Y316884D01*
X42964Y316828D01*
X42867Y316798D01*
X42636Y316608D01*
X42387Y316442D01*
X42330Y316358D01*
X42252Y316294D01*
X42111Y316029D01*
X41944Y315780D01*
X40130Y315232D01*
X39500Y315358D01*
X38870Y315232D01*
X37055Y315780D01*
X36889Y316029D01*
X36748Y316294D01*
X36670Y316358D01*
X36613Y316442D01*
X36364Y316608D01*
X36133Y316798D01*
X36036Y316828D01*
X35952Y316884D01*
X35658Y316942D01*
X35371Y317029D01*
X35271Y317019D01*
X35171Y317039D01*
X18000Y317039D01*
X18000Y317039D01*
X17220Y316884D01*
X16558Y316442D01*
X10558Y310442D01*
X10116Y309780D01*
X9961Y309000D01*
Y228899D01*
X10000Y228702D01*
Y228501D01*
X10077Y228316D01*
X10116Y228119D01*
X10228Y227952D01*
X10304Y227766D01*
X10446Y227624D01*
X10558Y227457D01*
X10725Y227346D01*
X10867Y227204D01*
X11053Y227127D01*
X11220Y227015D01*
X11417Y226976D01*
X11602Y226899D01*
X12155Y226789D01*
X13135Y226135D01*
X13789Y225155D01*
X14019Y224000D01*
X13789Y222845D01*
X13135Y221865D01*
X12155Y221211D01*
X11602Y221101D01*
X11417Y221024D01*
X11220Y220985D01*
X11053Y220873D01*
X10867Y220797D01*
X10725Y220655D01*
X10558Y220543D01*
X10446Y220376D01*
X10304Y220234D01*
X10228Y220048D01*
X10116Y219881D01*
X10077Y219684D01*
X10000Y219499D01*
Y219298D01*
X9961Y219101D01*
Y100236D01*
X9998Y100047D01*
X9997Y99854D01*
X10075Y99661D01*
X10116Y99455D01*
X10223Y99295D01*
X10295Y99117D01*
X9436Y97492D01*
X9330Y97370D01*
X9278Y97320D01*
X9223Y97277D01*
X7980Y95658D01*
X7373Y94192D01*
X5373Y94590D01*
X5373Y512000D01*
X5340Y512167D01*
X5664Y513796D01*
X6681Y515319D01*
X8204Y516336D01*
X9833Y516660D01*
X10000Y516627D01*
X30673D01*
X31392Y515750D01*
X31819Y513604D01*
X33035Y511785D01*
X34854Y510569D01*
X37000Y510142D01*
X39146Y510569D01*
X40965Y511785D01*
X42181Y513604D01*
X42608Y515750D01*
X43327Y516627D01*
X94673D01*
X95392Y515750D01*
X95819Y513604D01*
X97035Y511785D01*
X98854Y510569D01*
X101000Y510142D01*
X103146Y510569D01*
X104965Y511785D01*
X106181Y513604D01*
X106608Y515750D01*
X107327Y516627D01*
X127000D01*
X129056Y517036D01*
X130799Y518200D01*
X132419Y516992D01*
X132106Y516406D01*
X130856Y512285D01*
X130434Y508000D01*
X130856Y503715D01*
X132106Y499594D01*
X134136Y495796D01*
X136868Y492468D01*
X140196Y489736D01*
X143994Y487706D01*
X148115Y486456D01*
X152400Y486034D01*
X156685Y486456D01*
X160806Y487706D01*
X164604Y489736D01*
X167932Y492468D01*
X170664Y495796D01*
X172694Y499594D01*
X173944Y503715D01*
X174366Y508000D01*
X173944Y512285D01*
X172694Y516406D01*
X170664Y520204D01*
X167932Y523532D01*
X164893Y526027D01*
X165158Y528027D01*
X641874Y528027D01*
D02*
G37*
G36*
X625500Y454050D02*
X644500D01*
X644500Y454050D01*
Y454050D01*
X645524Y453476D01*
X651000Y448000D01*
X651000Y396899D01*
X650049Y396710D01*
X648395Y395605D01*
X647290Y393951D01*
X646902Y392000D01*
X647290Y390049D01*
X648395Y388395D01*
X650049Y387290D01*
X651000Y387101D01*
Y382000D01*
X651000Y382000D01*
X655043Y377957D01*
X654734Y376725D01*
X651994Y375894D01*
X648196Y373864D01*
X644868Y371132D01*
X642136Y367804D01*
X640106Y364006D01*
X638856Y359885D01*
X638434Y355600D01*
X638856Y351315D01*
X640106Y347194D01*
X642136Y343396D01*
X644868Y340068D01*
X648196Y337336D01*
X651994Y335306D01*
X656115Y334056D01*
X660400Y333634D01*
X660400Y333634D01*
Y114400D01*
X620400Y74400D01*
X605298D01*
X605198Y74641D01*
X603675Y76625D01*
X601691Y78148D01*
X599380Y79106D01*
X596900Y79432D01*
X594420Y79106D01*
X592109Y78148D01*
X590125Y76625D01*
X588602Y74641D01*
X588502Y74400D01*
X579898Y74400D01*
X579798Y74641D01*
X578275Y76625D01*
X576291Y78148D01*
X573980Y79106D01*
X571500Y79432D01*
X569020Y79106D01*
X566709Y78148D01*
X564725Y76625D01*
X563202Y74641D01*
X563102Y74400D01*
X554498D01*
X554398Y74641D01*
X552875Y76625D01*
X550891Y78148D01*
X548580Y79106D01*
X546100Y79432D01*
X543620Y79106D01*
X541309Y78148D01*
X539324Y76625D01*
X537802Y74641D01*
X537702Y74400D01*
X529098D01*
X528998Y74641D01*
X527475Y76625D01*
X525491Y78148D01*
X523180Y79106D01*
X520700Y79432D01*
X518220Y79106D01*
X515909Y78148D01*
X513924Y76625D01*
X512402Y74641D01*
X512302Y74400D01*
X503698Y74400D01*
X503598Y74641D01*
X502075Y76625D01*
X500091Y78148D01*
X497780Y79106D01*
X495300Y79432D01*
X492820Y79106D01*
X490509Y78148D01*
X488525Y76625D01*
X487002Y74641D01*
X486902Y74400D01*
X479400D01*
Y79350D01*
X460400D01*
Y72361D01*
X457340D01*
Y62660D01*
X459500Y60500D01*
X433728Y34728D01*
X431800Y34982D01*
X429320Y34655D01*
X427009Y33698D01*
X425024Y32175D01*
X423502Y30191D01*
X422545Y27880D01*
X422218Y25400D01*
X422472Y23472D01*
X406000Y7000D01*
X272000D01*
X252000Y27000D01*
Y43000D01*
X257961Y48961D01*
X259704D01*
X260000Y48902D01*
X260296Y48961D01*
X290612D01*
X290809Y49000D01*
X291009D01*
X291010Y49000D01*
X296241D01*
X296241Y49000D01*
X296441D01*
X296638Y48961D01*
X310960D01*
X311157Y49000D01*
X313000D01*
X336000Y72000D01*
X392000D01*
X433400Y113400D01*
X460400D01*
Y111150D01*
X479400D01*
Y113400D01*
X489143D01*
X490509Y112352D01*
X492820Y111395D01*
X495300Y111068D01*
X497780Y111395D01*
X500091Y112352D01*
X501457Y113400D01*
X508400D01*
X511142Y116142D01*
X511978Y115975D01*
X512512Y115716D01*
X513924Y113875D01*
X515909Y112352D01*
X518220Y111395D01*
X520700Y111068D01*
X523180Y111395D01*
X525491Y112352D01*
X527475Y113875D01*
X528998Y115859D01*
X529955Y118170D01*
X530282Y120650D01*
X529955Y123130D01*
X528998Y125441D01*
X527475Y127425D01*
X525634Y128838D01*
X525375Y129372D01*
X525208Y130208D01*
X541000Y146000D01*
X541000Y317200D01*
X541982Y318006D01*
X542000Y318002D01*
X543951Y318390D01*
X545605Y319495D01*
X546395D01*
X548049Y318390D01*
X550000Y318002D01*
X551951Y318390D01*
X553605Y319495D01*
X554495D01*
X556149Y318390D01*
X558100Y318002D01*
X560051Y318390D01*
X561705Y319495D01*
X562810Y321149D01*
X563198Y323100D01*
X562810Y325051D01*
X561705Y326705D01*
X560051Y327810D01*
X558100Y328198D01*
X556149Y327810D01*
X554936Y326999D01*
X554050Y326803D01*
X553164Y326999D01*
X551951Y327810D01*
X550000Y328198D01*
X548049Y327810D01*
X546905Y327045D01*
X546000Y326808D01*
X545095Y327045D01*
X543951Y327810D01*
X542000Y328198D01*
X541982Y328194D01*
X541000Y329000D01*
X541000Y384000D01*
Y407049D01*
X541698Y407959D01*
X542655Y410270D01*
X542982Y412750D01*
X542655Y415230D01*
X541698Y417541D01*
X541000Y418451D01*
Y420000D01*
X539557D01*
X538191Y421048D01*
X535880Y422006D01*
X533400Y422332D01*
X530920Y422006D01*
X528609Y421048D01*
X527243Y420000D01*
X514157D01*
X512791Y421048D01*
X510480Y422006D01*
X508000Y422332D01*
X505520Y422006D01*
X503209Y421048D01*
X501843Y420000D01*
X488757D01*
X487391Y421048D01*
X485080Y422006D01*
X482600Y422332D01*
X480120Y422006D01*
X477809Y421048D01*
X476443Y420000D01*
X463357D01*
X461991Y421048D01*
X459680Y422006D01*
X457200Y422332D01*
X454720Y422006D01*
X452409Y421048D01*
X451043Y420000D01*
X426060D01*
Y422250D01*
X407060D01*
Y420000D01*
X397317D01*
X395951Y421048D01*
X393640Y422006D01*
X391160Y422332D01*
X388680Y422006D01*
X386369Y421048D01*
X385003Y420000D01*
X371917D01*
X370551Y421048D01*
X368240Y422006D01*
X365760Y422332D01*
X363280Y422006D01*
X360969Y421048D01*
X359603Y420000D01*
X346517D01*
X345151Y421048D01*
X342840Y422006D01*
X340360Y422332D01*
X337880Y422006D01*
X335569Y421048D01*
X334203Y420000D01*
X321117D01*
X319751Y421048D01*
X317440Y422006D01*
X314960Y422332D01*
X312480Y422006D01*
X310169Y421048D01*
X308803Y420000D01*
X295717D01*
X294351Y421048D01*
X292040Y422006D01*
X289560Y422332D01*
X287080Y422006D01*
X284769Y421048D01*
X283403Y420000D01*
X281000D01*
X274000Y427000D01*
X274000Y452000D01*
X280181Y458181D01*
X280210Y458196D01*
X281823Y458027D01*
X282785Y456775D01*
X284769Y455252D01*
X287080Y454295D01*
X289560Y453968D01*
X292040Y454295D01*
X294351Y455252D01*
X296336Y456775D01*
X297858Y458759D01*
X297958Y459000D01*
X306562D01*
X306662Y458759D01*
X308185Y456775D01*
X310169Y455252D01*
X312480Y454295D01*
X314960Y453968D01*
X317440Y454295D01*
X319751Y455252D01*
X321735Y456775D01*
X323258Y458759D01*
X323358Y459000D01*
X331962D01*
X332062Y458759D01*
X333585Y456775D01*
X335569Y455252D01*
X337880Y454295D01*
X340360Y453968D01*
X342840Y454295D01*
X345151Y455252D01*
X347136Y456775D01*
X348658Y458759D01*
X348758Y459000D01*
X357362D01*
X357462Y458759D01*
X358984Y456775D01*
X360969Y455252D01*
X363280Y454295D01*
X365760Y453968D01*
X368240Y454295D01*
X370551Y455252D01*
X372536Y456775D01*
X374058Y458759D01*
X374158Y459000D01*
X382762D01*
X382862Y458759D01*
X384384Y456775D01*
X386369Y455252D01*
X388680Y454295D01*
X391160Y453968D01*
X393640Y454295D01*
X395951Y455252D01*
X397935Y456775D01*
X399458Y458759D01*
X399558Y459000D01*
X407060D01*
Y454050D01*
X426060D01*
Y459000D01*
X448802D01*
X448902Y458759D01*
X450424Y456775D01*
X452409Y455252D01*
X454720Y454295D01*
X457200Y453968D01*
X459680Y454295D01*
X461991Y455252D01*
X463975Y456775D01*
X465498Y458759D01*
X465598Y459000D01*
X474202D01*
X474302Y458759D01*
X475825Y456775D01*
X477809Y455252D01*
X480120Y454295D01*
X482600Y453968D01*
X485080Y454295D01*
X487391Y455252D01*
X489375Y456775D01*
X490898Y458759D01*
X490998Y459000D01*
X499602D01*
X499702Y458759D01*
X501225Y456775D01*
X503209Y455252D01*
X505520Y454295D01*
X508000Y453968D01*
X510480Y454295D01*
X512791Y455252D01*
X514775Y456775D01*
X516298Y458759D01*
X516398Y459000D01*
X525002D01*
X525102Y458759D01*
X526624Y456775D01*
X528609Y455252D01*
X530920Y454295D01*
X533400Y453968D01*
X535880Y454295D01*
X538191Y455252D01*
X540175Y456775D01*
X541698Y458759D01*
X541798Y459000D01*
X550402D01*
X550502Y458759D01*
X552024Y456775D01*
X554009Y455252D01*
X556320Y454295D01*
X558800Y453968D01*
X561280Y454295D01*
X563591Y455252D01*
X565575Y456775D01*
X567098Y458759D01*
X567198Y459000D01*
X575802D01*
X575902Y458759D01*
X577425Y456775D01*
X579409Y455252D01*
X581720Y454295D01*
X584200Y453968D01*
X586680Y454295D01*
X588991Y455252D01*
X590975Y456775D01*
X592498Y458759D01*
X592598Y459000D01*
X601202D01*
X601302Y458759D01*
X602825Y456775D01*
X604809Y455252D01*
X607120Y454295D01*
X609600Y453968D01*
X612080Y454295D01*
X614391Y455252D01*
X616375Y456775D01*
X617898Y458759D01*
X617998Y459000D01*
X625500D01*
Y454050D01*
D02*
G37*
G36*
X277000Y402000D02*
X319678D01*
X320612Y401189D01*
X320612Y401189D01*
X320612D01*
X320657Y400730D01*
X320619Y400722D01*
X319299Y400460D01*
X317645Y399355D01*
X316540Y397701D01*
X316152Y395750D01*
X316540Y393799D01*
X317645Y392145D01*
X319299Y391040D01*
X321250Y390652D01*
X323201Y391040D01*
X324855Y392145D01*
X325960Y393799D01*
X326348Y395750D01*
X325960Y397701D01*
X324855Y399355D01*
X323201Y400460D01*
X321881Y400722D01*
X321843Y400730D01*
X321888Y401189D01*
X321888D01*
X321888Y401189D01*
X322822Y402000D01*
X469072D01*
X469457Y400730D01*
X468895Y400355D01*
X467790Y398701D01*
X467402Y396750D01*
X467790Y394799D01*
X468895Y393145D01*
X470549Y392040D01*
X472500Y391652D01*
X474451Y392040D01*
X476105Y393145D01*
X477210Y394799D01*
X477598Y396750D01*
X477210Y398701D01*
X476105Y400355D01*
X475543Y400730D01*
X475928Y402000D01*
X518000D01*
X528000Y392000D01*
Y295679D01*
X526730Y295293D01*
X526355Y295855D01*
X524701Y296960D01*
X522750Y297348D01*
X520799Y296960D01*
X519145Y295855D01*
X518040Y294201D01*
X517652Y292250D01*
X518040Y290299D01*
X519145Y288645D01*
X520799Y287540D01*
X522750Y287152D01*
X524701Y287540D01*
X526355Y288645D01*
X526730Y289207D01*
X528000Y288822D01*
X528000Y252176D01*
X527145Y251605D01*
X526040Y249951D01*
X525652Y248000D01*
X526040Y246049D01*
X527145Y244395D01*
X528000Y243824D01*
Y198975D01*
X526730Y198850D01*
X526710Y198951D01*
X525605Y200605D01*
X523951Y201710D01*
X522000Y202098D01*
X520049Y201710D01*
X518395Y200605D01*
X517290Y198951D01*
X516902Y197000D01*
X517290Y195049D01*
X518305Y193530D01*
X518399Y193321D01*
X518472Y191817D01*
X517726Y190701D01*
X517338Y188750D01*
X517726Y186799D01*
X518832Y185145D01*
X520485Y184040D01*
X522436Y183652D01*
X524387Y184040D01*
X526041Y185145D01*
X526730Y186176D01*
X528000Y185791D01*
Y153000D01*
X515000Y140000D01*
X465900Y140000D01*
X465094Y140982D01*
X465098Y141000D01*
X464710Y142951D01*
X463605Y144605D01*
X461951Y145710D01*
X460000Y146098D01*
X458049Y145710D01*
X456395Y144605D01*
X455290Y142951D01*
X454902Y141000D01*
X455081Y140099D01*
X455000Y140000D01*
X427000Y112000D01*
X402926D01*
X402355Y112855D01*
X400701Y113960D01*
X398750Y114348D01*
X396799Y113960D01*
X395145Y112855D01*
X394574Y112000D01*
X370199D01*
X369960Y113201D01*
X368855Y114855D01*
X367201Y115960D01*
X365250Y116348D01*
X363299Y115960D01*
X361645Y114855D01*
X360540Y113201D01*
X360301Y112000D01*
X294000D01*
X276000Y94000D01*
X272588D01*
Y111867D01*
X272710Y112049D01*
X273098Y114000D01*
X272710Y115951D01*
X271605Y117605D01*
X269951Y118710D01*
X268000Y119098D01*
X266049Y118710D01*
X264395Y117605D01*
X263290Y115951D01*
X262902Y114000D01*
X263290Y112049D01*
X263412Y111867D01*
Y94000D01*
X174021Y94000D01*
X173264Y95270D01*
X173608Y97000D01*
X173181Y99146D01*
X171965Y100965D01*
X170146Y102181D01*
X168000Y102608D01*
X165854Y102181D01*
X164035Y100965D01*
X162819Y99146D01*
X162392Y97000D01*
X162736Y95270D01*
X161979Y94000D01*
X123000D01*
X113000Y104000D01*
Y145000D01*
X91000Y167000D01*
Y286101D01*
X91951Y286290D01*
X93605Y287395D01*
X94710Y289049D01*
X95098Y291000D01*
X94710Y292951D01*
X93605Y294605D01*
X91951Y295710D01*
X91000Y295899D01*
Y300000D01*
X70000Y321000D01*
X57000Y321000D01*
X48000Y330000D01*
Y371000D01*
X72000Y395000D01*
X82577D01*
X83249Y393837D01*
X83055Y393095D01*
X82290Y391951D01*
X81902Y390000D01*
X82290Y388049D01*
X83055Y386905D01*
X83292Y386000D01*
X83055Y385095D01*
X82290Y383951D01*
X81902Y382000D01*
X82290Y380049D01*
X83395Y378395D01*
X85049Y377290D01*
X87000Y376902D01*
X88951Y377290D01*
X90605Y378395D01*
X91710Y380049D01*
X92098Y382000D01*
X91710Y383951D01*
X90945Y385095D01*
X90708Y386000D01*
X90945Y386905D01*
X91710Y388049D01*
X92098Y390000D01*
X91710Y391951D01*
X90945Y393095D01*
X90751Y393837D01*
X91423Y395000D01*
X162132D01*
X162811Y393730D01*
X162290Y392951D01*
X161902Y391000D01*
X162290Y389049D01*
X163395Y387395D01*
X165049Y386290D01*
X167000Y385902D01*
X168951Y386290D01*
X170605Y387395D01*
X171710Y389049D01*
X172098Y391000D01*
X171710Y392951D01*
X171189Y393730D01*
X171868Y395000D01*
X214491D01*
X214895Y394395D01*
X216549Y393290D01*
X218500Y392902D01*
X220451Y393290D01*
X222105Y394395D01*
X222509Y395000D01*
X266000D01*
X273000Y402000D01*
X277000Y402000D01*
D02*
G37*
G36*
X655436Y402944D02*
X656600Y401200D01*
X680427Y377374D01*
Y368358D01*
X678427Y368093D01*
X675932Y371132D01*
X672604Y373864D01*
X668806Y375894D01*
X664685Y377144D01*
X660400Y377566D01*
X659022Y377430D01*
X659006Y377432D01*
X658354Y377610D01*
X657060Y378256D01*
X656976Y378492D01*
X656927Y378737D01*
X656843Y378863D01*
X656792Y379006D01*
X656624Y379191D01*
X656485Y379399D01*
X653039Y382845D01*
Y387101D01*
X653000Y387298D01*
Y387499D01*
X652923Y387684D01*
X652884Y387881D01*
X652772Y388048D01*
X652695Y388234D01*
X652553Y388376D01*
X652442Y388543D01*
X652275Y388655D01*
X652133Y388797D01*
X651947Y388873D01*
X651780Y388985D01*
X651583Y389024D01*
X651398Y389101D01*
X650845Y389211D01*
X649865Y389865D01*
X649211Y390845D01*
X648981Y392000D01*
X649211Y393155D01*
X649865Y394135D01*
X650845Y394789D01*
X651398Y394899D01*
X651583Y394976D01*
X651780Y395015D01*
X651947Y395127D01*
X652133Y395204D01*
X652275Y395345D01*
X652442Y395457D01*
X652553Y395624D01*
X652695Y395766D01*
X652772Y395952D01*
X652884Y396119D01*
X652923Y396316D01*
X653000Y396501D01*
Y396702D01*
X653039Y396899D01*
Y404970D01*
X655027Y405000D01*
X655436Y402944D01*
D02*
G37*
G36*
X538319Y318507D02*
X538812Y317959D01*
X539028Y317589D01*
X538971Y317400D01*
X538980Y317299D01*
X538961Y317200D01*
X538961Y146845D01*
X523766Y131650D01*
X523655Y131483D01*
X523513Y131341D01*
X523436Y131156D01*
X523436Y131156D01*
X523324Y130989D01*
X523285Y130792D01*
X523208Y130606D01*
X521343Y130158D01*
X521278Y130156D01*
X521269Y130157D01*
X520700Y130232D01*
X518220Y129906D01*
X515909Y128948D01*
X513924Y127425D01*
X512402Y125441D01*
X511445Y123130D01*
X511118Y120650D01*
X511193Y120081D01*
X511194Y120072D01*
X511192Y120008D01*
X510744Y118142D01*
X510558Y118065D01*
X510361Y118026D01*
X510194Y117914D01*
X510009Y117837D01*
X509867Y117695D01*
X509700Y117584D01*
X507555Y115439D01*
X505589D01*
X504253Y117439D01*
X504556Y118170D01*
X504882Y120650D01*
X504556Y123130D01*
X503598Y125441D01*
X502075Y127425D01*
X500091Y128948D01*
X497780Y129906D01*
X495300Y130232D01*
X492820Y129906D01*
X490509Y128948D01*
X488525Y127425D01*
X487002Y125441D01*
X486045Y123130D01*
X485718Y120650D01*
X486045Y118170D01*
X486347Y117439D01*
X485011Y115439D01*
X479400D01*
Y130150D01*
X460400D01*
Y115439D01*
X436152D01*
X435323Y117439D01*
X456442Y138558D01*
X456498Y138642D01*
X456576Y138707D01*
X456658Y138806D01*
X456705Y138895D01*
X456777Y138966D01*
X456878Y139211D01*
X456884Y139220D01*
X456886Y139230D01*
X456891Y139243D01*
X457033Y139507D01*
X457043Y139608D01*
X457081Y139701D01*
Y140001D01*
X457111Y140299D01*
X457081Y140396D01*
Y140497D01*
X456981Y141000D01*
X457211Y142155D01*
X457865Y143135D01*
X458845Y143789D01*
X460000Y144019D01*
X461155Y143789D01*
X462135Y143135D01*
X462789Y142155D01*
X463094Y140620D01*
Y140584D01*
X463133Y140490D01*
X463143Y140390D01*
X463284Y140126D01*
X463399Y139849D01*
X463470Y139777D01*
X463518Y139688D01*
X464324Y138706D01*
X464402Y138642D01*
X464458Y138558D01*
X464707Y138392D01*
X464939Y138202D01*
X465036Y138172D01*
X465120Y138116D01*
X465413Y138058D01*
X465700Y137971D01*
X465801Y137980D01*
X465900Y137961D01*
X515000Y137961D01*
X515780Y138116D01*
X516442Y138558D01*
X516442Y138558D01*
X529442Y151558D01*
X529884Y152220D01*
X530039Y153000D01*
Y185791D01*
X530019Y185890D01*
X530029Y185991D01*
X529942Y186278D01*
X529884Y186571D01*
X529828Y186655D01*
X529799Y186752D01*
X529608Y186984D01*
X529442Y187233D01*
X529358Y187289D01*
X529294Y187367D01*
X529030Y187509D01*
X528780Y187675D01*
X527534Y188750D01*
X527146Y190701D01*
X526041Y192355D01*
X524387Y193460D01*
X522436Y193848D01*
X520485Y193460D01*
X520260Y194154D01*
X520166Y194364D01*
X520066Y194504D01*
X520000Y194663D01*
X519211Y195845D01*
X518981Y197000D01*
X519211Y198155D01*
X519865Y199135D01*
X520845Y199789D01*
X522000Y200019D01*
X523155Y199789D01*
X524135Y199135D01*
X524902Y197986D01*
X524932Y197888D01*
X524996Y197810D01*
X525035Y197717D01*
X525246Y197505D01*
X525436Y197273D01*
X525526Y197226D01*
X525597Y197154D01*
X525874Y197039D01*
X526138Y196898D01*
X526239Y196888D01*
X526332Y196850D01*
X526632Y196850D01*
X526930Y196820D01*
X528200Y196945D01*
X528487Y197032D01*
X528780Y197091D01*
X528865Y197147D01*
X528961Y197176D01*
X529193Y197366D01*
X529442Y197533D01*
X529498Y197617D01*
X529576Y197681D01*
X529717Y197945D01*
X529884Y198194D01*
X529904Y198294D01*
X529951Y198383D01*
X529981Y198681D01*
X530039Y198975D01*
Y243824D01*
X530000Y244021D01*
Y244222D01*
X529923Y244408D01*
X529884Y244604D01*
X529772Y244771D01*
X529696Y244957D01*
X529554Y245099D01*
X529442Y245266D01*
X529275Y245378D01*
X529133Y245520D01*
X528615Y245865D01*
X527961Y246845D01*
X527731Y248000D01*
X527961Y249155D01*
X528615Y250135D01*
X529133Y250480D01*
X529275Y250622D01*
X529442Y250734D01*
X529554Y250901D01*
X529696Y251043D01*
X529772Y251229D01*
X529884Y251396D01*
X529923Y251593D01*
X530000Y251778D01*
Y251979D01*
X530039Y252176D01*
X530039Y288822D01*
X530019Y288921D01*
X530029Y289021D01*
X529942Y289308D01*
X529884Y289602D01*
X529828Y289686D01*
X529798Y289783D01*
X529608Y290014D01*
X529442Y290264D01*
X529358Y290320D01*
X529294Y290398D01*
X529030Y290539D01*
X528780Y290706D01*
X528681Y290725D01*
X528592Y290773D01*
X527322Y291158D01*
X527221Y291168D01*
X527128Y291207D01*
X526828D01*
X526530Y291236D01*
X526433Y291207D01*
X526332D01*
X526055Y291092D01*
X525769Y291005D01*
X525690Y290941D01*
X525597Y290902D01*
X525385Y290690D01*
X525154Y290500D01*
X525106Y290411D01*
X525034Y290340D01*
X524885Y290115D01*
X523905Y289461D01*
X522750Y289231D01*
X521595Y289461D01*
X520615Y290115D01*
X519961Y291095D01*
X519731Y292250D01*
X519961Y293405D01*
X520615Y294385D01*
X521595Y295039D01*
X522750Y295269D01*
X523905Y295039D01*
X524885Y294385D01*
X525034Y294160D01*
X525106Y294089D01*
X525154Y294000D01*
X525385Y293809D01*
X525597Y293598D01*
X525690Y293559D01*
X525769Y293495D01*
X526056Y293408D01*
X526332Y293293D01*
X526433D01*
X526530Y293264D01*
X526828Y293293D01*
X527128D01*
X527221Y293332D01*
X527322Y293342D01*
X528592Y293727D01*
X528681Y293775D01*
X528780Y293794D01*
X529030Y293961D01*
X529294Y294102D01*
X529358Y294180D01*
X529442Y294237D01*
X529608Y294486D01*
X529798Y294717D01*
X529828Y294814D01*
X529884Y294898D01*
X529942Y295192D01*
X530029Y295479D01*
X530019Y295579D01*
X530039Y295679D01*
Y317226D01*
X532039Y318295D01*
X532048Y318290D01*
X533999Y317901D01*
X535950Y318290D01*
X536535Y318680D01*
X537451Y319082D01*
X538319Y318507D01*
D02*
G37*
G36*
X35171Y315000D02*
X35557Y313730D01*
X35535Y313715D01*
X34319Y311896D01*
X33892Y309750D01*
X34319Y307604D01*
X35535Y305785D01*
X37354Y304569D01*
X39500Y304142D01*
X41646Y304569D01*
X43465Y305785D01*
X44681Y307604D01*
X45108Y309750D01*
X44681Y311896D01*
X43465Y313715D01*
X43443Y313730D01*
X43829Y315000D01*
X68000Y315000D01*
X86000Y297000D01*
Y294013D01*
X85290Y292951D01*
X84902Y291000D01*
X85290Y289049D01*
X86000Y287987D01*
X86000Y233000D01*
X82000Y229000D01*
X56000Y229000D01*
X49750Y222750D01*
Y142848D01*
X47799Y142460D01*
X46145Y141355D01*
X45040Y139701D01*
X44652Y137750D01*
X45040Y135799D01*
X46145Y134145D01*
X46716Y133764D01*
Y132236D01*
X46145Y131855D01*
X45040Y130201D01*
X44652Y128250D01*
X45040Y126299D01*
X46145Y124645D01*
X47799Y123540D01*
X49750Y123152D01*
X51701Y123540D01*
X53355Y124645D01*
X88000Y90000D01*
X311875D01*
X319875Y82000D01*
Y59915D01*
X310960Y51000D01*
X296638D01*
X295576Y51710D01*
X293625Y52098D01*
X291674Y51710D01*
X290612Y51000D01*
X252000D01*
X244750Y43750D01*
X151743D01*
X148106Y45694D01*
X143985Y46944D01*
X139700Y47366D01*
X135415Y46944D01*
X131294Y45694D01*
X127657Y43750D01*
X69387D01*
X67951Y44710D01*
X66000Y45098D01*
X64049Y44710D01*
X62613Y43750D01*
X48387D01*
X46951Y44710D01*
X45000Y45098D01*
X43049Y44710D01*
X41613Y43750D01*
X40250D01*
X12000Y72000D01*
Y83264D01*
X13270Y84128D01*
X14750Y83933D01*
X21250D01*
X23273Y84199D01*
X25158Y84980D01*
X26777Y86223D01*
X28020Y87842D01*
X28800Y89727D01*
X29067Y91750D01*
X28800Y93773D01*
X28020Y95658D01*
X26777Y97277D01*
X25158Y98520D01*
X23273Y99300D01*
X21250Y99567D01*
X14750D01*
X13270Y99372D01*
X12000Y100236D01*
Y219101D01*
X12951Y219290D01*
X14605Y220395D01*
X15710Y222049D01*
X16098Y224000D01*
X15710Y225951D01*
X14605Y227605D01*
X12951Y228710D01*
X12000Y228899D01*
Y309000D01*
X18000Y315000D01*
X35171Y315000D01*
D02*
G37*
G36*
X345412Y102721D02*
X343412Y101652D01*
X342951Y101960D01*
X341000Y102348D01*
X339049Y101960D01*
X337395Y100855D01*
X336290Y99201D01*
X335902Y97250D01*
X336290Y95299D01*
X337395Y93645D01*
X339049Y92540D01*
X341000Y92152D01*
X342951Y92540D01*
X343412Y92848D01*
X345412Y91779D01*
Y79383D01*
X345290Y79201D01*
X344902Y77250D01*
X345143Y76039D01*
X343910Y74039D01*
X336000D01*
X336000Y74039D01*
X335220Y73884D01*
X334558Y73442D01*
X334558Y73442D01*
X323762Y62646D01*
X321914Y63411D01*
Y82000D01*
X321759Y82780D01*
X321317Y83442D01*
X313317Y91442D01*
X312655Y91884D01*
X311875Y92039D01*
X279751D01*
X278923Y94039D01*
X294845Y109961D01*
X345412D01*
Y102721D01*
D02*
G37*
G36*
X87000Y221000D02*
Y156913D01*
X85819Y155146D01*
X85392Y153000D01*
X85819Y150854D01*
X84776Y150129D01*
X83035Y148965D01*
X81819Y147146D01*
X81392Y145000D01*
X81819Y142854D01*
X83035Y141035D01*
X84776Y139871D01*
X85819Y139146D01*
X85392Y137000D01*
X85819Y134854D01*
X87035Y133035D01*
X88854Y131819D01*
X91000Y131392D01*
X93146Y131819D01*
X94965Y133035D01*
X96181Y134854D01*
X96608Y137000D01*
X96181Y139146D01*
X97224Y139871D01*
X98965Y141035D01*
X99611Y142001D01*
X100875Y142125D01*
X109000Y134000D01*
Y106000D01*
X104000Y101000D01*
X86000D01*
X81000Y106000D01*
X55000Y132000D01*
X55000Y221000D01*
X60000Y226000D01*
X82000Y226000D01*
X87000Y221000D01*
D02*
G37*
G36*
X680427Y342842D02*
Y193026D01*
X673201Y185800D01*
X672036Y184056D01*
X671627Y182000D01*
Y152327D01*
X670750Y151608D01*
X668604Y151181D01*
X666785Y149965D01*
X665569Y148146D01*
X665142Y146000D01*
X665569Y143854D01*
X666785Y142035D01*
X668604Y140819D01*
X670750Y140392D01*
X671627Y139673D01*
Y110000D01*
X672036Y107944D01*
X673201Y106201D01*
X680427Y98974D01*
Y88958D01*
X678427Y88693D01*
X675932Y91732D01*
X672604Y94464D01*
X668806Y96494D01*
X664685Y97744D01*
X660400Y98166D01*
X656115Y97744D01*
X651994Y96494D01*
X648196Y94464D01*
X644868Y91732D01*
X642136Y88404D01*
X640106Y84606D01*
X638856Y80485D01*
X638434Y76200D01*
X638856Y71915D01*
X640106Y67794D01*
X642136Y63996D01*
X644868Y60668D01*
X648196Y57936D01*
X651994Y55906D01*
X656115Y54656D01*
X660400Y54234D01*
X664685Y54656D01*
X668806Y55906D01*
X672604Y57936D01*
X675932Y60668D01*
X678427Y63707D01*
X680427Y63442D01*
Y53026D01*
X656200Y28800D01*
X655036Y27056D01*
X654627Y25000D01*
Y20000D01*
Y10000D01*
X654660Y9833D01*
X654336Y8204D01*
X653319Y6681D01*
X651796Y5664D01*
X650167Y5340D01*
X650000Y5373D01*
X410086D01*
X409257Y7373D01*
X421780Y19896D01*
X424292Y19579D01*
X425024Y18625D01*
X427009Y17102D01*
X429320Y16144D01*
X430300Y16015D01*
Y25400D01*
X431800D01*
Y26900D01*
X441185D01*
X441055Y27880D01*
X440098Y30191D01*
X438575Y32175D01*
X437621Y32908D01*
X437304Y35420D01*
X460942Y59058D01*
X460942Y59058D01*
X462839Y57161D01*
X603401D01*
X609340Y63100D01*
Y72361D01*
X611340Y72361D01*
X620400D01*
X621180Y72516D01*
X621842Y72958D01*
X621842Y72958D01*
X661842Y112958D01*
X662284Y113619D01*
X662439Y114400D01*
Y333634D01*
X662439Y333634D01*
X662600Y333851D01*
X664685Y334056D01*
X668806Y335306D01*
X672604Y337336D01*
X675932Y340068D01*
X678427Y343107D01*
X680427Y342842D01*
D02*
G37*
G36*
X366405Y114039D02*
X367385Y113385D01*
X368039Y112405D01*
X368199Y111602D01*
X368276Y111417D01*
X368315Y111220D01*
X368426Y111053D01*
X368503Y110867D01*
X368645Y110725D01*
X368757Y110558D01*
X368924Y110446D01*
X369066Y110304D01*
X369252Y110228D01*
X369418Y110116D01*
X369615Y110077D01*
X369801Y110000D01*
X370002D01*
X370199Y109961D01*
X394574D01*
X394771Y110000D01*
X394972D01*
X395158Y110077D01*
X395354Y110116D01*
X395521Y110228D01*
X395707Y110304D01*
X395849Y110446D01*
X396016Y110558D01*
X396128Y110725D01*
X396270Y110867D01*
X396615Y111385D01*
X397595Y112039D01*
X398750Y112269D01*
X399905Y112039D01*
X400885Y111385D01*
X401230Y110867D01*
X401372Y110725D01*
X401484Y110558D01*
X401651Y110446D01*
X401793Y110304D01*
X401979Y110228D01*
X402146Y110116D01*
X402343Y110077D01*
X402528Y110000D01*
X402729D01*
X402926Y109961D01*
X424249D01*
X425077Y107961D01*
X391155Y74039D01*
X356090D01*
X354857Y76039D01*
X355098Y77250D01*
X354710Y79201D01*
X354588Y79383D01*
Y109961D01*
X360301D01*
X360498Y110000D01*
X360699D01*
X360885Y110077D01*
X361082Y110116D01*
X361249Y110228D01*
X361434Y110304D01*
X361576Y110447D01*
X361743Y110558D01*
X361855Y110725D01*
X361997Y110867D01*
X362074Y111053D01*
X362185Y111220D01*
X362224Y111417D01*
X362301Y111602D01*
X362461Y112405D01*
X363115Y113385D01*
X364095Y114039D01*
X365250Y114269D01*
X366405Y114039D01*
D02*
G37*
G36*
X7980Y87842D02*
X9223Y86223D01*
X9278Y86180D01*
X9330Y86130D01*
X9436Y86008D01*
X10295Y84383D01*
X10223Y84205D01*
X10116Y84045D01*
X10075Y83840D01*
X9997Y83646D01*
X9998Y83453D01*
X9961Y83264D01*
Y72000D01*
X10116Y71220D01*
X10558Y70558D01*
X38808Y42308D01*
X39470Y41866D01*
X40250Y41711D01*
X41613D01*
X41809Y41750D01*
X42010D01*
X42196Y41827D01*
X42393Y41866D01*
X42560Y41978D01*
X42745Y42055D01*
X43845Y42789D01*
X45000Y43019D01*
X46155Y42789D01*
X47255Y42055D01*
X47440Y41978D01*
X47607Y41866D01*
X47804Y41827D01*
X47990Y41750D01*
X48191D01*
X48387Y41711D01*
X62613D01*
X62809Y41750D01*
X63010D01*
X63196Y41827D01*
X63393Y41866D01*
X63560Y41978D01*
X63745Y42055D01*
X64845Y42789D01*
X66000Y43019D01*
X67155Y42789D01*
X68254Y42055D01*
X68440Y41978D01*
X68607Y41866D01*
X68804Y41827D01*
X68990Y41750D01*
X69191D01*
X69387Y41711D01*
X122219D01*
X123165Y39711D01*
X121436Y37604D01*
X119406Y33806D01*
X118156Y29685D01*
X117734Y25400D01*
X118156Y21115D01*
X119406Y16994D01*
X121436Y13196D01*
X124168Y9868D01*
X127207Y7373D01*
X126942Y5373D01*
X63096D01*
X62698Y7373D01*
X63415Y7670D01*
X65347Y9153D01*
X66830Y11085D01*
X67762Y13335D01*
X67882Y14250D01*
X56000D01*
X44118D01*
X44238Y13335D01*
X45170Y11085D01*
X46653Y9153D01*
X48585Y7670D01*
X49302Y7373D01*
X48904Y5373D01*
X25298D01*
X24900Y7373D01*
X25158Y7480D01*
X26777Y8723D01*
X28020Y10342D01*
X28800Y12227D01*
X28869Y12750D01*
X18000D01*
Y14250D01*
X16500D01*
Y22067D01*
X14750D01*
X12727Y21800D01*
X10842Y21020D01*
X9223Y19777D01*
X7980Y18158D01*
X7373Y16693D01*
X5373Y17090D01*
Y88910D01*
X7373Y89307D01*
X7980Y87842D01*
D02*
G37*
%LPC*%
G36*
X265660Y517384D02*
Y509500D01*
X273545D01*
X273416Y510480D01*
X272458Y512791D01*
X270935Y514775D01*
X268951Y516298D01*
X266640Y517256D01*
X265660Y517384D01*
D02*
G37*
G36*
X262660D02*
X261680Y517256D01*
X259369Y516298D01*
X257384Y514775D01*
X255862Y512791D01*
X254904Y510480D01*
X254776Y509500D01*
X262660D01*
Y517384D01*
D02*
G37*
G36*
X112000Y512098D02*
X110049Y511710D01*
X108395Y510605D01*
X107290Y508951D01*
X106902Y507000D01*
X107290Y505049D01*
X108395Y503395D01*
X110049Y502290D01*
X112000Y501902D01*
X113951Y502290D01*
X115605Y503395D01*
X116710Y505049D01*
X117098Y507000D01*
X116710Y508951D01*
X115605Y510605D01*
X113951Y511710D01*
X112000Y512098D01*
D02*
G37*
G36*
X273545Y506500D02*
X265660D01*
Y498615D01*
X266640Y498745D01*
X268951Y499702D01*
X270935Y501225D01*
X272458Y503209D01*
X273416Y505520D01*
X273545Y506500D01*
D02*
G37*
G36*
X262660D02*
X254776D01*
X254904Y505520D01*
X255862Y503209D01*
X257384Y501225D01*
X259369Y499702D01*
X261680Y498745D01*
X262660Y498615D01*
Y506500D01*
D02*
G37*
G36*
X644500Y517500D02*
X625500D01*
Y498500D01*
X644500D01*
Y517500D01*
D02*
G37*
G36*
X426060D02*
X407060D01*
Y498500D01*
X426060D01*
Y517500D01*
D02*
G37*
G36*
X609600Y517582D02*
X607120Y517256D01*
X604809Y516298D01*
X602825Y514775D01*
X601302Y512791D01*
X600345Y510480D01*
X600018Y508000D01*
X600345Y505520D01*
X601302Y503209D01*
X602825Y501225D01*
X604809Y499702D01*
X607120Y498745D01*
X609600Y498418D01*
X612080Y498745D01*
X614391Y499702D01*
X616375Y501225D01*
X617898Y503209D01*
X618856Y505520D01*
X619182Y508000D01*
X618856Y510480D01*
X617898Y512791D01*
X616375Y514775D01*
X614391Y516298D01*
X612080Y517256D01*
X609600Y517582D01*
D02*
G37*
G36*
X584200D02*
X581720Y517256D01*
X579409Y516298D01*
X577425Y514775D01*
X575902Y512791D01*
X574944Y510480D01*
X574618Y508000D01*
X574944Y505520D01*
X575902Y503209D01*
X577425Y501225D01*
X579409Y499702D01*
X581720Y498745D01*
X584200Y498418D01*
X586680Y498745D01*
X588991Y499702D01*
X590975Y501225D01*
X592498Y503209D01*
X593456Y505520D01*
X593782Y508000D01*
X593456Y510480D01*
X592498Y512791D01*
X590975Y514775D01*
X588991Y516298D01*
X586680Y517256D01*
X584200Y517582D01*
D02*
G37*
G36*
X558800D02*
X556320Y517256D01*
X554009Y516298D01*
X552024Y514775D01*
X550502Y512791D01*
X549544Y510480D01*
X549218Y508000D01*
X549544Y505520D01*
X550502Y503209D01*
X552024Y501225D01*
X554009Y499702D01*
X556320Y498745D01*
X558800Y498418D01*
X561280Y498745D01*
X563591Y499702D01*
X565575Y501225D01*
X567098Y503209D01*
X568055Y505520D01*
X568382Y508000D01*
X568055Y510480D01*
X567098Y512791D01*
X565575Y514775D01*
X563591Y516298D01*
X561280Y517256D01*
X558800Y517582D01*
D02*
G37*
G36*
X533400D02*
X530920Y517256D01*
X528609Y516298D01*
X526624Y514775D01*
X525102Y512791D01*
X524145Y510480D01*
X523818Y508000D01*
X524145Y505520D01*
X525102Y503209D01*
X526624Y501225D01*
X528609Y499702D01*
X530920Y498745D01*
X533400Y498418D01*
X535880Y498745D01*
X538191Y499702D01*
X540175Y501225D01*
X541698Y503209D01*
X542655Y505520D01*
X542982Y508000D01*
X542655Y510480D01*
X541698Y512791D01*
X540175Y514775D01*
X538191Y516298D01*
X535880Y517256D01*
X533400Y517582D01*
D02*
G37*
G36*
X508000D02*
X505520Y517256D01*
X503209Y516298D01*
X501225Y514775D01*
X499702Y512791D01*
X498745Y510480D01*
X498418Y508000D01*
X498745Y505520D01*
X499702Y503209D01*
X501225Y501225D01*
X503209Y499702D01*
X505520Y498745D01*
X508000Y498418D01*
X510480Y498745D01*
X512791Y499702D01*
X514775Y501225D01*
X516298Y503209D01*
X517256Y505520D01*
X517582Y508000D01*
X517256Y510480D01*
X516298Y512791D01*
X514775Y514775D01*
X512791Y516298D01*
X510480Y517256D01*
X508000Y517582D01*
D02*
G37*
G36*
X482600D02*
X480120Y517256D01*
X477809Y516298D01*
X475825Y514775D01*
X474302Y512791D01*
X473344Y510480D01*
X473018Y508000D01*
X473344Y505520D01*
X474302Y503209D01*
X475825Y501225D01*
X477809Y499702D01*
X480120Y498745D01*
X482600Y498418D01*
X485080Y498745D01*
X487391Y499702D01*
X489375Y501225D01*
X490898Y503209D01*
X491856Y505520D01*
X492182Y508000D01*
X491856Y510480D01*
X490898Y512791D01*
X489375Y514775D01*
X487391Y516298D01*
X485080Y517256D01*
X482600Y517582D01*
D02*
G37*
G36*
X457200D02*
X454720Y517256D01*
X452409Y516298D01*
X450424Y514775D01*
X448902Y512791D01*
X447944Y510480D01*
X447618Y508000D01*
X447944Y505520D01*
X448902Y503209D01*
X450424Y501225D01*
X452409Y499702D01*
X454720Y498745D01*
X457200Y498418D01*
X459680Y498745D01*
X461991Y499702D01*
X463975Y501225D01*
X465498Y503209D01*
X466455Y505520D01*
X466782Y508000D01*
X466455Y510480D01*
X465498Y512791D01*
X463975Y514775D01*
X461991Y516298D01*
X459680Y517256D01*
X457200Y517582D01*
D02*
G37*
G36*
X391160D02*
X388680Y517256D01*
X386369Y516298D01*
X384384Y514775D01*
X382862Y512791D01*
X381904Y510480D01*
X381578Y508000D01*
X381904Y505520D01*
X382862Y503209D01*
X384384Y501225D01*
X386369Y499702D01*
X388680Y498745D01*
X391160Y498418D01*
X393640Y498745D01*
X395951Y499702D01*
X397935Y501225D01*
X399458Y503209D01*
X400415Y505520D01*
X400742Y508000D01*
X400415Y510480D01*
X399458Y512791D01*
X397935Y514775D01*
X395951Y516298D01*
X393640Y517256D01*
X391160Y517582D01*
D02*
G37*
G36*
X365760D02*
X363280Y517256D01*
X360969Y516298D01*
X358984Y514775D01*
X357462Y512791D01*
X356505Y510480D01*
X356178Y508000D01*
X356505Y505520D01*
X357462Y503209D01*
X358984Y501225D01*
X360969Y499702D01*
X363280Y498745D01*
X365760Y498418D01*
X368240Y498745D01*
X370551Y499702D01*
X372536Y501225D01*
X374058Y503209D01*
X375015Y505520D01*
X375342Y508000D01*
X375015Y510480D01*
X374058Y512791D01*
X372536Y514775D01*
X370551Y516298D01*
X368240Y517256D01*
X365760Y517582D01*
D02*
G37*
G36*
X340360D02*
X337880Y517256D01*
X335569Y516298D01*
X333585Y514775D01*
X332062Y512791D01*
X331105Y510480D01*
X330778Y508000D01*
X331105Y505520D01*
X332062Y503209D01*
X333585Y501225D01*
X335569Y499702D01*
X337880Y498745D01*
X340360Y498418D01*
X342840Y498745D01*
X345151Y499702D01*
X347136Y501225D01*
X348658Y503209D01*
X349616Y505520D01*
X349942Y508000D01*
X349616Y510480D01*
X348658Y512791D01*
X347136Y514775D01*
X345151Y516298D01*
X342840Y517256D01*
X340360Y517582D01*
D02*
G37*
G36*
X314960D02*
X312480Y517256D01*
X310169Y516298D01*
X308185Y514775D01*
X306662Y512791D01*
X305704Y510480D01*
X305378Y508000D01*
X305704Y505520D01*
X306662Y503209D01*
X308185Y501225D01*
X310169Y499702D01*
X312480Y498745D01*
X314960Y498418D01*
X317440Y498745D01*
X319751Y499702D01*
X321735Y501225D01*
X323258Y503209D01*
X324216Y505520D01*
X324542Y508000D01*
X324216Y510480D01*
X323258Y512791D01*
X321735Y514775D01*
X319751Y516298D01*
X317440Y517256D01*
X314960Y517582D01*
D02*
G37*
G36*
X289560D02*
X287080Y517256D01*
X284769Y516298D01*
X282785Y514775D01*
X281262Y512791D01*
X280305Y510480D01*
X279978Y508000D01*
X280305Y505520D01*
X281262Y503209D01*
X282785Y501225D01*
X284769Y499702D01*
X287080Y498745D01*
X289560Y498418D01*
X292040Y498745D01*
X294351Y499702D01*
X296336Y501225D01*
X297858Y503209D01*
X298815Y505520D01*
X299142Y508000D01*
X298815Y510480D01*
X297858Y512791D01*
X296336Y514775D01*
X294351Y516298D01*
X292040Y517256D01*
X289560Y517582D01*
D02*
G37*
G36*
X238760D02*
X236280Y517256D01*
X233969Y516298D01*
X231985Y514775D01*
X230462Y512791D01*
X229505Y510480D01*
X229178Y508000D01*
X229505Y505520D01*
X230462Y503209D01*
X231985Y501225D01*
X233969Y499702D01*
X236280Y498745D01*
X238760Y498418D01*
X241240Y498745D01*
X243551Y499702D01*
X245535Y501225D01*
X247058Y503209D01*
X248015Y505520D01*
X248342Y508000D01*
X248015Y510480D01*
X247058Y512791D01*
X245535Y514775D01*
X243551Y516298D01*
X241240Y517256D01*
X238760Y517582D01*
D02*
G37*
G36*
X101000Y493858D02*
X98854Y493431D01*
X97035Y492215D01*
X95819Y490396D01*
X95392Y488250D01*
X95819Y486104D01*
X97035Y484285D01*
X98854Y483069D01*
X101000Y482642D01*
X103146Y483069D01*
X104965Y484285D01*
X106181Y486104D01*
X106608Y488250D01*
X106181Y490396D01*
X104965Y492215D01*
X103146Y493431D01*
X101000Y493858D01*
D02*
G37*
G36*
X37000D02*
X34854Y493431D01*
X33035Y492215D01*
X31819Y490396D01*
X31392Y488250D01*
X31819Y486104D01*
X33035Y484285D01*
X34854Y483069D01*
X37000Y482642D01*
X39146Y483069D01*
X40965Y484285D01*
X42181Y486104D01*
X42608Y488250D01*
X42181Y490396D01*
X40965Y492215D01*
X39146Y493431D01*
X37000Y493858D01*
D02*
G37*
G36*
X144000Y463098D02*
X142049Y462710D01*
X140395Y461605D01*
X139290Y459951D01*
X138902Y458000D01*
X139290Y456049D01*
X140395Y454395D01*
X142049Y453290D01*
X144000Y452902D01*
X145951Y453290D01*
X147605Y454395D01*
X148710Y456049D01*
X149098Y458000D01*
X148710Y459951D01*
X147605Y461605D01*
X145951Y462710D01*
X144000Y463098D01*
D02*
G37*
G36*
X205000Y429098D02*
X203049Y428710D01*
X201395Y427605D01*
X200290Y425951D01*
X199902Y424000D01*
X200290Y422049D01*
X201395Y420395D01*
X203049Y419290D01*
X205000Y418902D01*
X206951Y419290D01*
X208605Y420395D01*
X209710Y422049D01*
X210098Y424000D01*
X209710Y425951D01*
X208605Y427605D01*
X206951Y428710D01*
X205000Y429098D01*
D02*
G37*
G36*
X87000Y453098D02*
X85049Y452710D01*
X83395Y451605D01*
X82290Y449951D01*
X81902Y448000D01*
X82290Y446049D01*
X82649Y445512D01*
X83241Y444000D01*
X82649Y442488D01*
X82290Y441951D01*
X81902Y440000D01*
X82290Y438049D01*
X82649Y437512D01*
X83241Y436000D01*
X82649Y434488D01*
X82290Y433951D01*
X81902Y432000D01*
X82290Y430049D01*
X82649Y429512D01*
X83241Y428000D01*
X82649Y426488D01*
X82290Y425951D01*
X81902Y424000D01*
X82290Y422049D01*
X83395Y420395D01*
X85049Y419290D01*
X87000Y418902D01*
X88951Y419290D01*
X90605Y420395D01*
X91710Y422049D01*
X92098Y424000D01*
X91710Y425951D01*
X91351Y426488D01*
X90759Y428000D01*
X91351Y429512D01*
X91710Y430049D01*
X92098Y432000D01*
X91710Y433951D01*
X91351Y434488D01*
X90759Y436000D01*
X91351Y437512D01*
X91710Y438049D01*
X92098Y440000D01*
X91710Y441951D01*
X91351Y442488D01*
X90759Y444000D01*
X91351Y445512D01*
X91710Y446049D01*
X92098Y448000D01*
X91710Y449951D01*
X90605Y451605D01*
X88951Y452710D01*
X87000Y453098D01*
D02*
G37*
G36*
X644500Y447650D02*
X636500D01*
Y439650D01*
X644500D01*
Y447650D01*
D02*
G37*
G36*
X560300Y447534D02*
Y439650D01*
X568185D01*
X568055Y440630D01*
X567098Y442941D01*
X565575Y444925D01*
X563591Y446448D01*
X561280Y447406D01*
X560300Y447534D01*
D02*
G37*
G36*
X426060Y447650D02*
X418060D01*
Y439650D01*
X426060D01*
Y447650D01*
D02*
G37*
G36*
X291060Y447534D02*
Y439650D01*
X298944D01*
X298815Y440630D01*
X297858Y442941D01*
X296336Y444925D01*
X294351Y446448D01*
X292040Y447406D01*
X291060Y447534D01*
D02*
G37*
G36*
X611100D02*
Y439650D01*
X618984D01*
X618856Y440630D01*
X617898Y442941D01*
X616375Y444925D01*
X614391Y446448D01*
X612080Y447406D01*
X611100Y447534D01*
D02*
G37*
G36*
X585700D02*
Y439650D01*
X593585D01*
X593456Y440630D01*
X592498Y442941D01*
X590975Y444925D01*
X588991Y446448D01*
X586680Y447406D01*
X585700Y447534D01*
D02*
G37*
G36*
X509500D02*
Y439650D01*
X517384D01*
X517256Y440630D01*
X516298Y442941D01*
X514775Y444925D01*
X512791Y446448D01*
X510480Y447406D01*
X509500Y447534D01*
D02*
G37*
G36*
X484100D02*
Y439650D01*
X491984D01*
X491856Y440630D01*
X490898Y442941D01*
X489375Y444925D01*
X487391Y446448D01*
X485080Y447406D01*
X484100Y447534D01*
D02*
G37*
G36*
X367260D02*
Y439650D01*
X375145D01*
X375015Y440630D01*
X374058Y442941D01*
X372536Y444925D01*
X370551Y446448D01*
X368240Y447406D01*
X367260Y447534D01*
D02*
G37*
G36*
X341860D02*
Y439650D01*
X349744D01*
X349616Y440630D01*
X348658Y442941D01*
X347136Y444925D01*
X345151Y446448D01*
X342840Y447406D01*
X341860Y447534D01*
D02*
G37*
G36*
X534900D02*
Y439650D01*
X542785D01*
X542655Y440630D01*
X541698Y442941D01*
X540175Y444925D01*
X538191Y446448D01*
X535880Y447406D01*
X534900Y447534D01*
D02*
G37*
G36*
X458700D02*
Y439650D01*
X466585D01*
X466455Y440630D01*
X465498Y442941D01*
X463975Y444925D01*
X461991Y446448D01*
X459680Y447406D01*
X458700Y447534D01*
D02*
G37*
G36*
X392660D02*
Y439650D01*
X400545D01*
X400415Y440630D01*
X399458Y442941D01*
X397935Y444925D01*
X395951Y446448D01*
X393640Y447406D01*
X392660Y447534D01*
D02*
G37*
G36*
X316460D02*
Y439650D01*
X324344D01*
X324216Y440630D01*
X323258Y442941D01*
X321735Y444925D01*
X319751Y446448D01*
X317440Y447406D01*
X316460Y447534D01*
D02*
G37*
G36*
X557300D02*
X556320Y447406D01*
X554009Y446448D01*
X552024Y444925D01*
X550502Y442941D01*
X549544Y440630D01*
X549416Y439650D01*
X557300D01*
Y447534D01*
D02*
G37*
G36*
X288060D02*
X287080Y447406D01*
X284769Y446448D01*
X282785Y444925D01*
X281262Y442941D01*
X280305Y440630D01*
X280175Y439650D01*
X288060D01*
Y447534D01*
D02*
G37*
G36*
X608100D02*
X607120Y447406D01*
X604809Y446448D01*
X602825Y444925D01*
X601302Y442941D01*
X600345Y440630D01*
X600215Y439650D01*
X608100D01*
Y447534D01*
D02*
G37*
G36*
X582700D02*
X581720Y447406D01*
X579409Y446448D01*
X577425Y444925D01*
X575902Y442941D01*
X574944Y440630D01*
X574815Y439650D01*
X582700D01*
Y447534D01*
D02*
G37*
G36*
X481100D02*
X480120Y447406D01*
X477809Y446448D01*
X475825Y444925D01*
X474302Y442941D01*
X473344Y440630D01*
X473215Y439650D01*
X481100D01*
Y447534D01*
D02*
G37*
G36*
X364260D02*
X363280Y447406D01*
X360969Y446448D01*
X358984Y444925D01*
X357462Y442941D01*
X356505Y440630D01*
X356376Y439650D01*
X364260D01*
Y447534D01*
D02*
G37*
G36*
X338860D02*
X337880Y447406D01*
X335569Y446448D01*
X333585Y444925D01*
X332062Y442941D01*
X331105Y440630D01*
X330975Y439650D01*
X338860D01*
Y447534D01*
D02*
G37*
G36*
X531900D02*
X530920Y447406D01*
X528609Y446448D01*
X526624Y444925D01*
X525102Y442941D01*
X524145Y440630D01*
X524016Y439650D01*
X531900D01*
Y447534D01*
D02*
G37*
G36*
X506500D02*
X505520Y447406D01*
X503209Y446448D01*
X501225Y444925D01*
X499702Y442941D01*
X498745Y440630D01*
X498615Y439650D01*
X506500D01*
Y447534D01*
D02*
G37*
G36*
X389660D02*
X388680Y447406D01*
X386369Y446448D01*
X384384Y444925D01*
X382862Y442941D01*
X381904Y440630D01*
X381776Y439650D01*
X389660D01*
Y447534D01*
D02*
G37*
G36*
X455700D02*
X454720Y447406D01*
X452409Y446448D01*
X450424Y444925D01*
X448902Y442941D01*
X447944Y440630D01*
X447816Y439650D01*
X455700D01*
Y447534D01*
D02*
G37*
G36*
X313460D02*
X312480Y447406D01*
X310169Y446448D01*
X308185Y444925D01*
X306662Y442941D01*
X305704Y440630D01*
X305576Y439650D01*
X313460D01*
Y447534D01*
D02*
G37*
G36*
X633500Y447650D02*
X625500D01*
Y439650D01*
X633500D01*
Y447650D01*
D02*
G37*
G36*
X415060D02*
X407060D01*
Y439650D01*
X415060D01*
Y447650D01*
D02*
G37*
G36*
X618984Y436650D02*
X611100D01*
Y428765D01*
X612080Y428895D01*
X614391Y429852D01*
X616375Y431375D01*
X617898Y433359D01*
X618856Y435670D01*
X618984Y436650D01*
D02*
G37*
G36*
X593585D02*
X585700D01*
Y428765D01*
X586680Y428895D01*
X588991Y429852D01*
X590975Y431375D01*
X592498Y433359D01*
X593456Y435670D01*
X593585Y436650D01*
D02*
G37*
G36*
X568185D02*
X560300D01*
Y428765D01*
X561280Y428895D01*
X563591Y429852D01*
X565575Y431375D01*
X567098Y433359D01*
X568055Y435670D01*
X568185Y436650D01*
D02*
G37*
G36*
X542785D02*
X534900D01*
Y428765D01*
X535880Y428895D01*
X538191Y429852D01*
X540175Y431375D01*
X541698Y433359D01*
X542655Y435670D01*
X542785Y436650D01*
D02*
G37*
G36*
X517384D02*
X509500D01*
Y428765D01*
X510480Y428895D01*
X512791Y429852D01*
X514775Y431375D01*
X516298Y433359D01*
X517256Y435670D01*
X517384Y436650D01*
D02*
G37*
G36*
X491984D02*
X484100D01*
Y428765D01*
X485080Y428895D01*
X487391Y429852D01*
X489375Y431375D01*
X490898Y433359D01*
X491856Y435670D01*
X491984Y436650D01*
D02*
G37*
G36*
X466585D02*
X458700D01*
Y428765D01*
X459680Y428895D01*
X461991Y429852D01*
X463975Y431375D01*
X465498Y433359D01*
X466455Y435670D01*
X466585Y436650D01*
D02*
G37*
G36*
X400545D02*
X392660D01*
Y428765D01*
X393640Y428895D01*
X395951Y429852D01*
X397935Y431375D01*
X399458Y433359D01*
X400415Y435670D01*
X400545Y436650D01*
D02*
G37*
G36*
X375145D02*
X367260D01*
Y428765D01*
X368240Y428895D01*
X370551Y429852D01*
X372536Y431375D01*
X374058Y433359D01*
X375015Y435670D01*
X375145Y436650D01*
D02*
G37*
G36*
X349744D02*
X341860D01*
Y428765D01*
X342840Y428895D01*
X345151Y429852D01*
X347136Y431375D01*
X348658Y433359D01*
X349616Y435670D01*
X349744Y436650D01*
D02*
G37*
G36*
X324344D02*
X316460D01*
Y428765D01*
X317440Y428895D01*
X319751Y429852D01*
X321735Y431375D01*
X323258Y433359D01*
X324216Y435670D01*
X324344Y436650D01*
D02*
G37*
G36*
X298944D02*
X291060D01*
Y428765D01*
X292040Y428895D01*
X294351Y429852D01*
X296336Y431375D01*
X297858Y433359D01*
X298815Y435670D01*
X298944Y436650D01*
D02*
G37*
G36*
X608100D02*
X600215D01*
X600345Y435670D01*
X601302Y433359D01*
X602825Y431375D01*
X604809Y429852D01*
X607120Y428895D01*
X608100Y428765D01*
Y436650D01*
D02*
G37*
G36*
X582700D02*
X574815D01*
X574944Y435670D01*
X575902Y433359D01*
X577425Y431375D01*
X579409Y429852D01*
X581720Y428895D01*
X582700Y428765D01*
Y436650D01*
D02*
G37*
G36*
X557300D02*
X549416D01*
X549544Y435670D01*
X550502Y433359D01*
X552024Y431375D01*
X554009Y429852D01*
X556320Y428895D01*
X557300Y428765D01*
Y436650D01*
D02*
G37*
G36*
X531900D02*
X524016D01*
X524145Y435670D01*
X525102Y433359D01*
X526624Y431375D01*
X528609Y429852D01*
X530920Y428895D01*
X531900Y428765D01*
Y436650D01*
D02*
G37*
G36*
X506500D02*
X498615D01*
X498745Y435670D01*
X499702Y433359D01*
X501225Y431375D01*
X503209Y429852D01*
X505520Y428895D01*
X506500Y428765D01*
Y436650D01*
D02*
G37*
G36*
X481100D02*
X473215D01*
X473344Y435670D01*
X474302Y433359D01*
X475825Y431375D01*
X477809Y429852D01*
X480120Y428895D01*
X481100Y428765D01*
Y436650D01*
D02*
G37*
G36*
X455700D02*
X447816D01*
X447944Y435670D01*
X448902Y433359D01*
X450424Y431375D01*
X452409Y429852D01*
X454720Y428895D01*
X455700Y428765D01*
Y436650D01*
D02*
G37*
G36*
X389660D02*
X381776D01*
X381904Y435670D01*
X382862Y433359D01*
X384384Y431375D01*
X386369Y429852D01*
X388680Y428895D01*
X389660Y428765D01*
Y436650D01*
D02*
G37*
G36*
X364260D02*
X356376D01*
X356505Y435670D01*
X357462Y433359D01*
X358984Y431375D01*
X360969Y429852D01*
X363280Y428895D01*
X364260Y428765D01*
Y436650D01*
D02*
G37*
G36*
X338860D02*
X330975D01*
X331105Y435670D01*
X332062Y433359D01*
X333585Y431375D01*
X335569Y429852D01*
X337880Y428895D01*
X338860Y428765D01*
Y436650D01*
D02*
G37*
G36*
X313460D02*
X305576D01*
X305704Y435670D01*
X306662Y433359D01*
X308185Y431375D01*
X310169Y429852D01*
X312480Y428895D01*
X313460Y428765D01*
Y436650D01*
D02*
G37*
G36*
X288060D02*
X280175D01*
X280305Y435670D01*
X281262Y433359D01*
X282785Y431375D01*
X284769Y429852D01*
X287080Y428895D01*
X288060Y428765D01*
Y436650D01*
D02*
G37*
G36*
X644500D02*
X636500D01*
Y428650D01*
X644500D01*
Y436650D01*
D02*
G37*
G36*
X633500D02*
X625500D01*
Y428650D01*
X633500D01*
Y436650D01*
D02*
G37*
G36*
X426060D02*
X418060D01*
Y428650D01*
X426060D01*
Y436650D01*
D02*
G37*
G36*
X415060D02*
X407060D01*
Y428650D01*
X415060D01*
Y436650D01*
D02*
G37*
G36*
X644500Y422250D02*
X625500D01*
Y403250D01*
X644500D01*
Y422250D01*
D02*
G37*
G36*
X609600Y422332D02*
X607120Y422006D01*
X604809Y421048D01*
X602825Y419525D01*
X601302Y417541D01*
X600345Y415230D01*
X600018Y412750D01*
X600345Y410270D01*
X601302Y407959D01*
X602825Y405975D01*
X604809Y404452D01*
X607120Y403494D01*
X609600Y403168D01*
X612080Y403494D01*
X614391Y404452D01*
X616375Y405975D01*
X617898Y407959D01*
X618856Y410270D01*
X619182Y412750D01*
X618856Y415230D01*
X617898Y417541D01*
X616375Y419525D01*
X614391Y421048D01*
X612080Y422006D01*
X609600Y422332D01*
D02*
G37*
G36*
X584200D02*
X581720Y422006D01*
X579409Y421048D01*
X577425Y419525D01*
X575902Y417541D01*
X574944Y415230D01*
X574618Y412750D01*
X574944Y410270D01*
X575902Y407959D01*
X577425Y405975D01*
X579409Y404452D01*
X581720Y403494D01*
X584200Y403168D01*
X586680Y403494D01*
X588991Y404452D01*
X590975Y405975D01*
X592498Y407959D01*
X593456Y410270D01*
X593782Y412750D01*
X593456Y415230D01*
X592498Y417541D01*
X590975Y419525D01*
X588991Y421048D01*
X586680Y422006D01*
X584200Y422332D01*
D02*
G37*
G36*
X558800D02*
X556320Y422006D01*
X554009Y421048D01*
X552024Y419525D01*
X550502Y417541D01*
X549544Y415230D01*
X549218Y412750D01*
X549544Y410270D01*
X550502Y407959D01*
X552024Y405975D01*
X554009Y404452D01*
X556320Y403494D01*
X558800Y403168D01*
X561280Y403494D01*
X563591Y404452D01*
X565575Y405975D01*
X567098Y407959D01*
X568055Y410270D01*
X568382Y412750D01*
X568055Y415230D01*
X567098Y417541D01*
X565575Y419525D01*
X563591Y421048D01*
X561280Y422006D01*
X558800Y422332D01*
D02*
G37*
G36*
X598000Y326098D02*
X596049Y325710D01*
X594905Y324945D01*
X594000Y324708D01*
X593095Y324945D01*
X591951Y325710D01*
X590000Y326098D01*
X588049Y325710D01*
X586395Y324605D01*
X585605D01*
X583951Y325710D01*
X582000Y326098D01*
X580049Y325710D01*
X578395Y324605D01*
X577605D01*
X575951Y325710D01*
X574000Y326098D01*
X572049Y325710D01*
X570395Y324605D01*
X569290Y322951D01*
X568902Y321000D01*
X569290Y319049D01*
X570395Y317395D01*
X572049Y316290D01*
X574000Y315902D01*
X575951Y316290D01*
X577605Y317395D01*
X578395D01*
X580049Y316290D01*
X582000Y315902D01*
X583951Y316290D01*
X585605Y317395D01*
X586395D01*
X588049Y316290D01*
X590000Y315902D01*
X591951Y316290D01*
X593095Y317055D01*
X594000Y317292D01*
X594905Y317055D01*
X596049Y316290D01*
X598000Y315902D01*
X599951Y316290D01*
X601605Y317395D01*
X602710Y319049D01*
X603098Y321000D01*
X602710Y322951D01*
X601605Y324605D01*
X599951Y325710D01*
X598000Y326098D01*
D02*
G37*
G36*
X641000Y237098D02*
X639049Y236710D01*
X637395Y235605D01*
X636290Y233951D01*
X635902Y232000D01*
X636290Y230049D01*
X637395Y228395D01*
X639049Y227290D01*
X641000Y226902D01*
X642951Y227290D01*
X644605Y228395D01*
X645710Y230049D01*
X646098Y232000D01*
X645710Y233951D01*
X644605Y235605D01*
X642951Y236710D01*
X641000Y237098D01*
D02*
G37*
G36*
X653000Y215098D02*
X651049Y214710D01*
X649395Y213605D01*
X648290Y211951D01*
X647902Y210000D01*
X648290Y208049D01*
X649395Y206395D01*
X651049Y205290D01*
X653000Y204902D01*
X654951Y205290D01*
X656605Y206395D01*
X657710Y208049D01*
X658098Y210000D01*
X657710Y211951D01*
X656605Y213605D01*
X654951Y214710D01*
X653000Y215098D01*
D02*
G37*
G36*
X629000D02*
X627049Y214710D01*
X625395Y213605D01*
X624290Y211951D01*
X623902Y210000D01*
X624290Y208049D01*
X625395Y206395D01*
X627049Y205290D01*
X629000Y204902D01*
X630951Y205290D01*
X632605Y206395D01*
X633710Y208049D01*
X634098Y210000D01*
X633710Y211951D01*
X632605Y213605D01*
X630951Y214710D01*
X629000Y215098D01*
D02*
G37*
G36*
X567000Y172098D02*
X565049Y171710D01*
X563395Y170605D01*
X562290Y168951D01*
X561902Y167000D01*
X562290Y165049D01*
X563395Y163395D01*
X565049Y162290D01*
X567000Y161902D01*
X568951Y162290D01*
X570605Y163395D01*
X571710Y165049D01*
X572098Y167000D01*
X571710Y168951D01*
X570605Y170605D01*
X568951Y171710D01*
X567000Y172098D01*
D02*
G37*
G36*
X643250Y151608D02*
X641104Y151181D01*
X639285Y149965D01*
X638069Y148146D01*
X637642Y146000D01*
X638069Y143854D01*
X639285Y142035D01*
X641104Y140819D01*
X643250Y140392D01*
X645396Y140819D01*
X647215Y142035D01*
X648431Y143854D01*
X648858Y146000D01*
X648431Y148146D01*
X647215Y149965D01*
X645396Y151181D01*
X643250Y151608D01*
D02*
G37*
G36*
X639250Y124848D02*
X637299Y124460D01*
X635645Y123355D01*
X634540Y121701D01*
X634152Y119750D01*
X634540Y117799D01*
X635645Y116145D01*
X637299Y115040D01*
X639250Y114652D01*
X641201Y115040D01*
X642855Y116145D01*
X643960Y117799D01*
X644348Y119750D01*
X643960Y121701D01*
X642855Y123355D01*
X641201Y124460D01*
X639250Y124848D01*
D02*
G37*
G36*
X596900Y130232D02*
X594420Y129906D01*
X592109Y128948D01*
X590125Y127425D01*
X588602Y125441D01*
X587645Y123130D01*
X587318Y120650D01*
X587645Y118170D01*
X588602Y115859D01*
X590125Y113875D01*
X592109Y112352D01*
X594420Y111395D01*
X596900Y111068D01*
X599380Y111395D01*
X601691Y112352D01*
X603675Y113875D01*
X605198Y115859D01*
X606156Y118170D01*
X606482Y120650D01*
X606156Y123130D01*
X605198Y125441D01*
X603675Y127425D01*
X601691Y128948D01*
X599380Y129906D01*
X596900Y130232D01*
D02*
G37*
G36*
X571500D02*
X569020Y129906D01*
X566709Y128948D01*
X564725Y127425D01*
X563202Y125441D01*
X562244Y123130D01*
X561918Y120650D01*
X562244Y118170D01*
X563202Y115859D01*
X564725Y113875D01*
X566709Y112352D01*
X569020Y111395D01*
X571500Y111068D01*
X573980Y111395D01*
X576291Y112352D01*
X578275Y113875D01*
X579798Y115859D01*
X580756Y118170D01*
X581082Y120650D01*
X580756Y123130D01*
X579798Y125441D01*
X578275Y127425D01*
X576291Y128948D01*
X573980Y129906D01*
X571500Y130232D01*
D02*
G37*
G36*
X546100D02*
X543620Y129906D01*
X541309Y128948D01*
X539324Y127425D01*
X537802Y125441D01*
X536844Y123130D01*
X536518Y120650D01*
X536844Y118170D01*
X537802Y115859D01*
X539324Y113875D01*
X541309Y112352D01*
X543620Y111395D01*
X546100Y111068D01*
X548580Y111395D01*
X550891Y112352D01*
X552875Y113875D01*
X554398Y115859D01*
X555355Y118170D01*
X555682Y120650D01*
X555355Y123130D01*
X554398Y125441D01*
X552875Y127425D01*
X550891Y128948D01*
X548580Y129906D01*
X546100Y130232D01*
D02*
G37*
G36*
X598400Y104635D02*
Y96750D01*
X606284D01*
X606156Y97730D01*
X605198Y100041D01*
X603675Y102025D01*
X601691Y103548D01*
X599380Y104506D01*
X598400Y104635D01*
D02*
G37*
G36*
X595400D02*
X594420Y104506D01*
X592109Y103548D01*
X590125Y102025D01*
X588602Y100041D01*
X587645Y97730D01*
X587515Y96750D01*
X595400D01*
Y104635D01*
D02*
G37*
G36*
X573000D02*
Y96750D01*
X580885D01*
X580756Y97730D01*
X579798Y100041D01*
X578275Y102025D01*
X576291Y103548D01*
X573980Y104506D01*
X573000Y104635D01*
D02*
G37*
G36*
X570000D02*
X569020Y104506D01*
X566709Y103548D01*
X564725Y102025D01*
X563202Y100041D01*
X562244Y97730D01*
X562116Y96750D01*
X570000D01*
Y104635D01*
D02*
G37*
G36*
X547600D02*
Y96750D01*
X555485D01*
X555355Y97730D01*
X554398Y100041D01*
X552875Y102025D01*
X550891Y103548D01*
X548580Y104506D01*
X547600Y104635D01*
D02*
G37*
G36*
X544600D02*
X543620Y104506D01*
X541309Y103548D01*
X539324Y102025D01*
X537802Y100041D01*
X536844Y97730D01*
X536716Y96750D01*
X544600D01*
Y104635D01*
D02*
G37*
G36*
X522200D02*
Y96750D01*
X530084D01*
X529955Y97730D01*
X528998Y100041D01*
X527475Y102025D01*
X525491Y103548D01*
X523180Y104506D01*
X522200Y104635D01*
D02*
G37*
G36*
X519200D02*
X518220Y104506D01*
X515909Y103548D01*
X513924Y102025D01*
X512402Y100041D01*
X511445Y97730D01*
X511315Y96750D01*
X519200D01*
Y104635D01*
D02*
G37*
G36*
X496800D02*
Y96750D01*
X504684D01*
X504556Y97730D01*
X503598Y100041D01*
X502075Y102025D01*
X500091Y103548D01*
X497780Y104506D01*
X496800Y104635D01*
D02*
G37*
G36*
X493800D02*
X492820Y104506D01*
X490509Y103548D01*
X488525Y102025D01*
X487002Y100041D01*
X486045Y97730D01*
X485915Y96750D01*
X493800D01*
Y104635D01*
D02*
G37*
G36*
X479400Y104750D02*
X471400D01*
Y96750D01*
X479400D01*
Y104750D01*
D02*
G37*
G36*
X468400D02*
X460400D01*
Y96750D01*
X468400D01*
Y104750D01*
D02*
G37*
G36*
X606284Y93750D02*
X598400D01*
Y85865D01*
X599380Y85995D01*
X601691Y86952D01*
X603675Y88475D01*
X605198Y90459D01*
X606156Y92770D01*
X606284Y93750D01*
D02*
G37*
G36*
X595400D02*
X587515D01*
X587645Y92770D01*
X588602Y90459D01*
X590125Y88475D01*
X592109Y86952D01*
X594420Y85995D01*
X595400Y85865D01*
Y93750D01*
D02*
G37*
G36*
X580885D02*
X573000D01*
Y85865D01*
X573980Y85995D01*
X576291Y86952D01*
X578275Y88475D01*
X579798Y90459D01*
X580756Y92770D01*
X580885Y93750D01*
D02*
G37*
G36*
X570000D02*
X562116D01*
X562244Y92770D01*
X563202Y90459D01*
X564725Y88475D01*
X566709Y86952D01*
X569020Y85995D01*
X570000Y85865D01*
Y93750D01*
D02*
G37*
G36*
X555485D02*
X547600D01*
Y85865D01*
X548580Y85995D01*
X550891Y86952D01*
X552875Y88475D01*
X554398Y90459D01*
X555355Y92770D01*
X555485Y93750D01*
D02*
G37*
G36*
X544600D02*
X536716D01*
X536844Y92770D01*
X537802Y90459D01*
X539324Y88475D01*
X541309Y86952D01*
X543620Y85995D01*
X544600Y85865D01*
Y93750D01*
D02*
G37*
G36*
X530084D02*
X522200D01*
Y85865D01*
X523180Y85995D01*
X525491Y86952D01*
X527475Y88475D01*
X528998Y90459D01*
X529955Y92770D01*
X530084Y93750D01*
D02*
G37*
G36*
X519200D02*
X511315D01*
X511445Y92770D01*
X512402Y90459D01*
X513924Y88475D01*
X515909Y86952D01*
X518220Y85995D01*
X519200Y85865D01*
Y93750D01*
D02*
G37*
G36*
X504684D02*
X496800D01*
Y85865D01*
X497780Y85995D01*
X500091Y86952D01*
X502075Y88475D01*
X503598Y90459D01*
X504556Y92770D01*
X504684Y93750D01*
D02*
G37*
G36*
X493800D02*
X485915D01*
X486045Y92770D01*
X487002Y90459D01*
X488525Y88475D01*
X490509Y86952D01*
X492820Y85995D01*
X493800Y85865D01*
Y93750D01*
D02*
G37*
G36*
X479400D02*
X471400D01*
Y85750D01*
X479400D01*
Y93750D01*
D02*
G37*
G36*
X468400D02*
X460400D01*
Y85750D01*
X468400D01*
Y93750D01*
D02*
G37*
G36*
X382500Y34785D02*
Y26900D01*
X390384D01*
X390256Y27880D01*
X389298Y30191D01*
X387775Y32175D01*
X385791Y33698D01*
X383480Y34655D01*
X382500Y34785D01*
D02*
G37*
G36*
X379500D02*
X378520Y34655D01*
X376209Y33698D01*
X374225Y32175D01*
X372702Y30191D01*
X371744Y27880D01*
X371615Y26900D01*
X379500D01*
Y34785D01*
D02*
G37*
G36*
X390384Y23900D02*
X382500D01*
Y16015D01*
X383480Y16144D01*
X385791Y17102D01*
X387775Y18625D01*
X389298Y20609D01*
X390256Y22920D01*
X390384Y23900D01*
D02*
G37*
G36*
X379500D02*
X371615D01*
X371744Y22920D01*
X372702Y20609D01*
X374225Y18625D01*
X376209Y17102D01*
X378520Y16144D01*
X379500Y16015D01*
Y23900D01*
D02*
G37*
G36*
X339700Y34900D02*
X320700D01*
Y15900D01*
X339700D01*
Y34900D01*
D02*
G37*
G36*
X406400Y34982D02*
X403920Y34655D01*
X401609Y33698D01*
X399624Y32175D01*
X398102Y30191D01*
X397145Y27880D01*
X396818Y25400D01*
X397145Y22920D01*
X398102Y20609D01*
X399624Y18625D01*
X401609Y17102D01*
X403920Y16144D01*
X406400Y15818D01*
X408880Y16144D01*
X411191Y17102D01*
X413176Y18625D01*
X414698Y20609D01*
X415656Y22920D01*
X415982Y25400D01*
X415656Y27880D01*
X414698Y30191D01*
X413176Y32175D01*
X411191Y33698D01*
X408880Y34655D01*
X406400Y34982D01*
D02*
G37*
G36*
X355600D02*
X353120Y34655D01*
X350809Y33698D01*
X348825Y32175D01*
X347302Y30191D01*
X346344Y27880D01*
X346018Y25400D01*
X346344Y22920D01*
X347302Y20609D01*
X348825Y18625D01*
X350809Y17102D01*
X353120Y16144D01*
X355600Y15818D01*
X358080Y16144D01*
X360391Y17102D01*
X362375Y18625D01*
X363898Y20609D01*
X364855Y22920D01*
X365182Y25400D01*
X364855Y27880D01*
X363898Y30191D01*
X362375Y32175D01*
X360391Y33698D01*
X358080Y34655D01*
X355600Y34982D01*
D02*
G37*
G36*
X360250Y400598D02*
X358299Y400210D01*
X356645Y399105D01*
X356180Y398409D01*
X354653D01*
X354355Y398855D01*
X352701Y399960D01*
X350750Y400348D01*
X348799Y399960D01*
X347145Y398855D01*
X346040Y397201D01*
X345652Y395250D01*
X346040Y393299D01*
X347145Y391645D01*
X348799Y390540D01*
X350750Y390152D01*
X352701Y390540D01*
X354355Y391645D01*
X354820Y392341D01*
X356347D01*
X356645Y391895D01*
X358299Y390790D01*
X360250Y390402D01*
X362201Y390790D01*
X363855Y391895D01*
X364960Y393549D01*
X365348Y395500D01*
X364960Y397451D01*
X363855Y399105D01*
X362201Y400210D01*
X360250Y400598D01*
D02*
G37*
G36*
X301000Y398098D02*
X299049Y397710D01*
X297395Y396605D01*
X296290Y394951D01*
X295902Y393000D01*
X296290Y391049D01*
X297055Y389905D01*
X297292Y389000D01*
X297055Y388095D01*
X296290Y386951D01*
X295902Y385000D01*
X296290Y383049D01*
X297395Y381395D01*
X299049Y380290D01*
X301000Y379902D01*
X302951Y380290D01*
X304605Y381395D01*
X305710Y383049D01*
X306098Y385000D01*
X305710Y386951D01*
X304945Y388095D01*
X304708Y389000D01*
X304945Y389905D01*
X305710Y391049D01*
X306098Y393000D01*
X305710Y394951D01*
X304605Y396605D01*
X302951Y397710D01*
X301000Y398098D01*
D02*
G37*
G36*
X270299Y385712D02*
X268349Y385324D01*
X266695Y384219D01*
X265590Y382565D01*
X265202Y380614D01*
X265480Y379216D01*
X264337Y378452D01*
X263951Y378710D01*
X262000Y379098D01*
X260049Y378710D01*
X258395Y377605D01*
X257290Y375951D01*
X256902Y374000D01*
X257290Y372049D01*
X258395Y370395D01*
X260049Y369290D01*
X262000Y368902D01*
X263951Y369290D01*
X265605Y370395D01*
X266710Y372049D01*
X267098Y374000D01*
X266820Y375398D01*
X267963Y376162D01*
X268349Y375904D01*
X270299Y375516D01*
X272250Y375904D01*
X273904Y377009D01*
X275009Y378663D01*
X275397Y380614D01*
X275009Y382565D01*
X273904Y384219D01*
X272250Y385324D01*
X270299Y385712D01*
D02*
G37*
G36*
X489000Y387098D02*
X487049Y386710D01*
X485395Y385605D01*
X484290Y383951D01*
X483902Y382000D01*
X484290Y380049D01*
X485395Y378395D01*
X487049Y377290D01*
X489000Y376902D01*
X490951Y377290D01*
X492605Y378395D01*
X493710Y380049D01*
X494098Y382000D01*
X493710Y383951D01*
X492605Y385605D01*
X490951Y386710D01*
X489000Y387098D01*
D02*
G37*
G36*
X170000Y385098D02*
X168049Y384710D01*
X166395Y383605D01*
X165290Y381951D01*
X164902Y380000D01*
X165290Y378049D01*
X166395Y376395D01*
X168049Y375290D01*
X170000Y374902D01*
X171951Y375290D01*
X173605Y376395D01*
X174710Y378049D01*
X175098Y380000D01*
X174710Y381951D01*
X173605Y383605D01*
X171951Y384710D01*
X170000Y385098D01*
D02*
G37*
G36*
X113000D02*
X111049Y384710D01*
X109395Y383605D01*
X108290Y381951D01*
X107902Y380000D01*
X108290Y378049D01*
X109395Y376395D01*
X111049Y375290D01*
X113000Y374902D01*
X114951Y375290D01*
X116605Y376395D01*
X117710Y378049D01*
X118098Y380000D01*
X117710Y381951D01*
X116605Y383605D01*
X114951Y384710D01*
X113000Y385098D01*
D02*
G37*
G36*
X170000Y373098D02*
X168049Y372710D01*
X166395Y371605D01*
X165290Y369951D01*
X164902Y368000D01*
X164965Y367683D01*
X164067Y366785D01*
X163750Y366848D01*
X161799Y366460D01*
X160145Y365355D01*
X159040Y363701D01*
X158652Y361750D01*
X159040Y359799D01*
X160145Y358145D01*
X161799Y357040D01*
X163750Y356652D01*
X165701Y357040D01*
X167355Y358145D01*
X168460Y359799D01*
X168848Y361750D01*
X168785Y362067D01*
X169683Y362965D01*
X170000Y362902D01*
X171951Y363290D01*
X173605Y364395D01*
X174710Y366049D01*
X175098Y368000D01*
X174710Y369951D01*
X173605Y371605D01*
X171951Y372710D01*
X170000Y373098D01*
D02*
G37*
G36*
X119250Y374848D02*
X117299Y374460D01*
X115645Y373355D01*
X114540Y371701D01*
X114152Y369750D01*
X114540Y367799D01*
X115645Y366145D01*
X117299Y365040D01*
X119250Y364652D01*
X121201Y365040D01*
X122855Y366145D01*
X123960Y367799D01*
X124348Y369750D01*
X123960Y371701D01*
X122855Y373355D01*
X121201Y374460D01*
X119250Y374848D01*
D02*
G37*
G36*
X489000Y373098D02*
X487049Y372710D01*
X485395Y371605D01*
X484290Y369951D01*
X483902Y368000D01*
X484290Y366049D01*
X485395Y364395D01*
X487049Y363290D01*
X489000Y362902D01*
X490951Y363290D01*
X492605Y364395D01*
X493710Y366049D01*
X494098Y368000D01*
X493710Y369951D01*
X492605Y371605D01*
X490951Y372710D01*
X489000Y373098D01*
D02*
G37*
G36*
X516000Y369098D02*
X514049Y368710D01*
X512395Y367605D01*
X511290Y365951D01*
X510902Y364000D01*
X511290Y362049D01*
X512395Y360395D01*
X514049Y359290D01*
X516000Y358902D01*
X517951Y359290D01*
X519605Y360395D01*
X520710Y362049D01*
X521098Y364000D01*
X520710Y365951D01*
X519605Y367605D01*
X517951Y368710D01*
X516000Y369098D01*
D02*
G37*
G36*
X286975Y364583D02*
X285024Y364195D01*
X283370Y363090D01*
X282265Y361436D01*
X281877Y359485D01*
X282265Y357534D01*
X283370Y355880D01*
X285024Y354775D01*
X286975Y354387D01*
X288926Y354775D01*
X290579Y355880D01*
X291685Y357534D01*
X292073Y359485D01*
X291685Y361436D01*
X290579Y363090D01*
X288926Y364195D01*
X286975Y364583D01*
D02*
G37*
G36*
X445500Y362598D02*
X443549Y362210D01*
X441895Y361105D01*
X440790Y359451D01*
X440402Y357500D01*
X440790Y355549D01*
X441895Y353895D01*
X443549Y352790D01*
X445500Y352402D01*
X447451Y352790D01*
X449105Y353895D01*
X450210Y355549D01*
X450598Y357500D01*
X450210Y359451D01*
X449105Y361105D01*
X447451Y362210D01*
X445500Y362598D01*
D02*
G37*
G36*
X430500D02*
X428549Y362210D01*
X426895Y361105D01*
X425790Y359451D01*
X425402Y357500D01*
X425790Y355549D01*
X426895Y353895D01*
X428549Y352790D01*
X430500Y352402D01*
X432451Y352790D01*
X434105Y353895D01*
X435210Y355549D01*
X435598Y357500D01*
X435210Y359451D01*
X434105Y361105D01*
X432451Y362210D01*
X430500Y362598D01*
D02*
G37*
G36*
X418000Y362098D02*
X416049Y361710D01*
X414395Y360605D01*
X413290Y358951D01*
X412902Y357000D01*
X413290Y355049D01*
X414395Y353395D01*
X416049Y352290D01*
X418000Y351902D01*
X419951Y352290D01*
X421605Y353395D01*
X422710Y355049D01*
X423098Y357000D01*
X422710Y358951D01*
X421605Y360605D01*
X419951Y361710D01*
X418000Y362098D01*
D02*
G37*
G36*
X131000Y350098D02*
X129049Y349710D01*
X127395Y348605D01*
X126889Y347847D01*
X125361D01*
X124855Y348605D01*
X123201Y349710D01*
X121250Y350098D01*
X119299Y349710D01*
X117645Y348605D01*
X116540Y346951D01*
X116152Y345000D01*
X116540Y343049D01*
X117645Y341395D01*
X119299Y340290D01*
X121250Y339902D01*
X123201Y340290D01*
X124855Y341395D01*
X125361Y342153D01*
X126889D01*
X127395Y341395D01*
X129049Y340290D01*
X131000Y339902D01*
X132951Y340290D01*
X134605Y341395D01*
X135710Y343049D01*
X136098Y345000D01*
X135710Y346951D01*
X134605Y348605D01*
X132951Y349710D01*
X131000Y350098D01*
D02*
G37*
G36*
X465000Y363098D02*
X463049Y362710D01*
X461395Y361605D01*
X460290Y359951D01*
X459902Y358000D01*
X460290Y356049D01*
X461395Y354395D01*
X463049Y353290D01*
X465000Y352902D01*
X465819Y353065D01*
X466902Y352000D01*
X467290Y350049D01*
X468395Y348395D01*
X470049Y347290D01*
X472000Y346902D01*
X473951Y347290D01*
X475605Y348395D01*
X476710Y350049D01*
X477098Y352000D01*
X476710Y353951D01*
X475605Y355605D01*
X473951Y356710D01*
X472000Y357098D01*
X471181Y356935D01*
X470098Y358000D01*
X469710Y359951D01*
X468605Y361605D01*
X466951Y362710D01*
X465000Y363098D01*
D02*
G37*
G36*
X301999Y355097D02*
X300049Y354709D01*
X298395Y353604D01*
X297290Y351950D01*
X296901Y349999D01*
X297290Y348048D01*
X298395Y346395D01*
X300049Y345289D01*
X301999Y344901D01*
X303950Y345289D01*
X305604Y346395D01*
X306709Y348048D01*
X307097Y349999D01*
X306709Y351950D01*
X305604Y353604D01*
X303950Y354709D01*
X301999Y355097D01*
D02*
G37*
G36*
X351000Y354098D02*
X349049Y353710D01*
X347395Y352605D01*
X346290Y350951D01*
X345902Y349000D01*
X346290Y347049D01*
X347395Y345395D01*
X349049Y344290D01*
X351000Y343902D01*
X352951Y344290D01*
X354605Y345395D01*
X355710Y347049D01*
X356098Y349000D01*
X355710Y350951D01*
X354605Y352605D01*
X352951Y353710D01*
X351000Y354098D01*
D02*
G37*
G36*
X272000Y353098D02*
X270049Y352710D01*
X268395Y351605D01*
X267290Y349951D01*
X266902Y348000D01*
X267290Y346049D01*
X268395Y344395D01*
X270049Y343290D01*
X272000Y342902D01*
X273951Y343290D01*
X275605Y344395D01*
X276710Y346049D01*
X277098Y348000D01*
X276710Y349951D01*
X275605Y351605D01*
X273951Y352710D01*
X272000Y353098D01*
D02*
G37*
G36*
X452000Y351098D02*
X450049Y350710D01*
X448395Y349605D01*
X447290Y347951D01*
X446902Y346000D01*
X447290Y344049D01*
X448395Y342395D01*
X450049Y341290D01*
X452000Y340902D01*
X453951Y341290D01*
X455605Y342395D01*
X456710Y344049D01*
X457098Y346000D01*
X456710Y347951D01*
X455605Y349605D01*
X453951Y350710D01*
X452000Y351098D01*
D02*
G37*
G36*
X63480Y349368D02*
X61529Y348980D01*
X59875Y347875D01*
X58770Y346221D01*
X58382Y344270D01*
X58770Y342319D01*
X59875Y340665D01*
X61529Y339560D01*
X63480Y339172D01*
X65431Y339560D01*
X67085Y340665D01*
X68190Y342319D01*
X68578Y344270D01*
X68190Y346221D01*
X67085Y347875D01*
X65431Y348980D01*
X63480Y349368D01*
D02*
G37*
G36*
X158500Y349348D02*
X156549Y348960D01*
X154895Y347855D01*
X153790Y346201D01*
X153402Y344250D01*
X153790Y342299D01*
X154895Y340645D01*
X156549Y339540D01*
X158500Y339152D01*
X160451Y339540D01*
X162105Y340645D01*
X163210Y342299D01*
X163598Y344250D01*
X163210Y346201D01*
X162105Y347855D01*
X160451Y348960D01*
X158500Y349348D01*
D02*
G37*
G36*
X191250Y349098D02*
X189299Y348710D01*
X187645Y347605D01*
X186540Y345951D01*
X186152Y344000D01*
X186540Y342049D01*
X187645Y340395D01*
X189299Y339290D01*
X191250Y338902D01*
X193201Y339290D01*
X194855Y340395D01*
X195960Y342049D01*
X196348Y344000D01*
X195960Y345951D01*
X194855Y347605D01*
X193201Y348710D01*
X191250Y349098D01*
D02*
G37*
G36*
X146000Y345098D02*
X144049Y344710D01*
X142395Y343605D01*
X141290Y341951D01*
X140902Y340000D01*
X141290Y338049D01*
X142395Y336395D01*
X144049Y335290D01*
X146000Y334902D01*
X147951Y335290D01*
X149605Y336395D01*
X150710Y338049D01*
X151098Y340000D01*
X150710Y341951D01*
X149605Y343605D01*
X147951Y344710D01*
X146000Y345098D01*
D02*
G37*
G36*
X255000Y343098D02*
X253049Y342710D01*
X251395Y341605D01*
X250290Y339951D01*
X249902Y338000D01*
X250290Y336049D01*
X251395Y334395D01*
X253049Y333290D01*
X255000Y332902D01*
X256951Y333290D01*
X258605Y334395D01*
X259710Y336049D01*
X260098Y338000D01*
X259710Y339951D01*
X258605Y341605D01*
X256951Y342710D01*
X255000Y343098D01*
D02*
G37*
G36*
X439500Y338598D02*
X437549Y338210D01*
X435895Y337105D01*
X434790Y335451D01*
X434402Y333500D01*
X434790Y331549D01*
X435895Y329895D01*
X437549Y328790D01*
X439500Y328402D01*
X441451Y328790D01*
X443105Y329895D01*
X444210Y331549D01*
X444598Y333500D01*
X444210Y335451D01*
X443105Y337105D01*
X441451Y338210D01*
X439500Y338598D01*
D02*
G37*
G36*
X103000Y335098D02*
X101049Y334710D01*
X99395Y333605D01*
X98290Y331951D01*
X97902Y330000D01*
X98290Y328049D01*
X99395Y326395D01*
X101049Y325290D01*
X103000Y324902D01*
X104951Y325290D01*
X106605Y326395D01*
X107710Y328049D01*
X108098Y330000D01*
X107710Y331951D01*
X106605Y333605D01*
X104951Y334710D01*
X103000Y335098D01*
D02*
G37*
G36*
X180000Y321098D02*
X178049Y320710D01*
X176395Y319605D01*
X175764Y318660D01*
X174236D01*
X173605Y319605D01*
X171951Y320710D01*
X170000Y321098D01*
X168049Y320710D01*
X166395Y319605D01*
X165290Y317951D01*
X164902Y316000D01*
X165290Y314049D01*
X166395Y312395D01*
X168049Y311290D01*
X170000Y310902D01*
X171951Y311290D01*
X173605Y312395D01*
X174236Y313340D01*
X175764D01*
X176395Y312395D01*
X178049Y311290D01*
X180000Y310902D01*
X181951Y311290D01*
X183605Y312395D01*
X184710Y314049D01*
X185098Y316000D01*
X184710Y317951D01*
X183605Y319605D01*
X181951Y320710D01*
X180000Y321098D01*
D02*
G37*
G36*
X302000Y343098D02*
X300049Y342710D01*
X298395Y341605D01*
X297290Y339951D01*
X296902Y338000D01*
X297290Y336049D01*
X298395Y334395D01*
X300049Y333290D01*
X302000Y332902D01*
X303944Y333289D01*
X304290Y331549D01*
X305395Y329895D01*
X307049Y328790D01*
X308314Y328539D01*
X309402Y327500D01*
X309790Y325549D01*
X310895Y323895D01*
X312549Y322790D01*
X313813Y322539D01*
X314857Y321277D01*
X314777Y320875D01*
X315033Y319588D01*
X314044Y318490D01*
X313500Y318598D01*
X311549Y318210D01*
X309895Y317105D01*
X308790Y315451D01*
X308402Y313500D01*
X308790Y311549D01*
X309895Y309895D01*
X311549Y308790D01*
X313500Y308402D01*
X315451Y308790D01*
X317105Y309895D01*
X318210Y311549D01*
X318598Y313500D01*
X318342Y314787D01*
X319331Y315885D01*
X319875Y315777D01*
X321826Y316165D01*
X323480Y317270D01*
X324585Y318924D01*
X324973Y320875D01*
X324585Y322826D01*
X323480Y324480D01*
X321826Y325585D01*
X320562Y325836D01*
X319518Y327098D01*
X319598Y327500D01*
X319210Y329451D01*
X318105Y331105D01*
X316451Y332210D01*
X315186Y332462D01*
X314098Y333500D01*
X313710Y335451D01*
X312605Y337105D01*
X310951Y338210D01*
X309000Y338598D01*
X307056Y338211D01*
X306710Y339951D01*
X305605Y341605D01*
X303951Y342710D01*
X302000Y343098D01*
D02*
G37*
G36*
X235735Y328097D02*
X233785Y327709D01*
X232131Y326604D01*
X231026Y324950D01*
X230637Y322999D01*
X231026Y321049D01*
X232131Y319395D01*
X233785Y318290D01*
X235735Y317901D01*
X237686Y318290D01*
X239340Y319395D01*
X240445Y321049D01*
X240833Y322999D01*
X240445Y324950D01*
X239340Y326604D01*
X237686Y327709D01*
X235735Y328097D01*
D02*
G37*
G36*
X137960Y322098D02*
X136009Y321710D01*
X134355Y320605D01*
X133250Y318951D01*
X132862Y317000D01*
X133250Y315049D01*
X134355Y313395D01*
X136009Y312290D01*
X137960Y311902D01*
X139911Y312290D01*
X141565Y313395D01*
X142670Y315049D01*
X143058Y317000D01*
X142670Y318951D01*
X141565Y320605D01*
X139911Y321710D01*
X137960Y322098D01*
D02*
G37*
G36*
X234000Y316098D02*
X232049Y315710D01*
X230395Y314605D01*
X229290Y312951D01*
X228902Y311000D01*
X229290Y309049D01*
X230395Y307395D01*
X232049Y306290D01*
X234000Y305902D01*
X235951Y306290D01*
X237605Y307395D01*
X238710Y309049D01*
X239098Y311000D01*
X238710Y312951D01*
X237605Y314605D01*
X235951Y315710D01*
X234000Y316098D01*
D02*
G37*
G36*
X254000Y314097D02*
X252049Y313709D01*
X250395Y312604D01*
X249290Y310950D01*
X248902Y308999D01*
X249290Y307048D01*
X250395Y305395D01*
X252049Y304289D01*
X254000Y303901D01*
X255950Y304289D01*
X257604Y305395D01*
X258709Y307048D01*
X259097Y308999D01*
X258709Y310950D01*
X257604Y312604D01*
X255950Y313709D01*
X254000Y314097D01*
D02*
G37*
G36*
X199000Y313598D02*
X197049Y313210D01*
X195395Y312105D01*
X194290Y310451D01*
X193902Y308500D01*
X194290Y306549D01*
X195395Y304895D01*
X197049Y303790D01*
X199000Y303402D01*
X200951Y303790D01*
X202605Y304895D01*
X203710Y306549D01*
X204098Y308500D01*
X203710Y310451D01*
X202605Y312105D01*
X200951Y313210D01*
X199000Y313598D01*
D02*
G37*
G36*
X92000Y313098D02*
X90049Y312710D01*
X88395Y311605D01*
X87290Y309951D01*
X86902Y308000D01*
X87290Y306049D01*
X88395Y304395D01*
X90049Y303290D01*
X92000Y302902D01*
X93951Y303290D01*
X95605Y304395D01*
X96710Y306049D01*
X97098Y308000D01*
X96710Y309951D01*
X95605Y311605D01*
X93951Y312710D01*
X92000Y313098D01*
D02*
G37*
G36*
X270000Y337097D02*
X268049Y336709D01*
X266395Y335604D01*
X265290Y333950D01*
X264902Y331999D01*
X265290Y330048D01*
X266395Y328395D01*
X268049Y327289D01*
X270000Y326901D01*
X271343Y327169D01*
X303247Y295264D01*
X303290Y295049D01*
X304395Y293395D01*
X306049Y292290D01*
X308000Y291902D01*
X309951Y292290D01*
X311605Y293395D01*
X312710Y295049D01*
X313098Y297000D01*
X312710Y298951D01*
X311605Y300605D01*
X309951Y301710D01*
X309736Y301753D01*
X276245Y335244D01*
X274757Y336238D01*
X273001Y336587D01*
X272133D01*
X271950Y336709D01*
X270000Y337097D01*
D02*
G37*
G36*
X252999Y298097D02*
X251049Y297709D01*
X249395Y296604D01*
X248290Y294950D01*
X247901Y292999D01*
X248290Y291049D01*
X249395Y289395D01*
X251049Y288290D01*
X252999Y287901D01*
X254950Y288290D01*
X256604Y289395D01*
X257709Y291049D01*
X258097Y292999D01*
X257709Y294950D01*
X256604Y296604D01*
X254950Y297709D01*
X252999Y298097D01*
D02*
G37*
G36*
X238000Y295098D02*
X236049Y294710D01*
X234395Y293605D01*
X233290Y291951D01*
X232902Y290000D01*
X233290Y288049D01*
X234395Y286395D01*
X236049Y285290D01*
X238000Y284902D01*
X239951Y285290D01*
X241605Y286395D01*
X242710Y288049D01*
X243098Y290000D01*
X242710Y291951D01*
X241605Y293605D01*
X239951Y294710D01*
X238000Y295098D01*
D02*
G37*
G36*
X245800Y286098D02*
X243849Y285710D01*
X242195Y284605D01*
X241090Y282951D01*
X240702Y281000D01*
X241090Y279049D01*
X242195Y277395D01*
X243849Y276290D01*
X245800Y275902D01*
X247750Y276290D01*
X249404Y277395D01*
X250509Y279049D01*
X250898Y281000D01*
X250509Y282951D01*
X249404Y284605D01*
X247750Y285710D01*
X245800Y286098D01*
D02*
G37*
G36*
X306000D02*
X304049Y285710D01*
X302395Y284605D01*
X301290Y282951D01*
X300902Y281000D01*
X301290Y279049D01*
X302395Y277395D01*
X302537Y277301D01*
X302269Y275952D01*
X301049Y275710D01*
X299395Y274605D01*
X298290Y272951D01*
X297902Y271000D01*
X298290Y269049D01*
X299395Y267395D01*
X301049Y266290D01*
X303000Y265902D01*
X304951Y266290D01*
X306605Y267395D01*
X307710Y269049D01*
X308098Y271000D01*
X307710Y272951D01*
X306605Y274605D01*
X306463Y274699D01*
X306731Y276048D01*
X307951Y276290D01*
X309605Y277395D01*
X310710Y279049D01*
X311098Y281000D01*
X310710Y282951D01*
X309605Y284605D01*
X307951Y285710D01*
X306000Y286098D01*
D02*
G37*
G36*
X484000Y272098D02*
X482049Y271710D01*
X480395Y270605D01*
X479290Y268951D01*
X478902Y267000D01*
X479290Y265049D01*
X480395Y263395D01*
X482049Y262290D01*
X484000Y261902D01*
X485951Y262290D01*
X487605Y263395D01*
X488710Y265049D01*
X489098Y267000D01*
X488710Y268951D01*
X487605Y270605D01*
X485951Y271710D01*
X484000Y272098D01*
D02*
G37*
G36*
X200000Y278098D02*
X198049Y277710D01*
X196395Y276605D01*
X195290Y274951D01*
X194902Y273000D01*
X195290Y271049D01*
X195995Y269994D01*
X196039Y268946D01*
X195629Y268429D01*
X194395Y267605D01*
X193290Y265951D01*
X192902Y264000D01*
X193290Y262049D01*
X194395Y260395D01*
X196049Y259290D01*
X198000Y258902D01*
X199951Y259290D01*
X201605Y260395D01*
X202710Y262049D01*
X203098Y264000D01*
X202710Y265951D01*
X202005Y267006D01*
X201961Y268054D01*
X202371Y268571D01*
X203605Y269395D01*
X204710Y271049D01*
X205098Y273000D01*
X204710Y274951D01*
X203605Y276605D01*
X201951Y277710D01*
X200000Y278098D01*
D02*
G37*
G36*
X99000Y262148D02*
X97049Y261760D01*
X95395Y260655D01*
X94290Y259001D01*
X93902Y257050D01*
X94290Y255099D01*
X95395Y253445D01*
X97049Y252340D01*
X99000Y251952D01*
X100951Y252340D01*
X102605Y253445D01*
X103710Y255099D01*
X104098Y257050D01*
X103710Y259001D01*
X102605Y260655D01*
X100951Y261760D01*
X99000Y262148D01*
D02*
G37*
G36*
X130506Y282612D02*
X128555Y282223D01*
X126902Y281118D01*
X125796Y279464D01*
X125408Y277514D01*
X125796Y275563D01*
X126696Y274216D01*
X126480Y272779D01*
X125995Y272455D01*
X124890Y270801D01*
X124502Y268850D01*
X124890Y266899D01*
X125995Y265245D01*
X126557Y264870D01*
X126855Y263541D01*
X126725Y263346D01*
X125750Y261887D01*
X125362Y259936D01*
X125750Y257985D01*
X126855Y256332D01*
X128509Y255226D01*
X128761Y255176D01*
Y253881D01*
X127899Y253710D01*
X126245Y252605D01*
X125140Y250951D01*
X124752Y249000D01*
X125140Y247049D01*
X126245Y245395D01*
X127899Y244290D01*
X129850Y243902D01*
X131801Y244290D01*
X133455Y245395D01*
X134560Y247049D01*
X134948Y249000D01*
X134560Y250951D01*
X133455Y252605D01*
X131801Y253710D01*
X131549Y253760D01*
Y255055D01*
X132411Y255226D01*
X134065Y256332D01*
X135170Y257985D01*
X135558Y259936D01*
X135170Y261887D01*
X134065Y263541D01*
X133503Y263917D01*
X133205Y265245D01*
X133335Y265440D01*
X134310Y266899D01*
X134698Y268850D01*
X134310Y270801D01*
X133410Y272148D01*
X133626Y273584D01*
X134111Y273909D01*
X135216Y275563D01*
X135604Y277514D01*
X135216Y279464D01*
X134111Y281118D01*
X132457Y282223D01*
X130506Y282612D01*
D02*
G37*
G36*
X171000Y252098D02*
X169049Y251710D01*
X167395Y250605D01*
X166290Y248951D01*
X165902Y247000D01*
X166290Y245049D01*
X167395Y243395D01*
X169049Y242290D01*
X171000Y241902D01*
X172951Y242290D01*
X174605Y243395D01*
X175710Y245049D01*
X176098Y247000D01*
X175710Y248951D01*
X174605Y250605D01*
X172951Y251710D01*
X171000Y252098D01*
D02*
G37*
G36*
X158000D02*
X156049Y251710D01*
X154395Y250605D01*
X153290Y248951D01*
X152902Y247000D01*
X153290Y245049D01*
X154395Y243395D01*
X156049Y242290D01*
X158000Y241902D01*
X159951Y242290D01*
X161605Y243395D01*
X162710Y245049D01*
X163098Y247000D01*
X162710Y248951D01*
X161605Y250605D01*
X159951Y251710D01*
X158000Y252098D01*
D02*
G37*
G36*
X222100Y251198D02*
X220149Y250810D01*
X218495Y249705D01*
X217390Y248051D01*
X217002Y246100D01*
X217390Y244149D01*
X218495Y242495D01*
X220149Y241390D01*
X222100Y241002D01*
X224051Y241390D01*
X225705Y242495D01*
X226810Y244149D01*
X227198Y246100D01*
X226810Y248051D01*
X225705Y249705D01*
X224051Y250810D01*
X222100Y251198D01*
D02*
G37*
G36*
X311000Y248948D02*
X309049Y248560D01*
X307395Y247455D01*
X306290Y245801D01*
X305902Y243850D01*
X306290Y241899D01*
X307395Y240245D01*
X309049Y239140D01*
X311000Y238752D01*
X312951Y239140D01*
X314605Y240245D01*
X315710Y241899D01*
X316098Y243850D01*
X315710Y245801D01*
X314605Y247455D01*
X312951Y248560D01*
X311000Y248948D01*
D02*
G37*
G36*
X261250Y248348D02*
X259299Y247960D01*
X257645Y246855D01*
X256540Y245201D01*
X256152Y243250D01*
X256540Y241299D01*
X257645Y239645D01*
X259299Y238540D01*
X261250Y238152D01*
X263201Y238540D01*
X264855Y239645D01*
X265960Y241299D01*
X266348Y243250D01*
X265960Y245201D01*
X264855Y246855D01*
X263201Y247960D01*
X261250Y248348D01*
D02*
G37*
G36*
X515000Y240098D02*
X513049Y239710D01*
X511395Y238605D01*
X510290Y236951D01*
X509902Y235000D01*
X510290Y233049D01*
X511395Y231395D01*
X513049Y230290D01*
X515000Y229902D01*
X516951Y230290D01*
X518605Y231395D01*
X519710Y233049D01*
X520098Y235000D01*
X519710Y236951D01*
X518605Y238605D01*
X516951Y239710D01*
X515000Y240098D01*
D02*
G37*
G36*
X480000D02*
X478049Y239710D01*
X476395Y238605D01*
X475290Y236951D01*
X474902Y235000D01*
X475290Y233049D01*
X476395Y231395D01*
X478049Y230290D01*
X480000Y229902D01*
X481951Y230290D01*
X483605Y231395D01*
X484710Y233049D01*
X485098Y235000D01*
X484710Y236951D01*
X483605Y238605D01*
X481951Y239710D01*
X480000Y240098D01*
D02*
G37*
G36*
X105750Y239348D02*
X103799Y238960D01*
X102145Y237855D01*
X101040Y236201D01*
X100652Y234250D01*
X101040Y232299D01*
X102145Y230645D01*
X103799Y229540D01*
X105750Y229152D01*
X107701Y229540D01*
X109355Y230645D01*
X110460Y232299D01*
X110848Y234250D01*
X110460Y236201D01*
X109355Y237855D01*
X107701Y238960D01*
X105750Y239348D01*
D02*
G37*
G36*
X224000Y238598D02*
X222049Y238210D01*
X220395Y237105D01*
X219290Y235451D01*
X218902Y233500D01*
X219290Y231549D01*
X220395Y229895D01*
X222049Y228790D01*
X224000Y228402D01*
X225951Y228790D01*
X227605Y229895D01*
X228710Y231549D01*
X229098Y233500D01*
X228710Y235451D01*
X227605Y237105D01*
X225951Y238210D01*
X224000Y238598D01*
D02*
G37*
G36*
X211340Y235438D02*
X209389Y235050D01*
X207735Y233945D01*
X206630Y232291D01*
X206242Y230340D01*
X206630Y228389D01*
X207735Y226735D01*
X209389Y225630D01*
X211340Y225242D01*
X213291Y225630D01*
X214945Y226735D01*
X216050Y228389D01*
X216438Y230340D01*
X216050Y232291D01*
X214945Y233945D01*
X213291Y235050D01*
X211340Y235438D01*
D02*
G37*
G36*
X305000Y233098D02*
X303049Y232710D01*
X301395Y231605D01*
X300290Y229951D01*
X299902Y228000D01*
X300290Y226049D01*
X301395Y224395D01*
X303049Y223290D01*
X305000Y222902D01*
X306951Y223290D01*
X308605Y224395D01*
X309710Y226049D01*
X310098Y228000D01*
X309710Y229951D01*
X308605Y231605D01*
X306951Y232710D01*
X305000Y233098D01*
D02*
G37*
G36*
X265000Y232098D02*
X263049Y231710D01*
X261395Y230605D01*
X260290Y228951D01*
X259902Y227000D01*
X260290Y225049D01*
X261395Y223395D01*
X263049Y222290D01*
X265000Y221902D01*
X266951Y222290D01*
X268605Y223395D01*
X269710Y225049D01*
X270098Y227000D01*
X269710Y228951D01*
X268605Y230605D01*
X266951Y231710D01*
X265000Y232098D01*
D02*
G37*
G36*
X134950Y223148D02*
X132999Y222760D01*
X131345Y221655D01*
X130240Y220001D01*
X129852Y218050D01*
X130240Y216099D01*
X131345Y214445D01*
X132999Y213340D01*
X134950Y212952D01*
X136901Y213340D01*
X138555Y214445D01*
X139660Y216099D01*
X140048Y218050D01*
X139660Y220001D01*
X138555Y221655D01*
X136901Y222760D01*
X134950Y223148D01*
D02*
G37*
G36*
X300500Y208598D02*
X298549Y208210D01*
X296895Y207105D01*
X295790Y205451D01*
X295402Y203500D01*
X295790Y201549D01*
X296895Y199895D01*
X298549Y198790D01*
X300500Y198402D01*
X302451Y198790D01*
X304105Y199895D01*
X305210Y201549D01*
X305598Y203500D01*
X305210Y205451D01*
X304105Y207105D01*
X302451Y208210D01*
X300500Y208598D01*
D02*
G37*
G36*
X172000Y207098D02*
X170049Y206710D01*
X168395Y205605D01*
X167290Y203951D01*
X166902Y202000D01*
X167290Y200049D01*
X168395Y198395D01*
X170049Y197290D01*
X172000Y196902D01*
X173951Y197290D01*
X175605Y198395D01*
X176710Y200049D01*
X177098Y202000D01*
X176710Y203951D01*
X175605Y205605D01*
X173951Y206710D01*
X172000Y207098D01*
D02*
G37*
G36*
X302479Y197098D02*
X300528Y196710D01*
X298874Y195605D01*
X297769Y193951D01*
X297381Y192000D01*
X297769Y190049D01*
X298874Y188395D01*
X300528Y187290D01*
X302479Y186902D01*
X304430Y187290D01*
X306084Y188395D01*
X307189Y190049D01*
X307577Y192000D01*
X307189Y193951D01*
X306084Y195605D01*
X304430Y196710D01*
X302479Y197098D01*
D02*
G37*
G36*
X247516Y206098D02*
X245565Y205710D01*
X243911Y204605D01*
X242806Y202951D01*
X242418Y201000D01*
X242806Y199049D01*
X243911Y197395D01*
X245565Y196290D01*
X246282Y196147D01*
Y194853D01*
X245565Y194710D01*
X243911Y193605D01*
X242806Y191951D01*
X242418Y190000D01*
X242806Y188049D01*
X243911Y186395D01*
X245565Y185290D01*
X247516Y184902D01*
X249466Y185290D01*
X251120Y186395D01*
X252225Y188049D01*
X252613Y190000D01*
X252225Y191951D01*
X251120Y193605D01*
X249466Y194710D01*
X248749Y194853D01*
Y196147D01*
X249466Y196290D01*
X251120Y197395D01*
X252225Y199049D01*
X252613Y201000D01*
X252225Y202951D01*
X251120Y204605D01*
X249466Y205710D01*
X247516Y206098D01*
D02*
G37*
G36*
X263250Y194848D02*
X261299Y194460D01*
X259645Y193355D01*
X258540Y191701D01*
X258152Y189750D01*
X258540Y187799D01*
X259645Y186145D01*
X261299Y185040D01*
X263250Y184652D01*
X265201Y185040D01*
X266855Y186145D01*
X267960Y187799D01*
X268348Y189750D01*
X267960Y191701D01*
X266855Y193355D01*
X265201Y194460D01*
X263250Y194848D01*
D02*
G37*
G36*
X320000Y195608D02*
X317854Y195181D01*
X316035Y193965D01*
X314819Y192146D01*
X314392Y190000D01*
X314819Y187854D01*
X316035Y186035D01*
X317854Y184819D01*
X320000Y184392D01*
X322146Y184819D01*
X323965Y186035D01*
X325181Y187854D01*
X325608Y190000D01*
X325181Y192146D01*
X323965Y193965D01*
X322146Y195181D01*
X320000Y195608D01*
D02*
G37*
G36*
X480000Y194098D02*
X478049Y193710D01*
X476395Y192605D01*
X475290Y190951D01*
X474902Y189000D01*
X475290Y187049D01*
X476395Y185395D01*
X478049Y184290D01*
X480000Y183902D01*
X481951Y184290D01*
X483605Y185395D01*
X484710Y187049D01*
X485098Y189000D01*
X484710Y190951D01*
X483605Y192605D01*
X481951Y193710D01*
X480000Y194098D01*
D02*
G37*
G36*
X167000Y185098D02*
X165049Y184710D01*
X163395Y183605D01*
X162290Y181951D01*
X161902Y180000D01*
X162290Y178049D01*
X163395Y176395D01*
X165049Y175290D01*
X167000Y174902D01*
X168951Y175290D01*
X170605Y176395D01*
X171710Y178049D01*
X172098Y180000D01*
X171710Y181951D01*
X170605Y183605D01*
X168951Y184710D01*
X167000Y185098D01*
D02*
G37*
G36*
X332000Y184608D02*
X329854Y184181D01*
X328035Y182965D01*
X326819Y181146D01*
X326392Y179000D01*
X326819Y176854D01*
X328035Y175035D01*
X329854Y173819D01*
X332000Y173392D01*
X334146Y173819D01*
X335965Y175035D01*
X337181Y176854D01*
X337608Y179000D01*
X337181Y181146D01*
X335965Y182965D01*
X334146Y184181D01*
X332000Y184608D01*
D02*
G37*
G36*
X402000Y183098D02*
X400049Y182710D01*
X398395Y181605D01*
X397290Y179951D01*
X396902Y178000D01*
X397290Y176049D01*
X398395Y174395D01*
X400049Y173290D01*
X402000Y172902D01*
X403951Y173290D01*
X405605Y174395D01*
X406710Y176049D01*
X407098Y178000D01*
X406710Y179951D01*
X405605Y181605D01*
X403951Y182710D01*
X402000Y183098D01*
D02*
G37*
G36*
X250350Y181748D02*
X248399Y181360D01*
X246745Y180255D01*
X245640Y178601D01*
X245252Y176650D01*
X245640Y174699D01*
X246745Y173045D01*
X248399Y171940D01*
X250350Y171552D01*
X252301Y171940D01*
X253955Y173045D01*
X255060Y174699D01*
X255448Y176650D01*
X255060Y178601D01*
X253955Y180255D01*
X252301Y181360D01*
X250350Y181748D01*
D02*
G37*
G36*
X502000Y172777D02*
X500049Y172389D01*
X498395Y171284D01*
X497290Y169630D01*
X496902Y167679D01*
X497290Y165728D01*
X498395Y164074D01*
X500049Y162969D01*
X502000Y162581D01*
X503951Y162969D01*
X505605Y164074D01*
X506710Y165728D01*
X507098Y167679D01*
X506710Y169630D01*
X505605Y171284D01*
X503951Y172389D01*
X502000Y172777D01*
D02*
G37*
G36*
X143000Y172098D02*
X141049Y171710D01*
X139395Y170605D01*
X138290Y168951D01*
X137902Y167000D01*
X138290Y165049D01*
X139395Y163395D01*
X141049Y162290D01*
X143000Y161902D01*
X144951Y162290D01*
X146605Y163395D01*
X147710Y165049D01*
X148098Y167000D01*
X147710Y168951D01*
X146605Y170605D01*
X144951Y171710D01*
X143000Y172098D01*
D02*
G37*
G36*
X109000Y167098D02*
X107049Y166710D01*
X105395Y165605D01*
X104290Y163951D01*
X103902Y162000D01*
X104290Y160049D01*
X105395Y158395D01*
X107049Y157290D01*
X109000Y156902D01*
X110951Y157290D01*
X112605Y158395D01*
X113710Y160049D01*
X114098Y162000D01*
X113710Y163951D01*
X112605Y165605D01*
X110951Y166710D01*
X109000Y167098D01*
D02*
G37*
G36*
X200600Y158848D02*
X198649Y158460D01*
X196995Y157355D01*
X195890Y155701D01*
X195502Y153750D01*
X195890Y151799D01*
X196995Y150145D01*
X198649Y149040D01*
X200600Y148652D01*
X202551Y149040D01*
X204205Y150145D01*
X205310Y151799D01*
X205698Y153750D01*
X205310Y155701D01*
X204205Y157355D01*
X202551Y158460D01*
X200600Y158848D01*
D02*
G37*
G36*
X343000Y151098D02*
X341049Y150710D01*
X339395Y149605D01*
X338290Y147951D01*
X337902Y146000D01*
X338290Y144049D01*
X339395Y142395D01*
X341049Y141290D01*
X343000Y140902D01*
X344951Y141290D01*
X346605Y142395D01*
X347710Y144049D01*
X348098Y146000D01*
X347710Y147951D01*
X346605Y149605D01*
X344951Y150710D01*
X343000Y151098D01*
D02*
G37*
G36*
X417000Y148098D02*
X415049Y147710D01*
X413395Y146605D01*
X412290Y144951D01*
X411902Y143000D01*
X412290Y141049D01*
X413395Y139395D01*
X415049Y138290D01*
X417000Y137902D01*
X418951Y138290D01*
X420605Y139395D01*
X421710Y141049D01*
X422098Y143000D01*
X421710Y144951D01*
X420605Y146605D01*
X418951Y147710D01*
X417000Y148098D01*
D02*
G37*
G36*
X368000D02*
X366049Y147710D01*
X364395Y146605D01*
X363290Y144951D01*
X362902Y143000D01*
X363290Y141049D01*
X364395Y139395D01*
X366049Y138290D01*
X368000Y137902D01*
X369951Y138290D01*
X371605Y139395D01*
X372710Y141049D01*
X373098Y143000D01*
X372710Y144951D01*
X371605Y146605D01*
X369951Y147710D01*
X368000Y148098D01*
D02*
G37*
G36*
X243000Y144098D02*
X241049Y143710D01*
X239395Y142605D01*
X238290Y140951D01*
X237902Y139000D01*
X238290Y137049D01*
X239395Y135395D01*
X241049Y134290D01*
X243000Y133902D01*
X244951Y134290D01*
X246605Y135395D01*
X247710Y137049D01*
X248098Y139000D01*
X247710Y140951D01*
X246605Y142605D01*
X244951Y143710D01*
X243000Y144098D01*
D02*
G37*
G36*
X218000Y143098D02*
X216049Y142710D01*
X214395Y141605D01*
X213290Y139951D01*
X212902Y138000D01*
X213290Y136049D01*
X214395Y134395D01*
X216049Y133290D01*
X218000Y132902D01*
X219951Y133290D01*
X221605Y134395D01*
X222710Y136049D01*
X223098Y138000D01*
X222710Y139951D01*
X221605Y141605D01*
X219951Y142710D01*
X218000Y143098D01*
D02*
G37*
G36*
X401999Y142098D02*
X400048Y141710D01*
X398394Y140604D01*
X397289Y138951D01*
X396901Y137000D01*
X397289Y135049D01*
X398394Y133395D01*
X400048Y132290D01*
X401999Y131902D01*
X403950Y132290D01*
X405604Y133395D01*
X406709Y135049D01*
X407097Y137000D01*
X406709Y138951D01*
X405604Y140604D01*
X403950Y141710D01*
X401999Y142098D01*
D02*
G37*
G36*
X252000Y136098D02*
X250049Y135710D01*
X248395Y134605D01*
X247290Y132951D01*
X246902Y131000D01*
X247290Y129049D01*
X248395Y127395D01*
X250049Y126290D01*
X252000Y125902D01*
X253951Y126290D01*
X255605Y127395D01*
X256710Y129049D01*
X257098Y131000D01*
X256710Y132951D01*
X255605Y134605D01*
X253951Y135710D01*
X252000Y136098D01*
D02*
G37*
G36*
X234000D02*
X232049Y135710D01*
X230395Y134605D01*
X229290Y132951D01*
X228902Y131000D01*
X229290Y129049D01*
X230395Y127395D01*
X232049Y126290D01*
X234000Y125902D01*
X235951Y126290D01*
X237605Y127395D01*
X238710Y129049D01*
X239098Y131000D01*
X238710Y132951D01*
X237605Y134605D01*
X235951Y135710D01*
X234000Y136098D01*
D02*
G37*
G36*
X319825Y129098D02*
X317874Y128710D01*
X316220Y127605D01*
X315115Y125951D01*
X314727Y124000D01*
X315115Y122049D01*
X316220Y120395D01*
X317874Y119290D01*
X319825Y118902D01*
X321776Y119290D01*
X323430Y120395D01*
X324535Y122049D01*
X324923Y124000D01*
X324535Y125951D01*
X323430Y127605D01*
X321776Y128710D01*
X319825Y129098D01*
D02*
G37*
G36*
X389250Y127848D02*
X387299Y127460D01*
X385645Y126355D01*
X384540Y124701D01*
X384152Y122750D01*
X384540Y120799D01*
X385645Y119145D01*
X387299Y118040D01*
X389250Y117652D01*
X391201Y118040D01*
X392855Y119145D01*
X393960Y120799D01*
X394348Y122750D01*
X393960Y124701D01*
X392855Y126355D01*
X391201Y127460D01*
X389250Y127848D01*
D02*
G37*
G36*
X168000Y115608D02*
X165854Y115181D01*
X164035Y113965D01*
X162819Y112146D01*
X162392Y110000D01*
X162819Y107854D01*
X164035Y106035D01*
X165854Y104819D01*
X168000Y104392D01*
X170146Y104819D01*
X171965Y106035D01*
X173181Y107854D01*
X173608Y110000D01*
X173181Y112146D01*
X171965Y113965D01*
X170146Y115181D01*
X168000Y115608D01*
D02*
G37*
G36*
X64985Y313098D02*
X63034Y312710D01*
X61380Y311605D01*
X60275Y309951D01*
X59887Y308000D01*
X60275Y306049D01*
X61380Y304395D01*
X63034Y303290D01*
X64985Y302902D01*
X66936Y303290D01*
X68590Y304395D01*
X69695Y306049D01*
X70083Y308000D01*
X69695Y309951D01*
X68590Y311605D01*
X66936Y312710D01*
X64985Y313098D01*
D02*
G37*
G36*
X52000Y281098D02*
X50049Y280710D01*
X48395Y279605D01*
X47290Y277951D01*
X46902Y276000D01*
X47290Y274049D01*
X48395Y272395D01*
X50049Y271290D01*
X52000Y270902D01*
X53951Y271290D01*
X55605Y272395D01*
X56710Y274049D01*
X57098Y276000D01*
X56710Y277951D01*
X55605Y279605D01*
X53951Y280710D01*
X52000Y281098D01*
D02*
G37*
G36*
X31000D02*
X29049Y280710D01*
X27395Y279605D01*
X26290Y277951D01*
X25902Y276000D01*
X26290Y274049D01*
X27395Y272395D01*
X29049Y271290D01*
X31000Y270902D01*
X32951Y271290D01*
X33743Y271819D01*
X34658Y270903D01*
X34319Y270396D01*
X33892Y268250D01*
X34319Y266104D01*
X35535Y264285D01*
X37354Y263069D01*
X39500Y262642D01*
X41646Y263069D01*
X43465Y264285D01*
X44681Y266104D01*
X45108Y268250D01*
X44681Y270396D01*
X43465Y272215D01*
X41646Y273431D01*
X39500Y273858D01*
X37354Y273431D01*
X36397Y272791D01*
X35481Y273707D01*
X35710Y274049D01*
X36098Y276000D01*
X35710Y277951D01*
X34605Y279605D01*
X32951Y280710D01*
X31000Y281098D01*
D02*
G37*
G36*
X35000Y245098D02*
X33049Y244710D01*
X31395Y243605D01*
X30290Y241951D01*
X29902Y240000D01*
X30290Y238049D01*
X31395Y236395D01*
X33049Y235290D01*
X35000Y234902D01*
X36951Y235290D01*
X38605Y236395D01*
X39710Y238049D01*
X40098Y240000D01*
X39710Y241951D01*
X38605Y243605D01*
X36951Y244710D01*
X35000Y245098D01*
D02*
G37*
G36*
X23000Y142098D02*
X21049Y141710D01*
X19395Y140605D01*
X18290Y138951D01*
X17902Y137000D01*
X18290Y135049D01*
X19395Y133395D01*
X21049Y132290D01*
X23000Y131902D01*
X24951Y132290D01*
X26605Y133395D01*
X27710Y135049D01*
X28098Y137000D01*
X27710Y138951D01*
X26605Y140605D01*
X24951Y141710D01*
X23000Y142098D01*
D02*
G37*
G36*
X58750Y99580D02*
X53250D01*
X50835Y99262D01*
X48585Y98330D01*
X46653Y96847D01*
X45170Y94915D01*
X44238Y92665D01*
X43920Y90250D01*
X44238Y87835D01*
X45170Y85585D01*
X45356Y85343D01*
X44802Y83979D01*
X43159Y83652D01*
X41174Y82326D01*
X39848Y80341D01*
X39383Y78000D01*
X39848Y75659D01*
X41174Y73674D01*
X43159Y72348D01*
X45500Y71883D01*
X47841Y72348D01*
X49826Y73674D01*
X51152Y75659D01*
X51617Y78000D01*
X51239Y79904D01*
X51928Y80872D01*
X52200Y81058D01*
X53250Y80920D01*
X58750D01*
X61165Y81238D01*
X63415Y82170D01*
X65347Y83653D01*
X66830Y85585D01*
X67762Y87835D01*
X68080Y90250D01*
X67762Y92665D01*
X66830Y94915D01*
X65347Y96847D01*
X63415Y98330D01*
X61165Y99262D01*
X58750Y99580D01*
D02*
G37*
G36*
X128000Y71098D02*
X126049Y70710D01*
X124500Y69675D01*
X122951Y70710D01*
X121000Y71098D01*
X119049Y70710D01*
X117395Y69605D01*
X116290Y67951D01*
X115902Y66000D01*
X116290Y64049D01*
X117395Y62395D01*
X119049Y61290D01*
X121000Y60902D01*
X122951Y61290D01*
X124500Y62325D01*
X126049Y61290D01*
X128000Y60902D01*
X129951Y61290D01*
X131605Y62395D01*
X132710Y64049D01*
X133098Y66000D01*
X132710Y67951D01*
X131605Y69605D01*
X129951Y70710D01*
X128000Y71098D01*
D02*
G37*
G36*
X157000D02*
X155049Y70710D01*
X153395Y69605D01*
X152290Y67951D01*
X151902Y66000D01*
X152290Y64049D01*
X153395Y62395D01*
X155049Y61290D01*
X157000Y60902D01*
X158951Y61290D01*
X160605Y62395D01*
X161710Y64049D01*
X162098Y66000D01*
X161710Y67951D01*
X160605Y69605D01*
X158951Y70710D01*
X157000Y71098D01*
D02*
G37*
G36*
X75000Y133098D02*
X73049Y132710D01*
X71395Y131605D01*
X70290Y129951D01*
X69902Y128000D01*
X70290Y126049D01*
X71395Y124395D01*
X73049Y123290D01*
X75000Y122902D01*
X76951Y123290D01*
X78605Y124395D01*
X79710Y126049D01*
X80098Y128000D01*
X79710Y129951D01*
X78605Y131605D01*
X76951Y132710D01*
X75000Y133098D01*
D02*
G37*
G36*
X441185Y23900D02*
X433300D01*
Y16015D01*
X434280Y16144D01*
X436591Y17102D01*
X438575Y18625D01*
X440098Y20609D01*
X441055Y22920D01*
X441185Y23900D01*
D02*
G37*
G36*
X517500Y34900D02*
X498500D01*
Y15900D01*
X517500D01*
Y34900D01*
D02*
G37*
G36*
X635000Y34982D02*
X632520Y34655D01*
X630209Y33698D01*
X628224Y32175D01*
X626702Y30191D01*
X625745Y27880D01*
X625418Y25400D01*
X625745Y22920D01*
X626702Y20609D01*
X628224Y18625D01*
X630209Y17102D01*
X632520Y16144D01*
X635000Y15818D01*
X637480Y16144D01*
X639791Y17102D01*
X641775Y18625D01*
X643298Y20609D01*
X644256Y22920D01*
X644582Y25400D01*
X644256Y27880D01*
X643298Y30191D01*
X641775Y32175D01*
X639791Y33698D01*
X637480Y34655D01*
X635000Y34982D01*
D02*
G37*
G36*
X609600D02*
X607120Y34655D01*
X604809Y33698D01*
X602825Y32175D01*
X601302Y30191D01*
X600345Y27880D01*
X600018Y25400D01*
X600345Y22920D01*
X601302Y20609D01*
X602825Y18625D01*
X604809Y17102D01*
X607120Y16144D01*
X609600Y15818D01*
X612080Y16144D01*
X614391Y17102D01*
X616375Y18625D01*
X617898Y20609D01*
X618856Y22920D01*
X619182Y25400D01*
X618856Y27880D01*
X617898Y30191D01*
X616375Y32175D01*
X614391Y33698D01*
X612080Y34655D01*
X609600Y34982D01*
D02*
G37*
G36*
X584200D02*
X581720Y34655D01*
X579409Y33698D01*
X577425Y32175D01*
X575902Y30191D01*
X574944Y27880D01*
X574618Y25400D01*
X574944Y22920D01*
X575902Y20609D01*
X577425Y18625D01*
X579409Y17102D01*
X581720Y16144D01*
X584200Y15818D01*
X586680Y16144D01*
X588991Y17102D01*
X590975Y18625D01*
X592498Y20609D01*
X593456Y22920D01*
X593782Y25400D01*
X593456Y27880D01*
X592498Y30191D01*
X590975Y32175D01*
X588991Y33698D01*
X586680Y34655D01*
X584200Y34982D01*
D02*
G37*
G36*
X558800D02*
X556320Y34655D01*
X554009Y33698D01*
X552024Y32175D01*
X550502Y30191D01*
X549544Y27880D01*
X549218Y25400D01*
X549544Y22920D01*
X550502Y20609D01*
X552024Y18625D01*
X554009Y17102D01*
X556320Y16144D01*
X558800Y15818D01*
X561280Y16144D01*
X563591Y17102D01*
X565575Y18625D01*
X567098Y20609D01*
X568055Y22920D01*
X568382Y25400D01*
X568055Y27880D01*
X567098Y30191D01*
X565575Y32175D01*
X563591Y33698D01*
X561280Y34655D01*
X558800Y34982D01*
D02*
G37*
G36*
X533400D02*
X530920Y34655D01*
X528609Y33698D01*
X526624Y32175D01*
X525102Y30191D01*
X524145Y27880D01*
X523818Y25400D01*
X524145Y22920D01*
X525102Y20609D01*
X526624Y18625D01*
X528609Y17102D01*
X530920Y16144D01*
X533400Y15818D01*
X535880Y16144D01*
X538191Y17102D01*
X540175Y18625D01*
X541698Y20609D01*
X542655Y22920D01*
X542982Y25400D01*
X542655Y27880D01*
X541698Y30191D01*
X540175Y32175D01*
X538191Y33698D01*
X535880Y34655D01*
X533400Y34982D01*
D02*
G37*
G36*
X457200D02*
X454720Y34655D01*
X452409Y33698D01*
X450424Y32175D01*
X448902Y30191D01*
X447944Y27880D01*
X447618Y25400D01*
X447944Y22920D01*
X448902Y20609D01*
X450424Y18625D01*
X452409Y17102D01*
X454720Y16144D01*
X457200Y15818D01*
X459680Y16144D01*
X461991Y17102D01*
X463975Y18625D01*
X465498Y20609D01*
X466455Y22920D01*
X466782Y25400D01*
X466455Y27880D01*
X465498Y30191D01*
X463975Y32175D01*
X461991Y33698D01*
X459680Y34655D01*
X457200Y34982D01*
D02*
G37*
G36*
X58750Y25080D02*
X57500D01*
Y17250D01*
X67882D01*
X67762Y18165D01*
X66830Y20415D01*
X65347Y22347D01*
X63415Y23830D01*
X61165Y24762D01*
X58750Y25080D01*
D02*
G37*
G36*
X45500Y34118D02*
X43159Y33652D01*
X41174Y32326D01*
X39848Y30341D01*
X39383Y28000D01*
X39848Y25659D01*
X41174Y23674D01*
X43159Y22348D01*
X44004Y22180D01*
X44492Y21441D01*
X44977Y19947D01*
X44238Y18165D01*
X44118Y17250D01*
X54500D01*
Y25080D01*
X53250D01*
X52962Y25042D01*
X51389Y26852D01*
X51617Y28000D01*
X51152Y30341D01*
X49826Y32326D01*
X47841Y33652D01*
X45500Y34118D01*
D02*
G37*
G36*
X21250Y22067D02*
X19500D01*
Y15750D01*
X28869D01*
X28800Y16273D01*
X28020Y18158D01*
X26777Y19777D01*
X25158Y21020D01*
X23273Y21800D01*
X21250Y22067D01*
D02*
G37*
%LPD*%
D10*
X270000Y331999D02*
X273001D01*
X308000Y297000D01*
X350000Y77250D02*
Y115750D01*
X268000Y86000D02*
Y114000D01*
D26*
X469900Y95250D02*
D03*
X635000Y438150D02*
D03*
X416560D02*
D03*
D126*
X596900Y95250D02*
D03*
X571500D02*
D03*
X546100D02*
D03*
X520700D02*
D03*
X495300D02*
D03*
X609600Y438150D02*
D03*
X584200D02*
D03*
X558800D02*
D03*
X482600D02*
D03*
X508000D02*
D03*
X533400D02*
D03*
X457200D02*
D03*
X289560D02*
D03*
X314960D02*
D03*
X340360D02*
D03*
X365760D02*
D03*
X391160D02*
D03*
X264160Y508000D02*
D03*
X381000Y25400D02*
D03*
X431800D02*
D03*
D130*
X18000Y14250D02*
D03*
D131*
X56000Y15750D02*
D03*
D133*
X667000Y160000D02*
D03*
X671000Y324000D02*
D03*
X109000Y49000D02*
D03*
X167750Y344250D02*
D03*
X293625Y47000D02*
D03*
X11000Y224000D02*
D03*
X621000Y521000D02*
D03*
X9000Y459000D02*
D03*
Y368000D02*
D03*
X108000Y460000D02*
D03*
X177000Y522000D02*
D03*
X437000Y517000D02*
D03*
X652000Y392000D02*
D03*
X654000Y44000D02*
D03*
X256357Y317357D02*
D03*
X270000Y331999D02*
D03*
X63000Y367000D02*
D03*
X204000Y414000D02*
D03*
X350000Y77250D02*
D03*
X463000Y396750D02*
D03*
X365250Y111250D02*
D03*
X379999Y121000D02*
D03*
X398750Y109250D02*
D03*
X107000Y210000D02*
D03*
X95000D02*
D03*
X185000Y145000D02*
D03*
X234000Y107000D02*
D03*
X243000Y99000D02*
D03*
X252000Y107000D02*
D03*
X421000Y128650D02*
D03*
X308000Y297000D02*
D03*
X513000Y243000D02*
D03*
X255750Y218000D02*
D03*
X201840Y218500D02*
D03*
X144000Y218050D02*
D03*
X62000Y331000D02*
D03*
X122753Y390247D02*
D03*
X56000Y33000D02*
D03*
X45000Y40000D02*
D03*
X66000D02*
D03*
X95000Y50750D02*
D03*
Y81000D02*
D03*
X108500D02*
D03*
X56000Y72000D02*
D03*
X46000Y66000D02*
D03*
X66000D02*
D03*
X72000Y216000D02*
D03*
X64000D02*
D03*
X63000Y245000D02*
D03*
X71000D02*
D03*
X51000Y306000D02*
D03*
X31000Y302000D02*
D03*
X100000Y111000D02*
D03*
Y119000D02*
D03*
X82000Y170000D02*
D03*
Y178000D02*
D03*
X641000Y244000D02*
D03*
X653000Y266000D02*
D03*
X629000D02*
D03*
X510000Y156000D02*
D03*
X313000Y68000D02*
D03*
X293560Y102440D02*
D03*
X268000Y114000D02*
D03*
X258000Y65000D02*
D03*
X260000Y54000D02*
D03*
X268500Y60750D02*
D03*
X278000Y61250D02*
D03*
X261250Y43750D02*
D03*
X277750Y33750D02*
D03*
X268500D02*
D03*
X287250D02*
D03*
X389000Y140750D02*
D03*
X460000Y141000D02*
D03*
X437000Y140750D02*
D03*
X522000Y197000D02*
D03*
X530750Y248000D02*
D03*
X523186Y284000D02*
D03*
X522750Y292250D02*
D03*
X330750Y395500D02*
D03*
X62000Y290999D02*
D03*
X263250Y180250D02*
D03*
X261250Y252000D02*
D03*
X225000Y283999D02*
D03*
X119000Y360250D02*
D03*
X200600Y344000D02*
D03*
X382000Y84500D02*
D03*
X387500Y90000D02*
D03*
X376500D02*
D03*
X382000Y95500D02*
D03*
M02*
