G04*
G04 #@! TF.GenerationSoftware,Altium Limited,Altium Designer,18.0.12 (696)*
G04*
G04 Layer_Physical_Order=2*
G04 Layer_Color=6049555*
%FSLAX44Y44*%
%MOMM*%
G71*
G01*
G75*
%ADD26R,1.5000X1.5000*%
%ADD126C,1.5000*%
%ADD127C,0.7000*%
%ADD130O,1.8000X1.1500*%
%ADD131O,2.0000X1.4500*%
%ADD133C,0.6000*%
G36*
X641874Y528027D02*
X655027Y514874D01*
Y406400D01*
Y405000D01*
X655436Y402944D01*
X656600Y401200D01*
X680427Y377374D01*
Y367119D01*
X679195Y366811D01*
X678664Y367804D01*
X675932Y371132D01*
X672604Y373864D01*
X668806Y375894D01*
X664685Y377144D01*
X660400Y377566D01*
X656115Y377144D01*
X651994Y375894D01*
X648196Y373864D01*
X644868Y371132D01*
X642136Y367804D01*
X640106Y364006D01*
X638856Y359885D01*
X638434Y355600D01*
X638856Y351315D01*
X640106Y347194D01*
X642136Y343396D01*
X644868Y340068D01*
X648196Y337336D01*
X651994Y335306D01*
X656115Y334056D01*
X660400Y333634D01*
X664685Y334056D01*
X668806Y335306D01*
X672604Y337336D01*
X675932Y340068D01*
X678664Y343396D01*
X679195Y344389D01*
X680427Y344081D01*
Y193026D01*
X673201Y185800D01*
X672036Y184056D01*
X671627Y182000D01*
Y152327D01*
X670750Y151608D01*
X668604Y151181D01*
X666785Y149965D01*
X665569Y148146D01*
X665142Y146000D01*
X665569Y143854D01*
X666785Y142035D01*
X668604Y140819D01*
X670750Y140392D01*
X671627Y139673D01*
Y110000D01*
X672036Y107944D01*
X673201Y106201D01*
X680427Y98974D01*
Y87719D01*
X679195Y87411D01*
X678664Y88404D01*
X675932Y91732D01*
X672604Y94464D01*
X668806Y96494D01*
X664685Y97744D01*
X660400Y98166D01*
X656115Y97744D01*
X651994Y96494D01*
X648196Y94464D01*
X644868Y91732D01*
X642136Y88404D01*
X640106Y84606D01*
X638856Y80485D01*
X638434Y76200D01*
X638856Y71915D01*
X640106Y67794D01*
X642136Y63996D01*
X644868Y60668D01*
X648196Y57936D01*
X651994Y55906D01*
X656115Y54656D01*
X660400Y54234D01*
X664685Y54656D01*
X668806Y55906D01*
X672604Y57936D01*
X675932Y60668D01*
X678664Y63996D01*
X679195Y64989D01*
X680427Y64681D01*
Y53026D01*
X656200Y28800D01*
X655036Y27056D01*
X654627Y25000D01*
Y20000D01*
Y10000D01*
X654660Y9833D01*
X654336Y8204D01*
X653319Y6681D01*
X651796Y5664D01*
X650167Y5340D01*
X650000Y5373D01*
X271226D01*
X261800Y14799D01*
X260056Y15964D01*
X258000Y16373D01*
X164000D01*
X161944Y15964D01*
X160201Y14799D01*
X159299Y15694D01*
X159994Y16994D01*
X161244Y21115D01*
X161666Y25400D01*
X161244Y29685D01*
X159994Y33806D01*
X157964Y37604D01*
X155232Y40932D01*
X151904Y43664D01*
X148106Y45694D01*
X143985Y46944D01*
X139700Y47366D01*
X135415Y46944D01*
X131294Y45694D01*
X127496Y43664D01*
X124168Y40932D01*
X121436Y37604D01*
X119406Y33806D01*
X118156Y29685D01*
X117734Y25400D01*
X118156Y21115D01*
X119406Y16994D01*
X121436Y13196D01*
X124168Y9868D01*
X127496Y7136D01*
X128490Y6605D01*
X128181Y5373D01*
X60527D01*
X60444Y6643D01*
X61165Y6738D01*
X63415Y7670D01*
X65347Y9153D01*
X66830Y11085D01*
X67762Y13335D01*
X67882Y14250D01*
X56000D01*
X44118D01*
X44238Y13335D01*
X45170Y11085D01*
X46653Y9153D01*
X48585Y7670D01*
X50835Y6738D01*
X51556Y6643D01*
X51473Y5373D01*
X22929D01*
X22846Y6643D01*
X23273Y6700D01*
X25158Y7480D01*
X26777Y8723D01*
X28020Y10342D01*
X28800Y12227D01*
X28869Y12750D01*
X18000D01*
X7131D01*
X7200Y12227D01*
X7980Y10342D01*
X9223Y8723D01*
X10842Y7480D01*
X12727Y6700D01*
X13154Y6643D01*
X13071Y5373D01*
X11258D01*
X10000Y5373D01*
X8801Y5545D01*
X8204Y5664D01*
X6681Y6681D01*
X5664Y8204D01*
X5545Y8801D01*
X5373Y10000D01*
X5373Y11259D01*
X5373Y512000D01*
X5340Y512167D01*
X5664Y513796D01*
X6681Y515319D01*
X8204Y516336D01*
X9833Y516660D01*
X10000Y516627D01*
X30673D01*
X31392Y515750D01*
X31819Y513604D01*
X33035Y511785D01*
X34854Y510569D01*
X37000Y510142D01*
X39146Y510569D01*
X40965Y511785D01*
X42181Y513604D01*
X42608Y515750D01*
X43327Y516627D01*
X94673D01*
X95392Y515750D01*
X95819Y513604D01*
X97035Y511785D01*
X98854Y510569D01*
X101000Y510142D01*
X103146Y510569D01*
X104965Y511785D01*
X106181Y513604D01*
X106608Y515750D01*
X107327Y516627D01*
X127000D01*
X129056Y517036D01*
X130800Y518200D01*
X132573Y519975D01*
X133605Y519210D01*
X132106Y516406D01*
X130856Y512285D01*
X130434Y508000D01*
X130856Y503715D01*
X132106Y499594D01*
X134136Y495796D01*
X136868Y492468D01*
X140196Y489736D01*
X143994Y487706D01*
X148115Y486456D01*
X152400Y486034D01*
X156685Y486456D01*
X160806Y487706D01*
X164604Y489736D01*
X167932Y492468D01*
X170664Y495796D01*
X172694Y499594D01*
X173944Y503715D01*
X174366Y508000D01*
X173944Y512285D01*
X172694Y516406D01*
X170664Y520204D01*
X167932Y523532D01*
X164604Y526264D01*
X163610Y526795D01*
X163919Y528027D01*
X641874Y528027D01*
D02*
G37*
%LPC*%
G36*
X265660Y517384D02*
Y509500D01*
X273545D01*
X273416Y510480D01*
X272458Y512791D01*
X270935Y514775D01*
X268951Y516298D01*
X266640Y517256D01*
X265660Y517384D01*
D02*
G37*
G36*
X262660D02*
X261680Y517256D01*
X259369Y516298D01*
X257384Y514775D01*
X255862Y512791D01*
X254904Y510480D01*
X254776Y509500D01*
X262660D01*
Y517384D01*
D02*
G37*
G36*
X112000Y512098D02*
X110049Y511710D01*
X108395Y510605D01*
X107290Y508951D01*
X106902Y507000D01*
X107290Y505049D01*
X108395Y503395D01*
X110049Y502290D01*
X112000Y501902D01*
X113951Y502290D01*
X115605Y503395D01*
X116710Y505049D01*
X117098Y507000D01*
X116710Y508951D01*
X115605Y510605D01*
X113951Y511710D01*
X112000Y512098D01*
D02*
G37*
G36*
X273545Y506500D02*
X265660D01*
Y498615D01*
X266640Y498745D01*
X268951Y499702D01*
X270935Y501225D01*
X272458Y503209D01*
X273416Y505520D01*
X273545Y506500D01*
D02*
G37*
G36*
X262660D02*
X254776D01*
X254904Y505520D01*
X255862Y503209D01*
X257384Y501225D01*
X259369Y499702D01*
X261680Y498745D01*
X262660Y498615D01*
Y506500D01*
D02*
G37*
G36*
X644500Y517500D02*
X625500D01*
Y498500D01*
X644500D01*
Y517500D01*
D02*
G37*
G36*
X426060D02*
X407060D01*
Y498500D01*
X426060D01*
Y517500D01*
D02*
G37*
G36*
X609600Y517582D02*
X607120Y517256D01*
X604809Y516298D01*
X602825Y514775D01*
X601302Y512791D01*
X600345Y510480D01*
X600018Y508000D01*
X600345Y505520D01*
X601302Y503209D01*
X602825Y501225D01*
X604809Y499702D01*
X607120Y498745D01*
X609600Y498418D01*
X612080Y498745D01*
X614391Y499702D01*
X616375Y501225D01*
X617898Y503209D01*
X618856Y505520D01*
X619182Y508000D01*
X618856Y510480D01*
X617898Y512791D01*
X616375Y514775D01*
X614391Y516298D01*
X612080Y517256D01*
X609600Y517582D01*
D02*
G37*
G36*
X584200D02*
X581720Y517256D01*
X579409Y516298D01*
X577425Y514775D01*
X575902Y512791D01*
X574944Y510480D01*
X574618Y508000D01*
X574944Y505520D01*
X575902Y503209D01*
X577425Y501225D01*
X579409Y499702D01*
X581720Y498745D01*
X584200Y498418D01*
X586680Y498745D01*
X588991Y499702D01*
X590975Y501225D01*
X592498Y503209D01*
X593456Y505520D01*
X593782Y508000D01*
X593456Y510480D01*
X592498Y512791D01*
X590975Y514775D01*
X588991Y516298D01*
X586680Y517256D01*
X584200Y517582D01*
D02*
G37*
G36*
X558800D02*
X556320Y517256D01*
X554009Y516298D01*
X552024Y514775D01*
X550502Y512791D01*
X549544Y510480D01*
X549218Y508000D01*
X549544Y505520D01*
X550502Y503209D01*
X552024Y501225D01*
X554009Y499702D01*
X556320Y498745D01*
X558800Y498418D01*
X561280Y498745D01*
X563591Y499702D01*
X565575Y501225D01*
X567098Y503209D01*
X568055Y505520D01*
X568382Y508000D01*
X568055Y510480D01*
X567098Y512791D01*
X565575Y514775D01*
X563591Y516298D01*
X561280Y517256D01*
X558800Y517582D01*
D02*
G37*
G36*
X533400D02*
X530920Y517256D01*
X528609Y516298D01*
X526624Y514775D01*
X525102Y512791D01*
X524145Y510480D01*
X523818Y508000D01*
X524145Y505520D01*
X525102Y503209D01*
X526624Y501225D01*
X528609Y499702D01*
X530920Y498745D01*
X533400Y498418D01*
X535880Y498745D01*
X538191Y499702D01*
X540175Y501225D01*
X541698Y503209D01*
X542655Y505520D01*
X542982Y508000D01*
X542655Y510480D01*
X541698Y512791D01*
X540175Y514775D01*
X538191Y516298D01*
X535880Y517256D01*
X533400Y517582D01*
D02*
G37*
G36*
X508000D02*
X505520Y517256D01*
X503209Y516298D01*
X501225Y514775D01*
X499702Y512791D01*
X498745Y510480D01*
X498418Y508000D01*
X498745Y505520D01*
X499702Y503209D01*
X501225Y501225D01*
X503209Y499702D01*
X505520Y498745D01*
X508000Y498418D01*
X510480Y498745D01*
X512791Y499702D01*
X514775Y501225D01*
X516298Y503209D01*
X517256Y505520D01*
X517582Y508000D01*
X517256Y510480D01*
X516298Y512791D01*
X514775Y514775D01*
X512791Y516298D01*
X510480Y517256D01*
X508000Y517582D01*
D02*
G37*
G36*
X482600D02*
X480120Y517256D01*
X477809Y516298D01*
X475825Y514775D01*
X474302Y512791D01*
X473344Y510480D01*
X473018Y508000D01*
X473344Y505520D01*
X474302Y503209D01*
X475825Y501225D01*
X477809Y499702D01*
X480120Y498745D01*
X482600Y498418D01*
X485080Y498745D01*
X487391Y499702D01*
X489375Y501225D01*
X490898Y503209D01*
X491856Y505520D01*
X492182Y508000D01*
X491856Y510480D01*
X490898Y512791D01*
X489375Y514775D01*
X487391Y516298D01*
X485080Y517256D01*
X482600Y517582D01*
D02*
G37*
G36*
X457200D02*
X454720Y517256D01*
X452409Y516298D01*
X450424Y514775D01*
X448902Y512791D01*
X447944Y510480D01*
X447618Y508000D01*
X447944Y505520D01*
X448902Y503209D01*
X450424Y501225D01*
X452409Y499702D01*
X454720Y498745D01*
X457200Y498418D01*
X459680Y498745D01*
X461991Y499702D01*
X463975Y501225D01*
X465498Y503209D01*
X466455Y505520D01*
X466782Y508000D01*
X466455Y510480D01*
X465498Y512791D01*
X463975Y514775D01*
X461991Y516298D01*
X459680Y517256D01*
X457200Y517582D01*
D02*
G37*
G36*
X391160D02*
X388680Y517256D01*
X386369Y516298D01*
X384384Y514775D01*
X382862Y512791D01*
X381904Y510480D01*
X381578Y508000D01*
X381904Y505520D01*
X382862Y503209D01*
X384384Y501225D01*
X386369Y499702D01*
X388680Y498745D01*
X391160Y498418D01*
X393640Y498745D01*
X395951Y499702D01*
X397935Y501225D01*
X399458Y503209D01*
X400415Y505520D01*
X400742Y508000D01*
X400415Y510480D01*
X399458Y512791D01*
X397935Y514775D01*
X395951Y516298D01*
X393640Y517256D01*
X391160Y517582D01*
D02*
G37*
G36*
X365760D02*
X363280Y517256D01*
X360969Y516298D01*
X358984Y514775D01*
X357462Y512791D01*
X356505Y510480D01*
X356178Y508000D01*
X356505Y505520D01*
X357462Y503209D01*
X358984Y501225D01*
X360969Y499702D01*
X363280Y498745D01*
X365760Y498418D01*
X368240Y498745D01*
X370551Y499702D01*
X372536Y501225D01*
X374058Y503209D01*
X375015Y505520D01*
X375342Y508000D01*
X375015Y510480D01*
X374058Y512791D01*
X372536Y514775D01*
X370551Y516298D01*
X368240Y517256D01*
X365760Y517582D01*
D02*
G37*
G36*
X340360D02*
X337880Y517256D01*
X335569Y516298D01*
X333585Y514775D01*
X332062Y512791D01*
X331105Y510480D01*
X330778Y508000D01*
X331105Y505520D01*
X332062Y503209D01*
X333585Y501225D01*
X335569Y499702D01*
X337880Y498745D01*
X340360Y498418D01*
X342840Y498745D01*
X345151Y499702D01*
X347136Y501225D01*
X348658Y503209D01*
X349616Y505520D01*
X349942Y508000D01*
X349616Y510480D01*
X348658Y512791D01*
X347136Y514775D01*
X345151Y516298D01*
X342840Y517256D01*
X340360Y517582D01*
D02*
G37*
G36*
X314960D02*
X312480Y517256D01*
X310169Y516298D01*
X308185Y514775D01*
X306662Y512791D01*
X305704Y510480D01*
X305378Y508000D01*
X305704Y505520D01*
X306662Y503209D01*
X308185Y501225D01*
X310169Y499702D01*
X312480Y498745D01*
X314960Y498418D01*
X317440Y498745D01*
X319751Y499702D01*
X321735Y501225D01*
X323258Y503209D01*
X324216Y505520D01*
X324542Y508000D01*
X324216Y510480D01*
X323258Y512791D01*
X321735Y514775D01*
X319751Y516298D01*
X317440Y517256D01*
X314960Y517582D01*
D02*
G37*
G36*
X289560D02*
X287080Y517256D01*
X284769Y516298D01*
X282785Y514775D01*
X281262Y512791D01*
X280305Y510480D01*
X279978Y508000D01*
X280305Y505520D01*
X281262Y503209D01*
X282785Y501225D01*
X284769Y499702D01*
X287080Y498745D01*
X289560Y498418D01*
X292040Y498745D01*
X294351Y499702D01*
X296336Y501225D01*
X297858Y503209D01*
X298815Y505520D01*
X299142Y508000D01*
X298815Y510480D01*
X297858Y512791D01*
X296336Y514775D01*
X294351Y516298D01*
X292040Y517256D01*
X289560Y517582D01*
D02*
G37*
G36*
X238760D02*
X236280Y517256D01*
X233969Y516298D01*
X231985Y514775D01*
X230462Y512791D01*
X229505Y510480D01*
X229178Y508000D01*
X229505Y505520D01*
X230462Y503209D01*
X231985Y501225D01*
X233969Y499702D01*
X236280Y498745D01*
X238760Y498418D01*
X241240Y498745D01*
X243551Y499702D01*
X245535Y501225D01*
X247058Y503209D01*
X248015Y505520D01*
X248342Y508000D01*
X248015Y510480D01*
X247058Y512791D01*
X245535Y514775D01*
X243551Y516298D01*
X241240Y517256D01*
X238760Y517582D01*
D02*
G37*
G36*
X101000Y493858D02*
X98854Y493431D01*
X97035Y492215D01*
X95819Y490396D01*
X95392Y488250D01*
X95819Y486104D01*
X97035Y484285D01*
X98854Y483069D01*
X101000Y482642D01*
X103146Y483069D01*
X104965Y484285D01*
X106181Y486104D01*
X106608Y488250D01*
X106181Y490396D01*
X104965Y492215D01*
X103146Y493431D01*
X101000Y493858D01*
D02*
G37*
G36*
X37000D02*
X34854Y493431D01*
X33035Y492215D01*
X31819Y490396D01*
X31392Y488250D01*
X31819Y486104D01*
X33035Y484285D01*
X34854Y483069D01*
X37000Y482642D01*
X39146Y483069D01*
X40965Y484285D01*
X42181Y486104D01*
X42608Y488250D01*
X42181Y490396D01*
X40965Y492215D01*
X39146Y493431D01*
X37000Y493858D01*
D02*
G37*
G36*
X644500Y473050D02*
X636500D01*
Y465050D01*
X644500D01*
Y473050D01*
D02*
G37*
G36*
X560300Y472934D02*
Y465050D01*
X568185D01*
X568055Y466030D01*
X567098Y468341D01*
X565575Y470325D01*
X563591Y471848D01*
X561280Y472805D01*
X560300Y472934D01*
D02*
G37*
G36*
X426060Y473050D02*
X418060D01*
Y465050D01*
X426060D01*
Y473050D01*
D02*
G37*
G36*
X291060Y472934D02*
Y465050D01*
X298944D01*
X298815Y466030D01*
X297858Y468341D01*
X296336Y470325D01*
X294351Y471848D01*
X292040Y472805D01*
X291060Y472934D01*
D02*
G37*
G36*
X611100D02*
Y465050D01*
X618984D01*
X618856Y466030D01*
X617898Y468341D01*
X616375Y470325D01*
X614391Y471848D01*
X612080Y472805D01*
X611100Y472934D01*
D02*
G37*
G36*
X585700D02*
Y465050D01*
X593585D01*
X593456Y466030D01*
X592498Y468341D01*
X590975Y470325D01*
X588991Y471848D01*
X586680Y472805D01*
X585700Y472934D01*
D02*
G37*
G36*
X509500D02*
Y465050D01*
X517384D01*
X517256Y466030D01*
X516298Y468341D01*
X514775Y470325D01*
X512791Y471848D01*
X510480Y472805D01*
X509500Y472934D01*
D02*
G37*
G36*
X484100D02*
Y465050D01*
X491984D01*
X491856Y466030D01*
X490898Y468341D01*
X489375Y470325D01*
X487391Y471848D01*
X485080Y472805D01*
X484100Y472934D01*
D02*
G37*
G36*
X367260D02*
Y465050D01*
X375145D01*
X375015Y466030D01*
X374058Y468341D01*
X372536Y470325D01*
X370551Y471848D01*
X368240Y472805D01*
X367260Y472934D01*
D02*
G37*
G36*
X341860D02*
Y465050D01*
X349744D01*
X349616Y466030D01*
X348658Y468341D01*
X347136Y470325D01*
X345151Y471848D01*
X342840Y472805D01*
X341860Y472934D01*
D02*
G37*
G36*
X534900D02*
Y465050D01*
X542785D01*
X542655Y466030D01*
X541698Y468341D01*
X540175Y470325D01*
X538191Y471848D01*
X535880Y472805D01*
X534900Y472934D01*
D02*
G37*
G36*
X458700D02*
Y465050D01*
X466585D01*
X466455Y466030D01*
X465498Y468341D01*
X463975Y470325D01*
X461991Y471848D01*
X459680Y472805D01*
X458700Y472934D01*
D02*
G37*
G36*
X392660D02*
Y465050D01*
X400545D01*
X400415Y466030D01*
X399458Y468341D01*
X397935Y470325D01*
X395951Y471848D01*
X393640Y472805D01*
X392660Y472934D01*
D02*
G37*
G36*
X316460D02*
Y465050D01*
X324344D01*
X324216Y466030D01*
X323258Y468341D01*
X321735Y470325D01*
X319751Y471848D01*
X317440Y472805D01*
X316460Y472934D01*
D02*
G37*
G36*
X557300D02*
X556320Y472805D01*
X554009Y471848D01*
X552024Y470325D01*
X550502Y468341D01*
X549544Y466030D01*
X549416Y465050D01*
X557300D01*
Y472934D01*
D02*
G37*
G36*
X288060D02*
X287080Y472805D01*
X284769Y471848D01*
X282785Y470325D01*
X281262Y468341D01*
X280305Y466030D01*
X280175Y465050D01*
X288060D01*
Y472934D01*
D02*
G37*
G36*
X608100D02*
X607120Y472805D01*
X604809Y471848D01*
X602825Y470325D01*
X601302Y468341D01*
X600345Y466030D01*
X600215Y465050D01*
X608100D01*
Y472934D01*
D02*
G37*
G36*
X582700D02*
X581720Y472805D01*
X579409Y471848D01*
X577425Y470325D01*
X575902Y468341D01*
X574944Y466030D01*
X574815Y465050D01*
X582700D01*
Y472934D01*
D02*
G37*
G36*
X481100D02*
X480120Y472805D01*
X477809Y471848D01*
X475825Y470325D01*
X474302Y468341D01*
X473344Y466030D01*
X473215Y465050D01*
X481100D01*
Y472934D01*
D02*
G37*
G36*
X364260D02*
X363280Y472805D01*
X360969Y471848D01*
X358984Y470325D01*
X357462Y468341D01*
X356505Y466030D01*
X356376Y465050D01*
X364260D01*
Y472934D01*
D02*
G37*
G36*
X338860D02*
X337880Y472805D01*
X335569Y471848D01*
X333585Y470325D01*
X332062Y468341D01*
X331105Y466030D01*
X330975Y465050D01*
X338860D01*
Y472934D01*
D02*
G37*
G36*
X506500D02*
X505520Y472805D01*
X503209Y471848D01*
X501225Y470325D01*
X499702Y468341D01*
X498745Y466030D01*
X498615Y465050D01*
X506500D01*
Y472934D01*
D02*
G37*
G36*
X531900D02*
X530920Y472805D01*
X528609Y471848D01*
X526624Y470325D01*
X525102Y468341D01*
X524145Y466030D01*
X524016Y465050D01*
X531900D01*
Y472934D01*
D02*
G37*
G36*
X389660D02*
X388680Y472805D01*
X386369Y471848D01*
X384384Y470325D01*
X382862Y468341D01*
X381904Y466030D01*
X381776Y465050D01*
X389660D01*
Y472934D01*
D02*
G37*
G36*
X313460D02*
X312480Y472805D01*
X310169Y471848D01*
X308185Y470325D01*
X306662Y468341D01*
X305704Y466030D01*
X305576Y465050D01*
X313460D01*
Y472934D01*
D02*
G37*
G36*
X455700D02*
X454720Y472805D01*
X452409Y471848D01*
X450424Y470325D01*
X448902Y468341D01*
X447944Y466030D01*
X447816Y465050D01*
X455700D01*
Y472934D01*
D02*
G37*
G36*
X633500Y473050D02*
X625500D01*
Y465050D01*
X633500D01*
Y473050D01*
D02*
G37*
G36*
X415060D02*
X407060D01*
Y465050D01*
X415060D01*
Y473050D01*
D02*
G37*
G36*
X618984Y462050D02*
X611100D01*
Y454165D01*
X612080Y454295D01*
X614391Y455252D01*
X616375Y456775D01*
X617898Y458759D01*
X618856Y461070D01*
X618984Y462050D01*
D02*
G37*
G36*
X593585D02*
X585700D01*
Y454165D01*
X586680Y454295D01*
X588991Y455252D01*
X590975Y456775D01*
X592498Y458759D01*
X593456Y461070D01*
X593585Y462050D01*
D02*
G37*
G36*
X568185D02*
X560300D01*
Y454165D01*
X561280Y454295D01*
X563591Y455252D01*
X565575Y456775D01*
X567098Y458759D01*
X568055Y461070D01*
X568185Y462050D01*
D02*
G37*
G36*
X542785D02*
X534900D01*
Y454165D01*
X535880Y454295D01*
X538191Y455252D01*
X540175Y456775D01*
X541698Y458759D01*
X542655Y461070D01*
X542785Y462050D01*
D02*
G37*
G36*
X517384D02*
X509500D01*
Y454165D01*
X510480Y454295D01*
X512791Y455252D01*
X514775Y456775D01*
X516298Y458759D01*
X517256Y461070D01*
X517384Y462050D01*
D02*
G37*
G36*
X491984D02*
X484100D01*
Y454165D01*
X485080Y454295D01*
X487391Y455252D01*
X489375Y456775D01*
X490898Y458759D01*
X491856Y461070D01*
X491984Y462050D01*
D02*
G37*
G36*
X466585D02*
X458700D01*
Y454165D01*
X459680Y454295D01*
X461991Y455252D01*
X463975Y456775D01*
X465498Y458759D01*
X466455Y461070D01*
X466585Y462050D01*
D02*
G37*
G36*
X375145D02*
X367260D01*
Y454165D01*
X368240Y454295D01*
X370551Y455252D01*
X372536Y456775D01*
X374058Y458759D01*
X375015Y461070D01*
X375145Y462050D01*
D02*
G37*
G36*
X349744D02*
X341860D01*
Y454165D01*
X342840Y454295D01*
X345151Y455252D01*
X347136Y456775D01*
X348658Y458759D01*
X349616Y461070D01*
X349744Y462050D01*
D02*
G37*
G36*
X324344D02*
X316460D01*
Y454165D01*
X317440Y454295D01*
X319751Y455252D01*
X321735Y456775D01*
X323258Y458759D01*
X324216Y461070D01*
X324344Y462050D01*
D02*
G37*
G36*
X298944D02*
X291060D01*
Y454165D01*
X292040Y454295D01*
X294351Y455252D01*
X296336Y456775D01*
X297858Y458759D01*
X298815Y461070D01*
X298944Y462050D01*
D02*
G37*
G36*
X400545D02*
X392660D01*
Y454165D01*
X393640Y454295D01*
X395951Y455252D01*
X397935Y456775D01*
X399458Y458759D01*
X400415Y461070D01*
X400545Y462050D01*
D02*
G37*
G36*
X608100D02*
X600215D01*
X600345Y461070D01*
X601302Y458759D01*
X602825Y456775D01*
X604809Y455252D01*
X607120Y454295D01*
X608100Y454165D01*
Y462050D01*
D02*
G37*
G36*
X582700D02*
X574815D01*
X574944Y461070D01*
X575902Y458759D01*
X577425Y456775D01*
X579409Y455252D01*
X581720Y454295D01*
X582700Y454165D01*
Y462050D01*
D02*
G37*
G36*
X557300D02*
X549416D01*
X549544Y461070D01*
X550502Y458759D01*
X552024Y456775D01*
X554009Y455252D01*
X556320Y454295D01*
X557300Y454165D01*
Y462050D01*
D02*
G37*
G36*
X531900D02*
X524016D01*
X524145Y461070D01*
X525102Y458759D01*
X526624Y456775D01*
X528609Y455252D01*
X530920Y454295D01*
X531900Y454165D01*
Y462050D01*
D02*
G37*
G36*
X506500D02*
X498615D01*
X498745Y461070D01*
X499702Y458759D01*
X501225Y456775D01*
X503209Y455252D01*
X505520Y454295D01*
X506500Y454165D01*
Y462050D01*
D02*
G37*
G36*
X481100D02*
X473215D01*
X473344Y461070D01*
X474302Y458759D01*
X475825Y456775D01*
X477809Y455252D01*
X480120Y454295D01*
X481100Y454165D01*
Y462050D01*
D02*
G37*
G36*
X455700D02*
X447816D01*
X447944Y461070D01*
X448902Y458759D01*
X450424Y456775D01*
X452409Y455252D01*
X454720Y454295D01*
X455700Y454165D01*
Y462050D01*
D02*
G37*
G36*
X364260D02*
X356376D01*
X356505Y461070D01*
X357462Y458759D01*
X358984Y456775D01*
X360969Y455252D01*
X363280Y454295D01*
X364260Y454165D01*
Y462050D01*
D02*
G37*
G36*
X338860D02*
X330975D01*
X331105Y461070D01*
X332062Y458759D01*
X333585Y456775D01*
X335569Y455252D01*
X337880Y454295D01*
X338860Y454165D01*
Y462050D01*
D02*
G37*
G36*
X313460D02*
X305576D01*
X305704Y461070D01*
X306662Y458759D01*
X308185Y456775D01*
X310169Y455252D01*
X312480Y454295D01*
X313460Y454165D01*
Y462050D01*
D02*
G37*
G36*
X288060D02*
X280175D01*
X280305Y461070D01*
X281262Y458759D01*
X282785Y456775D01*
X284769Y455252D01*
X287080Y454295D01*
X288060Y454165D01*
Y462050D01*
D02*
G37*
G36*
X389660D02*
X381776D01*
X381904Y461070D01*
X382862Y458759D01*
X384384Y456775D01*
X386369Y455252D01*
X388680Y454295D01*
X389660Y454165D01*
Y462050D01*
D02*
G37*
G36*
X644500D02*
X636500D01*
Y454050D01*
X644500D01*
Y462050D01*
D02*
G37*
G36*
X633500D02*
X625500D01*
Y454050D01*
X633500D01*
Y462050D01*
D02*
G37*
G36*
X426060D02*
X418060D01*
Y454050D01*
X426060D01*
Y462050D01*
D02*
G37*
G36*
X415060D02*
X407060D01*
Y454050D01*
X415060D01*
Y462050D01*
D02*
G37*
G36*
X144000Y463098D02*
X142049Y462710D01*
X140395Y461605D01*
X139290Y459951D01*
X138902Y458000D01*
X139290Y456049D01*
X140395Y454395D01*
X142049Y453290D01*
X144000Y452902D01*
X145951Y453290D01*
X147605Y454395D01*
X148710Y456049D01*
X149098Y458000D01*
X148710Y459951D01*
X147605Y461605D01*
X145951Y462710D01*
X144000Y463098D01*
D02*
G37*
G36*
X644500Y447650D02*
X625500D01*
Y428650D01*
X644500D01*
Y447650D01*
D02*
G37*
G36*
X426060D02*
X407060D01*
Y428650D01*
X426060D01*
Y447650D01*
D02*
G37*
G36*
X609600Y447732D02*
X607120Y447406D01*
X604809Y446448D01*
X602825Y444925D01*
X601302Y442941D01*
X600345Y440630D01*
X600018Y438150D01*
X600345Y435670D01*
X601302Y433359D01*
X602825Y431375D01*
X604809Y429852D01*
X607120Y428895D01*
X609600Y428568D01*
X612080Y428895D01*
X614391Y429852D01*
X616375Y431375D01*
X617898Y433359D01*
X618856Y435670D01*
X619182Y438150D01*
X618856Y440630D01*
X617898Y442941D01*
X616375Y444925D01*
X614391Y446448D01*
X612080Y447406D01*
X609600Y447732D01*
D02*
G37*
G36*
X584200D02*
X581720Y447406D01*
X579409Y446448D01*
X577425Y444925D01*
X575902Y442941D01*
X574944Y440630D01*
X574618Y438150D01*
X574944Y435670D01*
X575902Y433359D01*
X577425Y431375D01*
X579409Y429852D01*
X581720Y428895D01*
X584200Y428568D01*
X586680Y428895D01*
X588991Y429852D01*
X590975Y431375D01*
X592498Y433359D01*
X593456Y435670D01*
X593782Y438150D01*
X593456Y440630D01*
X592498Y442941D01*
X590975Y444925D01*
X588991Y446448D01*
X586680Y447406D01*
X584200Y447732D01*
D02*
G37*
G36*
X558800D02*
X556320Y447406D01*
X554009Y446448D01*
X552024Y444925D01*
X550502Y442941D01*
X549544Y440630D01*
X549218Y438150D01*
X549544Y435670D01*
X550502Y433359D01*
X552024Y431375D01*
X554009Y429852D01*
X556320Y428895D01*
X558800Y428568D01*
X561280Y428895D01*
X563591Y429852D01*
X565575Y431375D01*
X567098Y433359D01*
X568055Y435670D01*
X568382Y438150D01*
X568055Y440630D01*
X567098Y442941D01*
X565575Y444925D01*
X563591Y446448D01*
X561280Y447406D01*
X558800Y447732D01*
D02*
G37*
G36*
X533400D02*
X530920Y447406D01*
X528609Y446448D01*
X526624Y444925D01*
X525102Y442941D01*
X524145Y440630D01*
X523818Y438150D01*
X524145Y435670D01*
X525102Y433359D01*
X526624Y431375D01*
X528609Y429852D01*
X530920Y428895D01*
X533400Y428568D01*
X535880Y428895D01*
X538191Y429852D01*
X540175Y431375D01*
X541698Y433359D01*
X542655Y435670D01*
X542982Y438150D01*
X542655Y440630D01*
X541698Y442941D01*
X540175Y444925D01*
X538191Y446448D01*
X535880Y447406D01*
X533400Y447732D01*
D02*
G37*
G36*
X508000D02*
X505520Y447406D01*
X503209Y446448D01*
X501225Y444925D01*
X499702Y442941D01*
X498745Y440630D01*
X498418Y438150D01*
X498745Y435670D01*
X499702Y433359D01*
X501225Y431375D01*
X503209Y429852D01*
X505520Y428895D01*
X508000Y428568D01*
X510480Y428895D01*
X512791Y429852D01*
X514775Y431375D01*
X516298Y433359D01*
X517256Y435670D01*
X517582Y438150D01*
X517256Y440630D01*
X516298Y442941D01*
X514775Y444925D01*
X512791Y446448D01*
X510480Y447406D01*
X508000Y447732D01*
D02*
G37*
G36*
X482600D02*
X480120Y447406D01*
X477809Y446448D01*
X475825Y444925D01*
X474302Y442941D01*
X473344Y440630D01*
X473018Y438150D01*
X473344Y435670D01*
X474302Y433359D01*
X475825Y431375D01*
X477809Y429852D01*
X480120Y428895D01*
X482600Y428568D01*
X485080Y428895D01*
X487391Y429852D01*
X489375Y431375D01*
X490898Y433359D01*
X491856Y435670D01*
X492182Y438150D01*
X491856Y440630D01*
X490898Y442941D01*
X489375Y444925D01*
X487391Y446448D01*
X485080Y447406D01*
X482600Y447732D01*
D02*
G37*
G36*
X457200D02*
X454720Y447406D01*
X452409Y446448D01*
X450424Y444925D01*
X448902Y442941D01*
X447944Y440630D01*
X447618Y438150D01*
X447944Y435670D01*
X448902Y433359D01*
X450424Y431375D01*
X452409Y429852D01*
X454720Y428895D01*
X457200Y428568D01*
X459680Y428895D01*
X461991Y429852D01*
X463975Y431375D01*
X465498Y433359D01*
X466455Y435670D01*
X466782Y438150D01*
X466455Y440630D01*
X465498Y442941D01*
X463975Y444925D01*
X461991Y446448D01*
X459680Y447406D01*
X457200Y447732D01*
D02*
G37*
G36*
X391160D02*
X388680Y447406D01*
X386369Y446448D01*
X384384Y444925D01*
X382862Y442941D01*
X381904Y440630D01*
X381578Y438150D01*
X381904Y435670D01*
X382862Y433359D01*
X384384Y431375D01*
X386369Y429852D01*
X388680Y428895D01*
X391160Y428568D01*
X393640Y428895D01*
X395951Y429852D01*
X397935Y431375D01*
X399458Y433359D01*
X400415Y435670D01*
X400742Y438150D01*
X400415Y440630D01*
X399458Y442941D01*
X397935Y444925D01*
X395951Y446448D01*
X393640Y447406D01*
X391160Y447732D01*
D02*
G37*
G36*
X365760D02*
X363280Y447406D01*
X360969Y446448D01*
X358984Y444925D01*
X357462Y442941D01*
X356505Y440630D01*
X356178Y438150D01*
X356505Y435670D01*
X357462Y433359D01*
X358984Y431375D01*
X360969Y429852D01*
X363280Y428895D01*
X365760Y428568D01*
X368240Y428895D01*
X370551Y429852D01*
X372536Y431375D01*
X374058Y433359D01*
X375015Y435670D01*
X375342Y438150D01*
X375015Y440630D01*
X374058Y442941D01*
X372536Y444925D01*
X370551Y446448D01*
X368240Y447406D01*
X365760Y447732D01*
D02*
G37*
G36*
X340360D02*
X337880Y447406D01*
X335569Y446448D01*
X333585Y444925D01*
X332062Y442941D01*
X331105Y440630D01*
X330778Y438150D01*
X331105Y435670D01*
X332062Y433359D01*
X333585Y431375D01*
X335569Y429852D01*
X337880Y428895D01*
X340360Y428568D01*
X342840Y428895D01*
X345151Y429852D01*
X347136Y431375D01*
X348658Y433359D01*
X349616Y435670D01*
X349942Y438150D01*
X349616Y440630D01*
X348658Y442941D01*
X347136Y444925D01*
X345151Y446448D01*
X342840Y447406D01*
X340360Y447732D01*
D02*
G37*
G36*
X314960D02*
X312480Y447406D01*
X310169Y446448D01*
X308185Y444925D01*
X306662Y442941D01*
X305704Y440630D01*
X305378Y438150D01*
X305704Y435670D01*
X306662Y433359D01*
X308185Y431375D01*
X310169Y429852D01*
X312480Y428895D01*
X314960Y428568D01*
X317440Y428895D01*
X319751Y429852D01*
X321735Y431375D01*
X323258Y433359D01*
X324216Y435670D01*
X324542Y438150D01*
X324216Y440630D01*
X323258Y442941D01*
X321735Y444925D01*
X319751Y446448D01*
X317440Y447406D01*
X314960Y447732D01*
D02*
G37*
G36*
X289560D02*
X287080Y447406D01*
X284769Y446448D01*
X282785Y444925D01*
X281262Y442941D01*
X280305Y440630D01*
X279978Y438150D01*
X280305Y435670D01*
X281262Y433359D01*
X282785Y431375D01*
X284769Y429852D01*
X287080Y428895D01*
X289560Y428568D01*
X292040Y428895D01*
X294351Y429852D01*
X296336Y431375D01*
X297858Y433359D01*
X298815Y435670D01*
X299142Y438150D01*
X298815Y440630D01*
X297858Y442941D01*
X296336Y444925D01*
X294351Y446448D01*
X292040Y447406D01*
X289560Y447732D01*
D02*
G37*
G36*
X205000Y429098D02*
X203049Y428710D01*
X201395Y427605D01*
X200290Y425951D01*
X199902Y424000D01*
X200290Y422049D01*
X201395Y420395D01*
X203049Y419290D01*
X205000Y418902D01*
X206951Y419290D01*
X208605Y420395D01*
X209710Y422049D01*
X210098Y424000D01*
X209710Y425951D01*
X208605Y427605D01*
X206951Y428710D01*
X205000Y429098D01*
D02*
G37*
G36*
X87000Y453098D02*
X85049Y452710D01*
X83395Y451605D01*
X82290Y449951D01*
X81902Y448000D01*
X82290Y446049D01*
X83055Y444905D01*
X83292Y444000D01*
X83055Y443095D01*
X82290Y441951D01*
X81902Y440000D01*
X82290Y438049D01*
X83055Y436905D01*
X83292Y436000D01*
X83055Y435095D01*
X82290Y433951D01*
X81902Y432000D01*
X82290Y430049D01*
X83055Y428905D01*
X83292Y428000D01*
X83055Y427095D01*
X82290Y425951D01*
X81902Y424000D01*
X82290Y422049D01*
X83395Y420395D01*
X85049Y419290D01*
X87000Y418902D01*
X88951Y419290D01*
X90605Y420395D01*
X91710Y422049D01*
X92098Y424000D01*
X91710Y425951D01*
X90945Y427095D01*
X90708Y428000D01*
X90945Y428905D01*
X91710Y430049D01*
X92098Y432000D01*
X91710Y433951D01*
X90945Y435095D01*
X90708Y436000D01*
X90945Y436905D01*
X91710Y438049D01*
X92098Y440000D01*
X91710Y441951D01*
X90945Y443095D01*
X90708Y444000D01*
X90945Y444905D01*
X91710Y446049D01*
X92098Y448000D01*
X91710Y449951D01*
X90605Y451605D01*
X88951Y452710D01*
X87000Y453098D01*
D02*
G37*
G36*
X644500Y422250D02*
X625500D01*
Y403250D01*
X644500D01*
Y422250D01*
D02*
G37*
G36*
X426060D02*
X407060D01*
Y403250D01*
X426060D01*
Y422250D01*
D02*
G37*
G36*
X609600Y422332D02*
X607120Y422006D01*
X604809Y421048D01*
X602825Y419525D01*
X601302Y417541D01*
X600345Y415230D01*
X600018Y412750D01*
X600345Y410270D01*
X601302Y407959D01*
X602825Y405975D01*
X604809Y404452D01*
X607120Y403494D01*
X609600Y403168D01*
X612080Y403494D01*
X614391Y404452D01*
X616375Y405975D01*
X617898Y407959D01*
X618856Y410270D01*
X619182Y412750D01*
X618856Y415230D01*
X617898Y417541D01*
X616375Y419525D01*
X614391Y421048D01*
X612080Y422006D01*
X609600Y422332D01*
D02*
G37*
G36*
X584200D02*
X581720Y422006D01*
X579409Y421048D01*
X577425Y419525D01*
X575902Y417541D01*
X574944Y415230D01*
X574618Y412750D01*
X574944Y410270D01*
X575902Y407959D01*
X577425Y405975D01*
X579409Y404452D01*
X581720Y403494D01*
X584200Y403168D01*
X586680Y403494D01*
X588991Y404452D01*
X590975Y405975D01*
X592498Y407959D01*
X593456Y410270D01*
X593782Y412750D01*
X593456Y415230D01*
X592498Y417541D01*
X590975Y419525D01*
X588991Y421048D01*
X586680Y422006D01*
X584200Y422332D01*
D02*
G37*
G36*
X558800D02*
X556320Y422006D01*
X554009Y421048D01*
X552024Y419525D01*
X550502Y417541D01*
X549544Y415230D01*
X549218Y412750D01*
X549544Y410270D01*
X550502Y407959D01*
X552024Y405975D01*
X554009Y404452D01*
X556320Y403494D01*
X558800Y403168D01*
X561280Y403494D01*
X563591Y404452D01*
X565575Y405975D01*
X567098Y407959D01*
X568055Y410270D01*
X568382Y412750D01*
X568055Y415230D01*
X567098Y417541D01*
X565575Y419525D01*
X563591Y421048D01*
X561280Y422006D01*
X558800Y422332D01*
D02*
G37*
G36*
X533400D02*
X530920Y422006D01*
X528609Y421048D01*
X526624Y419525D01*
X525102Y417541D01*
X524145Y415230D01*
X523818Y412750D01*
X524145Y410270D01*
X525102Y407959D01*
X526624Y405975D01*
X528609Y404452D01*
X530920Y403494D01*
X533400Y403168D01*
X535880Y403494D01*
X538191Y404452D01*
X540175Y405975D01*
X541698Y407959D01*
X542655Y410270D01*
X542982Y412750D01*
X542655Y415230D01*
X541698Y417541D01*
X540175Y419525D01*
X538191Y421048D01*
X535880Y422006D01*
X533400Y422332D01*
D02*
G37*
G36*
X508000D02*
X505520Y422006D01*
X503209Y421048D01*
X501225Y419525D01*
X499702Y417541D01*
X498745Y415230D01*
X498418Y412750D01*
X498745Y410270D01*
X499702Y407959D01*
X501225Y405975D01*
X503209Y404452D01*
X505520Y403494D01*
X508000Y403168D01*
X510480Y403494D01*
X512791Y404452D01*
X514775Y405975D01*
X516298Y407959D01*
X517256Y410270D01*
X517582Y412750D01*
X517256Y415230D01*
X516298Y417541D01*
X514775Y419525D01*
X512791Y421048D01*
X510480Y422006D01*
X508000Y422332D01*
D02*
G37*
G36*
X482600D02*
X480120Y422006D01*
X477809Y421048D01*
X475825Y419525D01*
X474302Y417541D01*
X473344Y415230D01*
X473018Y412750D01*
X473344Y410270D01*
X474302Y407959D01*
X475825Y405975D01*
X477809Y404452D01*
X480120Y403494D01*
X482600Y403168D01*
X485080Y403494D01*
X487391Y404452D01*
X489375Y405975D01*
X490898Y407959D01*
X491856Y410270D01*
X492182Y412750D01*
X491856Y415230D01*
X490898Y417541D01*
X489375Y419525D01*
X487391Y421048D01*
X485080Y422006D01*
X482600Y422332D01*
D02*
G37*
G36*
X457200D02*
X454720Y422006D01*
X452409Y421048D01*
X450424Y419525D01*
X448902Y417541D01*
X447944Y415230D01*
X447618Y412750D01*
X447944Y410270D01*
X448902Y407959D01*
X450424Y405975D01*
X452409Y404452D01*
X454720Y403494D01*
X457200Y403168D01*
X459680Y403494D01*
X461991Y404452D01*
X463975Y405975D01*
X465498Y407959D01*
X466455Y410270D01*
X466782Y412750D01*
X466455Y415230D01*
X465498Y417541D01*
X463975Y419525D01*
X461991Y421048D01*
X459680Y422006D01*
X457200Y422332D01*
D02*
G37*
G36*
X391160D02*
X388680Y422006D01*
X386369Y421048D01*
X384384Y419525D01*
X382862Y417541D01*
X381904Y415230D01*
X381578Y412750D01*
X381904Y410270D01*
X382862Y407959D01*
X384384Y405975D01*
X386369Y404452D01*
X388680Y403494D01*
X391160Y403168D01*
X393640Y403494D01*
X395951Y404452D01*
X397935Y405975D01*
X399458Y407959D01*
X400415Y410270D01*
X400742Y412750D01*
X400415Y415230D01*
X399458Y417541D01*
X397935Y419525D01*
X395951Y421048D01*
X393640Y422006D01*
X391160Y422332D01*
D02*
G37*
G36*
X365760D02*
X363280Y422006D01*
X360969Y421048D01*
X358984Y419525D01*
X357462Y417541D01*
X356505Y415230D01*
X356178Y412750D01*
X356505Y410270D01*
X357462Y407959D01*
X358984Y405975D01*
X360969Y404452D01*
X363280Y403494D01*
X365760Y403168D01*
X368240Y403494D01*
X370551Y404452D01*
X372536Y405975D01*
X374058Y407959D01*
X375015Y410270D01*
X375342Y412750D01*
X375015Y415230D01*
X374058Y417541D01*
X372536Y419525D01*
X370551Y421048D01*
X368240Y422006D01*
X365760Y422332D01*
D02*
G37*
G36*
X340360D02*
X337880Y422006D01*
X335569Y421048D01*
X333585Y419525D01*
X332062Y417541D01*
X331105Y415230D01*
X330778Y412750D01*
X331105Y410270D01*
X332062Y407959D01*
X333585Y405975D01*
X335569Y404452D01*
X337880Y403494D01*
X340360Y403168D01*
X342840Y403494D01*
X345151Y404452D01*
X347136Y405975D01*
X348658Y407959D01*
X349616Y410270D01*
X349942Y412750D01*
X349616Y415230D01*
X348658Y417541D01*
X347136Y419525D01*
X345151Y421048D01*
X342840Y422006D01*
X340360Y422332D01*
D02*
G37*
G36*
X314960D02*
X312480Y422006D01*
X310169Y421048D01*
X308185Y419525D01*
X306662Y417541D01*
X305704Y415230D01*
X305378Y412750D01*
X305704Y410270D01*
X306662Y407959D01*
X308185Y405975D01*
X310169Y404452D01*
X312480Y403494D01*
X314960Y403168D01*
X317440Y403494D01*
X319751Y404452D01*
X321735Y405975D01*
X323258Y407959D01*
X324216Y410270D01*
X324542Y412750D01*
X324216Y415230D01*
X323258Y417541D01*
X321735Y419525D01*
X319751Y421048D01*
X317440Y422006D01*
X314960Y422332D01*
D02*
G37*
G36*
X289560D02*
X287080Y422006D01*
X284769Y421048D01*
X282785Y419525D01*
X281262Y417541D01*
X280305Y415230D01*
X279978Y412750D01*
X280305Y410270D01*
X281262Y407959D01*
X282785Y405975D01*
X284769Y404452D01*
X287080Y403494D01*
X289560Y403168D01*
X292040Y403494D01*
X294351Y404452D01*
X296336Y405975D01*
X297858Y407959D01*
X298815Y410270D01*
X299142Y412750D01*
X298815Y415230D01*
X297858Y417541D01*
X296336Y419525D01*
X294351Y421048D01*
X292040Y422006D01*
X289560Y422332D01*
D02*
G37*
G36*
X218500Y403098D02*
X216549Y402710D01*
X214895Y401605D01*
X213790Y399951D01*
X213402Y398000D01*
X213790Y396049D01*
X214895Y394395D01*
X216549Y393290D01*
X218500Y392902D01*
X220451Y393290D01*
X222105Y394395D01*
X223210Y396049D01*
X223598Y398000D01*
X223210Y399951D01*
X222105Y401605D01*
X220451Y402710D01*
X218500Y403098D01*
D02*
G37*
G36*
X463000Y401848D02*
X461049Y401460D01*
X459395Y400355D01*
X458290Y398701D01*
X457902Y396750D01*
X458290Y394799D01*
X459395Y393145D01*
X461049Y392040D01*
X463000Y391652D01*
X464951Y392040D01*
X466605Y393145D01*
X467710Y394799D01*
X468098Y396750D01*
X467710Y398701D01*
X466605Y400355D01*
X464951Y401460D01*
X463000Y401848D01*
D02*
G37*
G36*
X330750Y400598D02*
X328799Y400210D01*
X327145Y399105D01*
X326040Y397451D01*
X325652Y395500D01*
X326040Y393549D01*
X327145Y391895D01*
X328799Y390790D01*
X330750Y390402D01*
X332701Y390790D01*
X334355Y391895D01*
X335460Y393549D01*
X335848Y395500D01*
X335460Y397451D01*
X334355Y399105D01*
X332701Y400210D01*
X330750Y400598D01*
D02*
G37*
G36*
X350750Y400348D02*
X348799Y399960D01*
X347145Y398855D01*
X346040Y397201D01*
X345652Y395250D01*
X346040Y393299D01*
X347145Y391645D01*
X348799Y390540D01*
X350750Y390152D01*
X352701Y390540D01*
X354355Y391645D01*
X355460Y393299D01*
X355848Y395250D01*
X355460Y397201D01*
X354355Y398855D01*
X352701Y399960D01*
X350750Y400348D01*
D02*
G37*
G36*
X167000Y396098D02*
X165049Y395710D01*
X163395Y394605D01*
X162290Y392951D01*
X161902Y391000D01*
X162290Y389049D01*
X163395Y387395D01*
X165049Y386290D01*
X167000Y385902D01*
X168951Y386290D01*
X170605Y387395D01*
X171710Y389049D01*
X172098Y391000D01*
X171710Y392951D01*
X170605Y394605D01*
X168951Y395710D01*
X167000Y396098D01*
D02*
G37*
G36*
X122753Y395345D02*
X120802Y394957D01*
X119148Y393852D01*
X118043Y392198D01*
X117655Y390247D01*
X118043Y388297D01*
X119148Y386643D01*
X120802Y385537D01*
X122753Y385149D01*
X124704Y385537D01*
X126357Y386643D01*
X127463Y388297D01*
X127851Y390247D01*
X127463Y392198D01*
X126357Y393852D01*
X124704Y394957D01*
X122753Y395345D01*
D02*
G37*
G36*
X301000Y398098D02*
X299049Y397710D01*
X297395Y396605D01*
X296290Y394951D01*
X295902Y393000D01*
X296290Y391049D01*
X297055Y389905D01*
X297292Y389000D01*
X297055Y388095D01*
X296290Y386951D01*
X295902Y385000D01*
X296290Y383049D01*
X297395Y381395D01*
X299049Y380290D01*
X301000Y379902D01*
X302951Y380290D01*
X304605Y381395D01*
X305710Y383049D01*
X306098Y385000D01*
X305710Y386951D01*
X304945Y388095D01*
X304708Y389000D01*
X304945Y389905D01*
X305710Y391049D01*
X306098Y393000D01*
X305710Y394951D01*
X304605Y396605D01*
X302951Y397710D01*
X301000Y398098D01*
D02*
G37*
G36*
X270299Y385712D02*
X268349Y385324D01*
X266695Y384219D01*
X265590Y382565D01*
X265202Y380614D01*
X265480Y379216D01*
X264337Y378452D01*
X263951Y378710D01*
X262000Y379098D01*
X260049Y378710D01*
X258395Y377605D01*
X257290Y375951D01*
X256902Y374000D01*
X257290Y372049D01*
X258395Y370395D01*
X260049Y369290D01*
X262000Y368902D01*
X263951Y369290D01*
X265605Y370395D01*
X266710Y372049D01*
X267098Y374000D01*
X266820Y375398D01*
X267963Y376162D01*
X268349Y375904D01*
X270299Y375516D01*
X272250Y375904D01*
X273904Y377009D01*
X275009Y378663D01*
X275397Y380614D01*
X275009Y382565D01*
X273904Y384219D01*
X272250Y385324D01*
X270299Y385712D01*
D02*
G37*
G36*
X489000Y387098D02*
X487049Y386710D01*
X485395Y385605D01*
X484290Y383951D01*
X483902Y382000D01*
X484290Y380049D01*
X485395Y378395D01*
X487049Y377290D01*
X489000Y376902D01*
X490951Y377290D01*
X492605Y378395D01*
X493710Y380049D01*
X494098Y382000D01*
X493710Y383951D01*
X492605Y385605D01*
X490951Y386710D01*
X489000Y387098D01*
D02*
G37*
G36*
X87000Y411098D02*
X85049Y410710D01*
X83395Y409605D01*
X82290Y407951D01*
X81902Y406000D01*
X82290Y404049D01*
X83055Y402905D01*
X83292Y402000D01*
X83055Y401095D01*
X82290Y399951D01*
X81902Y398000D01*
X82290Y396049D01*
X83055Y394905D01*
X83292Y394000D01*
X83055Y393095D01*
X82290Y391951D01*
X81902Y390000D01*
X82290Y388049D01*
X83055Y386905D01*
X83292Y386000D01*
X83055Y385095D01*
X82290Y383951D01*
X81902Y382000D01*
X82290Y380049D01*
X83395Y378395D01*
X85049Y377290D01*
X87000Y376902D01*
X88951Y377290D01*
X90605Y378395D01*
X91710Y380049D01*
X92098Y382000D01*
X91710Y383951D01*
X90945Y385095D01*
X90708Y386000D01*
X90945Y386905D01*
X91710Y388049D01*
X92098Y390000D01*
X91710Y391951D01*
X90945Y393095D01*
X90708Y394000D01*
X90945Y394905D01*
X91710Y396049D01*
X92098Y398000D01*
X91710Y399951D01*
X90945Y401095D01*
X90708Y402000D01*
X90945Y402905D01*
X91710Y404049D01*
X92098Y406000D01*
X91710Y407951D01*
X90605Y409605D01*
X88951Y410710D01*
X87000Y411098D01*
D02*
G37*
G36*
X170000Y385098D02*
X168049Y384710D01*
X166395Y383605D01*
X165290Y381951D01*
X164902Y380000D01*
X165290Y378049D01*
X166395Y376395D01*
X168049Y375290D01*
X170000Y374902D01*
X171951Y375290D01*
X173605Y376395D01*
X174710Y378049D01*
X175098Y380000D01*
X174710Y381951D01*
X173605Y383605D01*
X171951Y384710D01*
X170000Y385098D01*
D02*
G37*
G36*
X113000D02*
X111049Y384710D01*
X109395Y383605D01*
X108290Y381951D01*
X107902Y380000D01*
X108290Y378049D01*
X109395Y376395D01*
X111049Y375290D01*
X113000Y374902D01*
X114951Y375290D01*
X116605Y376395D01*
X117710Y378049D01*
X118098Y380000D01*
X117710Y381951D01*
X116605Y383605D01*
X114951Y384710D01*
X113000Y385098D01*
D02*
G37*
G36*
X170000Y373098D02*
X168049Y372710D01*
X166395Y371605D01*
X165290Y369951D01*
X164902Y368000D01*
X164965Y367683D01*
X164067Y366785D01*
X163750Y366848D01*
X161799Y366460D01*
X160145Y365355D01*
X159040Y363701D01*
X158652Y361750D01*
X159040Y359799D01*
X160145Y358145D01*
X161799Y357040D01*
X163750Y356652D01*
X165701Y357040D01*
X167355Y358145D01*
X168460Y359799D01*
X168848Y361750D01*
X168785Y362067D01*
X169683Y362965D01*
X170000Y362902D01*
X171951Y363290D01*
X173605Y364395D01*
X174710Y366049D01*
X175098Y368000D01*
X174710Y369951D01*
X173605Y371605D01*
X171951Y372710D01*
X170000Y373098D01*
D02*
G37*
G36*
X489000D02*
X487049Y372710D01*
X485395Y371605D01*
X484290Y369951D01*
X483902Y368000D01*
X484290Y366049D01*
X485395Y364395D01*
X487049Y363290D01*
X489000Y362902D01*
X490951Y363290D01*
X492605Y364395D01*
X493710Y366049D01*
X494098Y368000D01*
X493710Y369951D01*
X492605Y371605D01*
X490951Y372710D01*
X489000Y373098D01*
D02*
G37*
G36*
X63000Y372098D02*
X61049Y371710D01*
X59395Y370605D01*
X58290Y368951D01*
X57902Y367000D01*
X58290Y365049D01*
X59395Y363395D01*
X61049Y362290D01*
X63000Y361902D01*
X64951Y362290D01*
X66605Y363395D01*
X67710Y365049D01*
X68098Y367000D01*
X67710Y368951D01*
X66605Y370605D01*
X64951Y371710D01*
X63000Y372098D01*
D02*
G37*
G36*
X119000Y365348D02*
X117049Y364960D01*
X115395Y363855D01*
X114290Y362201D01*
X113902Y360250D01*
X114290Y358299D01*
X115395Y356645D01*
X117049Y355540D01*
X119000Y355152D01*
X120951Y355540D01*
X122605Y356645D01*
X123710Y358299D01*
X124098Y360250D01*
X123710Y362201D01*
X122605Y363855D01*
X120951Y364960D01*
X119000Y365348D01*
D02*
G37*
G36*
X286975Y364583D02*
X285024Y364195D01*
X283370Y363090D01*
X282265Y361436D01*
X281877Y359485D01*
X282265Y357534D01*
X283370Y355880D01*
X285024Y354775D01*
X286975Y354387D01*
X288926Y354775D01*
X290579Y355880D01*
X291685Y357534D01*
X292073Y359485D01*
X291685Y361436D01*
X290579Y363090D01*
X288926Y364195D01*
X286975Y364583D01*
D02*
G37*
G36*
X445500Y362598D02*
X443549Y362210D01*
X441895Y361105D01*
X440790Y359451D01*
X440402Y357500D01*
X440790Y355549D01*
X441895Y353895D01*
X443549Y352790D01*
X445500Y352402D01*
X447451Y352790D01*
X449105Y353895D01*
X450210Y355549D01*
X450598Y357500D01*
X450210Y359451D01*
X449105Y361105D01*
X447451Y362210D01*
X445500Y362598D01*
D02*
G37*
G36*
X430500D02*
X428549Y362210D01*
X426895Y361105D01*
X425790Y359451D01*
X425402Y357500D01*
X425790Y355549D01*
X426895Y353895D01*
X428549Y352790D01*
X430500Y352402D01*
X432451Y352790D01*
X434105Y353895D01*
X435210Y355549D01*
X435598Y357500D01*
X435210Y359451D01*
X434105Y361105D01*
X432451Y362210D01*
X430500Y362598D01*
D02*
G37*
G36*
X465000Y363098D02*
X463049Y362710D01*
X461395Y361605D01*
X460290Y359951D01*
X459902Y358000D01*
X460290Y356049D01*
X461395Y354395D01*
X463049Y353290D01*
X465000Y352902D01*
X465819Y353065D01*
X466902Y352000D01*
X467290Y350049D01*
X468395Y348395D01*
X470049Y347290D01*
X472000Y346902D01*
X473951Y347290D01*
X475605Y348395D01*
X476710Y350049D01*
X477098Y352000D01*
X476710Y353951D01*
X475605Y355605D01*
X473951Y356710D01*
X472000Y357098D01*
X471181Y356935D01*
X470098Y358000D01*
X469710Y359951D01*
X468605Y361605D01*
X466951Y362710D01*
X465000Y363098D01*
D02*
G37*
G36*
X301999Y355097D02*
X300049Y354709D01*
X298395Y353604D01*
X297290Y351950D01*
X296901Y349999D01*
X297290Y348048D01*
X298395Y346395D01*
X300049Y345289D01*
X301999Y344901D01*
X303950Y345289D01*
X305604Y346395D01*
X306709Y348048D01*
X307097Y349999D01*
X306709Y351950D01*
X305604Y353604D01*
X303950Y354709D01*
X301999Y355097D01*
D02*
G37*
G36*
X351000Y354098D02*
X349049Y353710D01*
X347395Y352605D01*
X346290Y350951D01*
X345902Y349000D01*
X346290Y347049D01*
X347395Y345395D01*
X349049Y344290D01*
X351000Y343902D01*
X352951Y344290D01*
X354605Y345395D01*
X355710Y347049D01*
X356098Y349000D01*
X355710Y350951D01*
X354605Y352605D01*
X352951Y353710D01*
X351000Y354098D01*
D02*
G37*
G36*
X272000Y353098D02*
X270049Y352710D01*
X268395Y351605D01*
X267290Y349951D01*
X266902Y348000D01*
X267290Y346049D01*
X268395Y344395D01*
X270049Y343290D01*
X272000Y342902D01*
X273951Y343290D01*
X275605Y344395D01*
X276710Y346049D01*
X277098Y348000D01*
X276710Y349951D01*
X275605Y351605D01*
X273951Y352710D01*
X272000Y353098D01*
D02*
G37*
G36*
X452000Y351098D02*
X450049Y350710D01*
X448395Y349605D01*
X447290Y347951D01*
X446902Y346000D01*
X447290Y344049D01*
X448395Y342395D01*
X450049Y341290D01*
X452000Y340902D01*
X453951Y341290D01*
X455605Y342395D01*
X456710Y344049D01*
X457098Y346000D01*
X456710Y347951D01*
X455605Y349605D01*
X453951Y350710D01*
X452000Y351098D01*
D02*
G37*
G36*
X131000Y350098D02*
X129049Y349710D01*
X127395Y348605D01*
X126290Y346951D01*
X125902Y345000D01*
X126290Y343049D01*
X127395Y341395D01*
X129049Y340290D01*
X131000Y339902D01*
X132951Y340290D01*
X134605Y341395D01*
X135710Y343049D01*
X136098Y345000D01*
X135710Y346951D01*
X134605Y348605D01*
X132951Y349710D01*
X131000Y350098D01*
D02*
G37*
G36*
X167750Y349348D02*
X165799Y348960D01*
X164145Y347855D01*
X163040Y346201D01*
X162652Y344250D01*
X163040Y342299D01*
X164145Y340645D01*
X165799Y339540D01*
X167750Y339152D01*
X169701Y339540D01*
X171355Y340645D01*
X172460Y342299D01*
X172848Y344250D01*
X172460Y346201D01*
X171355Y347855D01*
X169701Y348960D01*
X167750Y349348D01*
D02*
G37*
G36*
X200600Y349098D02*
X198649Y348710D01*
X196995Y347605D01*
X195890Y345951D01*
X195502Y344000D01*
X195890Y342049D01*
X196995Y340395D01*
X198649Y339290D01*
X200600Y338902D01*
X202551Y339290D01*
X204205Y340395D01*
X205310Y342049D01*
X205698Y344000D01*
X205310Y345951D01*
X204205Y347605D01*
X202551Y348710D01*
X200600Y349098D01*
D02*
G37*
G36*
X146000Y345098D02*
X144049Y344710D01*
X142395Y343605D01*
X141290Y341951D01*
X140902Y340000D01*
X141290Y338049D01*
X142395Y336395D01*
X144049Y335290D01*
X146000Y334902D01*
X147951Y335290D01*
X149605Y336395D01*
X150710Y338049D01*
X151098Y340000D01*
X150710Y341951D01*
X149605Y343605D01*
X147951Y344710D01*
X146000Y345098D01*
D02*
G37*
G36*
X439500Y338598D02*
X437549Y338210D01*
X435895Y337105D01*
X434790Y335451D01*
X434402Y333500D01*
X434790Y331549D01*
X435895Y329895D01*
X437549Y328790D01*
X439500Y328402D01*
X441451Y328790D01*
X443105Y329895D01*
X444210Y331549D01*
X444598Y333500D01*
X444210Y335451D01*
X443105Y337105D01*
X441451Y338210D01*
X439500Y338598D01*
D02*
G37*
G36*
X270000Y337097D02*
X268049Y336709D01*
X266395Y335604D01*
X265290Y333950D01*
X264902Y331999D01*
X265290Y330048D01*
X266395Y328395D01*
X268049Y327289D01*
X270000Y326901D01*
X271950Y327289D01*
X273604Y328395D01*
X274709Y330048D01*
X275097Y331999D01*
X274709Y333950D01*
X273604Y335604D01*
X271950Y336709D01*
X270000Y337097D01*
D02*
G37*
G36*
X558100Y328198D02*
X556149Y327810D01*
X554936Y326999D01*
X554050Y326803D01*
X553164Y326999D01*
X551951Y327810D01*
X550000Y328198D01*
X548049Y327810D01*
X546905Y327045D01*
X546000Y326808D01*
X545095Y327045D01*
X543951Y327810D01*
X542000Y328198D01*
X540049Y327810D01*
X538857Y327014D01*
X537604Y326604D01*
X535950Y327709D01*
X533999Y328097D01*
X532048Y327709D01*
X530394Y326604D01*
X529289Y324950D01*
X528901Y322999D01*
X529289Y321049D01*
X530394Y319395D01*
X532048Y318290D01*
X533999Y317901D01*
X535950Y318290D01*
X537141Y319086D01*
X538395Y319495D01*
X540049Y318390D01*
X542000Y318002D01*
X543951Y318390D01*
X545095Y319155D01*
X546000Y319392D01*
X546905Y319155D01*
X548049Y318390D01*
X550000Y318002D01*
X551951Y318390D01*
X553164Y319201D01*
X554050Y319397D01*
X554936Y319201D01*
X556149Y318390D01*
X558100Y318002D01*
X560051Y318390D01*
X561705Y319495D01*
X562810Y321149D01*
X563198Y323100D01*
X562810Y325051D01*
X561705Y326705D01*
X560051Y327810D01*
X558100Y328198D01*
D02*
G37*
G36*
X62000Y336098D02*
X60049Y335710D01*
X58395Y334605D01*
X57290Y332951D01*
X56902Y331000D01*
X57290Y329049D01*
X58395Y327395D01*
X60049Y326290D01*
X62000Y325902D01*
X63951Y326290D01*
X65605Y327395D01*
X66710Y329049D01*
X67098Y331000D01*
X66710Y332951D01*
X65605Y334605D01*
X63951Y335710D01*
X62000Y336098D01*
D02*
G37*
G36*
X598000Y326098D02*
X596049Y325710D01*
X594395Y324605D01*
X593095Y324945D01*
X591951Y325710D01*
X590000Y326098D01*
X588049Y325710D01*
X586395Y324605D01*
X585605D01*
X583951Y325710D01*
X582000Y326098D01*
X580049Y325710D01*
X578395Y324605D01*
X577605D01*
X575951Y325710D01*
X574000Y326098D01*
X572049Y325710D01*
X570395Y324605D01*
X569290Y322951D01*
X568902Y321000D01*
X569290Y319049D01*
X570395Y317395D01*
X572049Y316290D01*
X574000Y315902D01*
X575951Y316290D01*
X577095Y317055D01*
X578000Y317292D01*
X578905Y317055D01*
X580049Y316290D01*
X582000Y315902D01*
X583951Y316290D01*
X585095Y317055D01*
X586000Y317292D01*
X586905Y317055D01*
X588049Y316290D01*
X590000Y315902D01*
X591951Y316290D01*
X593605Y317395D01*
X594905Y317055D01*
X596049Y316290D01*
X598000Y315902D01*
X599951Y316290D01*
X601605Y317395D01*
X602710Y319049D01*
X603098Y321000D01*
X602710Y322951D01*
X601605Y324605D01*
X599951Y325710D01*
X598000Y326098D01*
D02*
G37*
G36*
X180000Y321098D02*
X178049Y320710D01*
X176395Y319605D01*
X175764Y318660D01*
X174236D01*
X173605Y319605D01*
X171951Y320710D01*
X170000Y321098D01*
X168049Y320710D01*
X166395Y319605D01*
X165290Y317951D01*
X164902Y316000D01*
X165290Y314049D01*
X166395Y312395D01*
X168049Y311290D01*
X170000Y310902D01*
X171951Y311290D01*
X173605Y312395D01*
X174236Y313340D01*
X175764D01*
X176395Y312395D01*
X178049Y311290D01*
X180000Y310902D01*
X181951Y311290D01*
X183605Y312395D01*
X184710Y314049D01*
X185098Y316000D01*
X184710Y317951D01*
X183605Y319605D01*
X181951Y320710D01*
X180000Y321098D01*
D02*
G37*
G36*
X302000Y343098D02*
X300049Y342710D01*
X298395Y341605D01*
X297290Y339951D01*
X296902Y338000D01*
X297290Y336049D01*
X298395Y334395D01*
X300049Y333290D01*
X302000Y332902D01*
X303944Y333289D01*
X304290Y331549D01*
X305395Y329895D01*
X307049Y328790D01*
X308314Y328539D01*
X309402Y327500D01*
X309790Y325549D01*
X310895Y323895D01*
X312549Y322790D01*
X313813Y322539D01*
X314857Y321277D01*
X314777Y320875D01*
X315033Y319588D01*
X314044Y318490D01*
X313500Y318598D01*
X311549Y318210D01*
X309895Y317105D01*
X308790Y315451D01*
X308402Y313500D01*
X308790Y311549D01*
X309895Y309895D01*
X311549Y308790D01*
X313500Y308402D01*
X315451Y308790D01*
X317105Y309895D01*
X318210Y311549D01*
X318598Y313500D01*
X318342Y314787D01*
X319331Y315885D01*
X319875Y315777D01*
X321826Y316165D01*
X323480Y317270D01*
X324585Y318924D01*
X324973Y320875D01*
X324585Y322826D01*
X323480Y324480D01*
X321826Y325585D01*
X320562Y325836D01*
X319518Y327098D01*
X319598Y327500D01*
X319210Y329451D01*
X318105Y331105D01*
X316451Y332210D01*
X315186Y332462D01*
X314098Y333500D01*
X313710Y335451D01*
X312605Y337105D01*
X310951Y338210D01*
X309000Y338598D01*
X307056Y338211D01*
X306710Y339951D01*
X305605Y341605D01*
X303951Y342710D01*
X302000Y343098D01*
D02*
G37*
G36*
X235735Y328097D02*
X233785Y327709D01*
X232131Y326604D01*
X231026Y324950D01*
X230637Y322999D01*
X231026Y321049D01*
X232131Y319395D01*
X233785Y318290D01*
X235735Y317901D01*
X237686Y318290D01*
X239340Y319395D01*
X240445Y321049D01*
X240833Y322999D01*
X240445Y324950D01*
X239340Y326604D01*
X237686Y327709D01*
X235735Y328097D01*
D02*
G37*
G36*
X256357Y322455D02*
X254406Y322067D01*
X252752Y320962D01*
X251647Y319308D01*
X251259Y317357D01*
X251647Y315406D01*
X252752Y313752D01*
X254406Y312647D01*
X256357Y312259D01*
X258308Y312647D01*
X259962Y313752D01*
X261067Y315406D01*
X261455Y317357D01*
X261067Y319308D01*
X259962Y320962D01*
X258308Y322067D01*
X256357Y322455D01*
D02*
G37*
G36*
X137960Y322098D02*
X136009Y321710D01*
X134355Y320605D01*
X133250Y318951D01*
X132862Y317000D01*
X133250Y315049D01*
X134355Y313395D01*
X136009Y312290D01*
X137960Y311902D01*
X139911Y312290D01*
X141565Y313395D01*
X142670Y315049D01*
X143058Y317000D01*
X142670Y318951D01*
X141565Y320605D01*
X139911Y321710D01*
X137960Y322098D01*
D02*
G37*
G36*
X39500Y315358D02*
X37354Y314931D01*
X35535Y313715D01*
X34319Y311896D01*
X33892Y309750D01*
X34319Y307604D01*
X34658Y307097D01*
X33743Y306181D01*
X32951Y306710D01*
X31000Y307098D01*
X29049Y306710D01*
X27395Y305605D01*
X26290Y303951D01*
X25902Y302000D01*
X26290Y300049D01*
X27395Y298395D01*
X29049Y297290D01*
X31000Y296902D01*
X32951Y297290D01*
X34605Y298395D01*
X35710Y300049D01*
X36098Y302000D01*
X35710Y303951D01*
X35481Y304293D01*
X36397Y305209D01*
X37354Y304569D01*
X39500Y304142D01*
X41646Y304569D01*
X43465Y305785D01*
X44681Y307604D01*
X45108Y309750D01*
X44681Y311896D01*
X43465Y313715D01*
X41646Y314931D01*
X39500Y315358D01*
D02*
G37*
G36*
X199000Y313598D02*
X197049Y313210D01*
X195395Y312105D01*
X194290Y310451D01*
X193902Y308500D01*
X194290Y306549D01*
X195395Y304895D01*
X197049Y303790D01*
X199000Y303402D01*
X200951Y303790D01*
X202605Y304895D01*
X203710Y306549D01*
X204098Y308500D01*
X203710Y310451D01*
X202605Y312105D01*
X200951Y313210D01*
X199000Y313598D01*
D02*
G37*
G36*
X51000Y311098D02*
X49049Y310710D01*
X47395Y309605D01*
X46290Y307951D01*
X45902Y306000D01*
X46290Y304049D01*
X47395Y302395D01*
X49049Y301290D01*
X51000Y300902D01*
X52951Y301290D01*
X54605Y302395D01*
X55710Y304049D01*
X56098Y306000D01*
X55710Y307951D01*
X54605Y309605D01*
X52951Y310710D01*
X51000Y311098D01*
D02*
G37*
G36*
X308000Y302098D02*
X306049Y301710D01*
X304395Y300605D01*
X303290Y298951D01*
X302902Y297000D01*
X303290Y295049D01*
X304395Y293395D01*
X306049Y292290D01*
X308000Y291902D01*
X309951Y292290D01*
X311605Y293395D01*
X312710Y295049D01*
X313098Y297000D01*
X312710Y298951D01*
X311605Y300605D01*
X309951Y301710D01*
X308000Y302098D01*
D02*
G37*
G36*
X252999Y298097D02*
X251049Y297709D01*
X249395Y296604D01*
X248290Y294950D01*
X247901Y292999D01*
X248290Y291049D01*
X249395Y289395D01*
X251049Y288290D01*
X252999Y287901D01*
X254950Y288290D01*
X256604Y289395D01*
X257709Y291049D01*
X258097Y292999D01*
X257709Y294950D01*
X256604Y296604D01*
X254950Y297709D01*
X252999Y298097D01*
D02*
G37*
G36*
X62000Y296097D02*
X60049Y295709D01*
X58395Y294604D01*
X57290Y292950D01*
X56902Y290999D01*
X57290Y289049D01*
X58395Y287395D01*
X60049Y286290D01*
X62000Y285902D01*
X63951Y286290D01*
X65605Y287395D01*
X66710Y289049D01*
X67098Y290999D01*
X66710Y292950D01*
X65605Y294604D01*
X63951Y295709D01*
X62000Y296097D01*
D02*
G37*
G36*
X523186Y289098D02*
X521235Y288710D01*
X519581Y287605D01*
X518476Y285951D01*
X518088Y284000D01*
X518476Y282049D01*
X519581Y280395D01*
X521235Y279290D01*
X523186Y278902D01*
X525137Y279290D01*
X526791Y280395D01*
X527896Y282049D01*
X528284Y284000D01*
X527896Y285951D01*
X526791Y287605D01*
X525137Y288710D01*
X523186Y289098D01*
D02*
G37*
G36*
X225000Y289097D02*
X223049Y288709D01*
X221395Y287604D01*
X220290Y285950D01*
X219902Y283999D01*
X220290Y282048D01*
X221395Y280395D01*
X223049Y279289D01*
X225000Y278902D01*
X226950Y279289D01*
X228604Y280395D01*
X229709Y282048D01*
X230098Y283999D01*
X229709Y285950D01*
X228604Y287604D01*
X226950Y288709D01*
X225000Y289097D01*
D02*
G37*
G36*
X245800Y286098D02*
X243849Y285710D01*
X242195Y284605D01*
X241090Y282951D01*
X240702Y281000D01*
X241090Y279049D01*
X242195Y277395D01*
X243849Y276290D01*
X245800Y275902D01*
X247750Y276290D01*
X249404Y277395D01*
X250509Y279049D01*
X250898Y281000D01*
X250509Y282951D01*
X249404Y284605D01*
X247750Y285710D01*
X245800Y286098D01*
D02*
G37*
G36*
X306000D02*
X304049Y285710D01*
X302395Y284605D01*
X301290Y282951D01*
X300902Y281000D01*
X301290Y279049D01*
X302395Y277395D01*
X302537Y277301D01*
X302269Y275952D01*
X301049Y275710D01*
X299395Y274605D01*
X298290Y272951D01*
X297902Y271000D01*
X298290Y269049D01*
X299395Y267395D01*
X301049Y266290D01*
X303000Y265902D01*
X304951Y266290D01*
X306605Y267395D01*
X307710Y269049D01*
X308098Y271000D01*
X307710Y272951D01*
X306605Y274605D01*
X306463Y274699D01*
X306731Y276048D01*
X307951Y276290D01*
X309605Y277395D01*
X310710Y279049D01*
X311098Y281000D01*
X310710Y282951D01*
X309605Y284605D01*
X307951Y285710D01*
X306000Y286098D01*
D02*
G37*
G36*
X39500Y273858D02*
X37354Y273431D01*
X35535Y272215D01*
X34319Y270396D01*
X33892Y268250D01*
X34319Y266104D01*
X35535Y264285D01*
X37354Y263069D01*
X39500Y262642D01*
X41646Y263069D01*
X43465Y264285D01*
X44681Y266104D01*
X45108Y268250D01*
X44681Y270396D01*
X43465Y272215D01*
X41646Y273431D01*
X39500Y273858D01*
D02*
G37*
G36*
X484000Y272098D02*
X482049Y271710D01*
X480395Y270605D01*
X479290Y268951D01*
X478902Y267000D01*
X479290Y265049D01*
X480395Y263395D01*
X482049Y262290D01*
X484000Y261902D01*
X485951Y262290D01*
X487605Y263395D01*
X488710Y265049D01*
X489098Y267000D01*
X488710Y268951D01*
X487605Y270605D01*
X485951Y271710D01*
X484000Y272098D01*
D02*
G37*
G36*
X653000Y271098D02*
X651049Y270710D01*
X649395Y269605D01*
X648290Y267951D01*
X647902Y266000D01*
X648290Y264049D01*
X649395Y262395D01*
X651049Y261290D01*
X653000Y260902D01*
X654951Y261290D01*
X656605Y262395D01*
X657710Y264049D01*
X658098Y266000D01*
X657710Y267951D01*
X656605Y269605D01*
X654951Y270710D01*
X653000Y271098D01*
D02*
G37*
G36*
X629000D02*
X627049Y270710D01*
X625395Y269605D01*
X624290Y267951D01*
X623902Y266000D01*
X624290Y264049D01*
X625395Y262395D01*
X627049Y261290D01*
X629000Y260902D01*
X630951Y261290D01*
X632605Y262395D01*
X633710Y264049D01*
X634098Y266000D01*
X633710Y267951D01*
X632605Y269605D01*
X630951Y270710D01*
X629000Y271098D01*
D02*
G37*
G36*
X200000Y278098D02*
X198049Y277710D01*
X196395Y276605D01*
X195290Y274951D01*
X194902Y273000D01*
X195290Y271049D01*
X195995Y269994D01*
X196039Y268946D01*
X195629Y268429D01*
X194395Y267605D01*
X193290Y265951D01*
X192902Y264000D01*
X193290Y262049D01*
X194395Y260395D01*
X196049Y259290D01*
X198000Y258902D01*
X199951Y259290D01*
X201605Y260395D01*
X202710Y262049D01*
X203098Y264000D01*
X202710Y265951D01*
X202005Y267006D01*
X201961Y268054D01*
X202371Y268571D01*
X203605Y269395D01*
X204710Y271049D01*
X205098Y273000D01*
X204710Y274951D01*
X203605Y276605D01*
X201951Y277710D01*
X200000Y278098D01*
D02*
G37*
G36*
X130460Y265034D02*
X128509Y264646D01*
X126855Y263541D01*
X125750Y261887D01*
X125362Y259936D01*
X125750Y257985D01*
X126855Y256332D01*
X128509Y255226D01*
X130460Y254839D01*
X132411Y255226D01*
X134065Y256332D01*
X135170Y257985D01*
X135558Y259936D01*
X135170Y261887D01*
X134065Y263541D01*
X132411Y264646D01*
X130460Y265034D01*
D02*
G37*
G36*
X71000Y250098D02*
X69049Y249710D01*
X67905Y248945D01*
X67000Y248708D01*
X66095Y248945D01*
X64951Y249710D01*
X63000Y250098D01*
X61049Y249710D01*
X59395Y248605D01*
X58290Y246951D01*
X57902Y245000D01*
X58290Y243049D01*
X59395Y241395D01*
X61049Y240290D01*
X63000Y239902D01*
X64951Y240290D01*
X66095Y241055D01*
X67000Y241292D01*
X67905Y241055D01*
X69049Y240290D01*
X71000Y239902D01*
X72951Y240290D01*
X74605Y241395D01*
X75710Y243049D01*
X76098Y245000D01*
X75710Y246951D01*
X74605Y248605D01*
X72951Y249710D01*
X71000Y250098D01*
D02*
G37*
G36*
X261250Y257098D02*
X259299Y256710D01*
X257645Y255605D01*
X256540Y253951D01*
X256152Y252000D01*
X256540Y250049D01*
X257645Y248395D01*
X259299Y247290D01*
X261250Y246902D01*
X263201Y247290D01*
X264855Y248395D01*
X265960Y250049D01*
X266348Y252000D01*
X265960Y253951D01*
X264855Y255605D01*
X263201Y256710D01*
X261250Y257098D01*
D02*
G37*
G36*
X158000Y252098D02*
X156049Y251710D01*
X154395Y250605D01*
X153290Y248951D01*
X152902Y247000D01*
X153290Y245049D01*
X154395Y243395D01*
X156049Y242290D01*
X158000Y241902D01*
X159951Y242290D01*
X161605Y243395D01*
X162710Y245049D01*
X163098Y247000D01*
X162710Y248951D01*
X161605Y250605D01*
X159951Y251710D01*
X158000Y252098D01*
D02*
G37*
G36*
X641000Y249098D02*
X639049Y248710D01*
X637395Y247605D01*
X636290Y245951D01*
X635902Y244000D01*
X636290Y242049D01*
X637395Y240395D01*
X639049Y239290D01*
X641000Y238902D01*
X642951Y239290D01*
X644605Y240395D01*
X645710Y242049D01*
X646098Y244000D01*
X645710Y245951D01*
X644605Y247605D01*
X642951Y248710D01*
X641000Y249098D01*
D02*
G37*
G36*
X311000Y248948D02*
X309049Y248560D01*
X307395Y247455D01*
X306290Y245801D01*
X305902Y243850D01*
X306290Y241899D01*
X307395Y240245D01*
X309049Y239140D01*
X311000Y238752D01*
X312951Y239140D01*
X314605Y240245D01*
X315710Y241899D01*
X316098Y243850D01*
X315710Y245801D01*
X314605Y247455D01*
X312951Y248560D01*
X311000Y248948D01*
D02*
G37*
G36*
X513000Y248098D02*
X511049Y247710D01*
X509395Y246605D01*
X508290Y244951D01*
X507902Y243000D01*
X508290Y241049D01*
X509395Y239395D01*
X510113Y238916D01*
X510463Y237210D01*
X510290Y236951D01*
X509902Y235000D01*
X510290Y233049D01*
X511395Y231395D01*
X513049Y230290D01*
X515000Y229902D01*
X516951Y230290D01*
X518605Y231395D01*
X519710Y233049D01*
X520098Y235000D01*
X519710Y236951D01*
X518605Y238605D01*
X517887Y239084D01*
X517537Y240790D01*
X517710Y241049D01*
X518098Y243000D01*
X517710Y244951D01*
X516605Y246605D01*
X514951Y247710D01*
X513000Y248098D01*
D02*
G37*
G36*
X480000Y240098D02*
X478049Y239710D01*
X476395Y238605D01*
X475290Y236951D01*
X474902Y235000D01*
X475290Y233049D01*
X476395Y231395D01*
X478049Y230290D01*
X480000Y229902D01*
X481951Y230290D01*
X483605Y231395D01*
X484710Y233049D01*
X485098Y235000D01*
X484710Y236951D01*
X483605Y238605D01*
X481951Y239710D01*
X480000Y240098D01*
D02*
G37*
G36*
X224000Y238598D02*
X222049Y238210D01*
X220395Y237105D01*
X219290Y235451D01*
X218902Y233500D01*
X219290Y231549D01*
X220395Y229895D01*
X222049Y228790D01*
X224000Y228402D01*
X225951Y228790D01*
X227605Y229895D01*
X228710Y231549D01*
X229098Y233500D01*
X228710Y235451D01*
X227605Y237105D01*
X225951Y238210D01*
X224000Y238598D01*
D02*
G37*
G36*
X305000Y233098D02*
X303049Y232710D01*
X301395Y231605D01*
X300290Y229951D01*
X299902Y228000D01*
X300290Y226049D01*
X301395Y224395D01*
X303049Y223290D01*
X305000Y222902D01*
X306951Y223290D01*
X308605Y224395D01*
X309710Y226049D01*
X310098Y228000D01*
X309710Y229951D01*
X308605Y231605D01*
X306951Y232710D01*
X305000Y233098D01*
D02*
G37*
G36*
X265000Y232098D02*
X263049Y231710D01*
X261395Y230605D01*
X260290Y228951D01*
X259902Y227000D01*
X260290Y225049D01*
X261395Y223395D01*
X263049Y222290D01*
X265000Y221902D01*
X266951Y222290D01*
X268605Y223395D01*
X269710Y225049D01*
X270098Y227000D01*
X269710Y228951D01*
X268605Y230605D01*
X266951Y231710D01*
X265000Y232098D01*
D02*
G37*
G36*
X72000Y221098D02*
X70049Y220710D01*
X68905Y219945D01*
X68000Y219708D01*
X67095Y219945D01*
X65951Y220710D01*
X64000Y221098D01*
X62049Y220710D01*
X60395Y219605D01*
X59290Y217951D01*
X58902Y216000D01*
X59290Y214049D01*
X60395Y212395D01*
X62049Y211290D01*
X64000Y210902D01*
X65951Y211290D01*
X67095Y212055D01*
X68000Y212292D01*
X68905Y212055D01*
X70049Y211290D01*
X72000Y210902D01*
X73951Y211290D01*
X75605Y212395D01*
X76710Y214049D01*
X77098Y216000D01*
X76710Y217951D01*
X75605Y219605D01*
X73951Y220710D01*
X72000Y221098D01*
D02*
G37*
G36*
X201840Y223598D02*
X199889Y223210D01*
X198235Y222105D01*
X197130Y220451D01*
X196742Y218500D01*
X197130Y216549D01*
X198235Y214895D01*
X199889Y213790D01*
X201840Y213402D01*
X203791Y213790D01*
X205445Y214895D01*
X206550Y216549D01*
X206938Y218500D01*
X206550Y220451D01*
X205445Y222105D01*
X203791Y223210D01*
X201840Y223598D01*
D02*
G37*
G36*
X144000Y223148D02*
X142049Y222760D01*
X140395Y221655D01*
X139290Y220001D01*
X138902Y218050D01*
X139290Y216099D01*
X140395Y214445D01*
X142049Y213340D01*
X144000Y212952D01*
X145951Y213340D01*
X147605Y214445D01*
X148710Y216099D01*
X149098Y218050D01*
X148710Y220001D01*
X147605Y221655D01*
X145951Y222760D01*
X144000Y223148D01*
D02*
G37*
G36*
X255750Y223098D02*
X253799Y222710D01*
X252145Y221605D01*
X251040Y219951D01*
X250652Y218000D01*
X251040Y216049D01*
X252145Y214395D01*
X253799Y213290D01*
X255750Y212902D01*
X257701Y213290D01*
X259355Y214395D01*
X260460Y216049D01*
X260848Y218000D01*
X260460Y219951D01*
X259355Y221605D01*
X257701Y222710D01*
X255750Y223098D01*
D02*
G37*
G36*
X107000Y215098D02*
X105049Y214710D01*
X103395Y213605D01*
X102290Y211951D01*
X101902Y210000D01*
X102290Y208049D01*
X103395Y206395D01*
X105049Y205290D01*
X107000Y204902D01*
X108951Y205290D01*
X110605Y206395D01*
X111710Y208049D01*
X112098Y210000D01*
X111710Y211951D01*
X110605Y213605D01*
X108951Y214710D01*
X107000Y215098D01*
D02*
G37*
G36*
X95000D02*
X93049Y214710D01*
X91395Y213605D01*
X90290Y211951D01*
X89902Y210000D01*
X90290Y208049D01*
X91395Y206395D01*
X93049Y205290D01*
X95000Y204902D01*
X96951Y205290D01*
X98605Y206395D01*
X99710Y208049D01*
X100098Y210000D01*
X99710Y211951D01*
X98605Y213605D01*
X96951Y214710D01*
X95000Y215098D01*
D02*
G37*
G36*
X300500Y208598D02*
X298549Y208210D01*
X296895Y207105D01*
X295790Y205451D01*
X295402Y203500D01*
X295790Y201549D01*
X296895Y199895D01*
X298549Y198790D01*
X300500Y198402D01*
X302451Y198790D01*
X304105Y199895D01*
X305210Y201549D01*
X305598Y203500D01*
X305210Y205451D01*
X304105Y207105D01*
X302451Y208210D01*
X300500Y208598D01*
D02*
G37*
G36*
X172000Y207098D02*
X170049Y206710D01*
X168395Y205605D01*
X167290Y203951D01*
X166902Y202000D01*
X167290Y200049D01*
X168395Y198395D01*
X170049Y197290D01*
X172000Y196902D01*
X173951Y197290D01*
X175605Y198395D01*
X176710Y200049D01*
X177098Y202000D01*
X176710Y203951D01*
X175605Y205605D01*
X173951Y206710D01*
X172000Y207098D01*
D02*
G37*
G36*
X302479Y197098D02*
X300528Y196710D01*
X298874Y195605D01*
X297769Y193951D01*
X297381Y192000D01*
X297769Y190049D01*
X298874Y188395D01*
X300528Y187290D01*
X302479Y186902D01*
X304430Y187290D01*
X306084Y188395D01*
X307189Y190049D01*
X307577Y192000D01*
X307189Y193951D01*
X306084Y195605D01*
X304430Y196710D01*
X302479Y197098D01*
D02*
G37*
G36*
X247516Y195098D02*
X245565Y194710D01*
X243911Y193605D01*
X242806Y191951D01*
X242418Y190000D01*
X242806Y188049D01*
X243911Y186395D01*
X245565Y185290D01*
X247516Y184902D01*
X249466Y185290D01*
X251120Y186395D01*
X252225Y188049D01*
X252613Y190000D01*
X252225Y191951D01*
X251120Y193605D01*
X249466Y194710D01*
X247516Y195098D01*
D02*
G37*
G36*
X320000Y195608D02*
X317854Y195181D01*
X316035Y193965D01*
X314819Y192146D01*
X314392Y190000D01*
X314819Y187854D01*
X316035Y186035D01*
X317854Y184819D01*
X320000Y184392D01*
X322146Y184819D01*
X323965Y186035D01*
X325181Y187854D01*
X325608Y190000D01*
X325181Y192146D01*
X323965Y193965D01*
X322146Y195181D01*
X320000Y195608D01*
D02*
G37*
G36*
X480000Y194098D02*
X478049Y193710D01*
X476395Y192605D01*
X475290Y190951D01*
X474902Y189000D01*
X475290Y187049D01*
X476395Y185395D01*
X478049Y184290D01*
X480000Y183902D01*
X481951Y184290D01*
X483605Y185395D01*
X484710Y187049D01*
X485098Y189000D01*
X484710Y190951D01*
X483605Y192605D01*
X481951Y193710D01*
X480000Y194098D01*
D02*
G37*
G36*
X522436Y193848D02*
X520485Y193460D01*
X518832Y192355D01*
X517726Y190701D01*
X517338Y188750D01*
X517726Y186799D01*
X518832Y185145D01*
X520485Y184040D01*
X522436Y183652D01*
X524387Y184040D01*
X526041Y185145D01*
X527146Y186799D01*
X527534Y188750D01*
X527146Y190701D01*
X526041Y192355D01*
X524387Y193460D01*
X522436Y193848D01*
D02*
G37*
G36*
X263250Y185348D02*
X261299Y184960D01*
X259645Y183855D01*
X258540Y182201D01*
X258152Y180250D01*
X258540Y178299D01*
X259645Y176645D01*
X261299Y175540D01*
X263250Y175152D01*
X265201Y175540D01*
X266855Y176645D01*
X267960Y178299D01*
X268348Y180250D01*
X267960Y182201D01*
X266855Y183855D01*
X265201Y184960D01*
X263250Y185348D01*
D02*
G37*
G36*
X167000Y185098D02*
X165049Y184710D01*
X163395Y183605D01*
X162290Y181951D01*
X161902Y180000D01*
X162290Y178049D01*
X163395Y176395D01*
X165049Y175290D01*
X167000Y174902D01*
X168951Y175290D01*
X170605Y176395D01*
X171710Y178049D01*
X172098Y180000D01*
X171710Y181951D01*
X170605Y183605D01*
X168951Y184710D01*
X167000Y185098D01*
D02*
G37*
G36*
X332000Y184608D02*
X329854Y184181D01*
X328035Y182965D01*
X326819Y181146D01*
X326392Y179000D01*
X326819Y176854D01*
X328035Y175035D01*
X329854Y173819D01*
X332000Y173392D01*
X334146Y173819D01*
X335965Y175035D01*
X337181Y176854D01*
X337608Y179000D01*
X337181Y181146D01*
X335965Y182965D01*
X334146Y184181D01*
X332000Y184608D01*
D02*
G37*
G36*
X402000Y183098D02*
X400049Y182710D01*
X398395Y181605D01*
X397290Y179951D01*
X396902Y178000D01*
X397290Y176049D01*
X398395Y174395D01*
X400049Y173290D01*
X402000Y172902D01*
X403951Y173290D01*
X405605Y174395D01*
X406710Y176049D01*
X407098Y178000D01*
X406710Y179951D01*
X405605Y181605D01*
X403951Y182710D01*
X402000Y183098D01*
D02*
G37*
G36*
X250350Y181748D02*
X248399Y181360D01*
X246745Y180255D01*
X245640Y178601D01*
X245252Y176650D01*
X245640Y174699D01*
X246745Y173045D01*
X248399Y171940D01*
X250350Y171552D01*
X252301Y171940D01*
X253955Y173045D01*
X255060Y174699D01*
X255448Y176650D01*
X255060Y178601D01*
X253955Y180255D01*
X252301Y181360D01*
X250350Y181748D01*
D02*
G37*
G36*
X82000Y183098D02*
X80049Y182710D01*
X78395Y181605D01*
X77290Y179951D01*
X76902Y178000D01*
X77290Y176049D01*
X78055Y174905D01*
X78292Y174000D01*
X78055Y173095D01*
X77290Y171951D01*
X76902Y170000D01*
X77290Y168049D01*
X78395Y166395D01*
X80049Y165290D01*
X82000Y164902D01*
X83951Y165290D01*
X85605Y166395D01*
X86710Y168049D01*
X87098Y170000D01*
X86710Y171951D01*
X85945Y173095D01*
X85708Y174000D01*
X85945Y174905D01*
X86710Y176049D01*
X87098Y178000D01*
X86710Y179951D01*
X85605Y181605D01*
X83951Y182710D01*
X82000Y183098D01*
D02*
G37*
G36*
X502000Y172777D02*
X500049Y172389D01*
X498395Y171284D01*
X497290Y169630D01*
X496902Y167679D01*
X497290Y165728D01*
X498395Y164074D01*
X500049Y162969D01*
X502000Y162581D01*
X503951Y162969D01*
X505605Y164074D01*
X506710Y165728D01*
X507098Y167679D01*
X506710Y169630D01*
X505605Y171284D01*
X503951Y172389D01*
X502000Y172777D01*
D02*
G37*
G36*
X143000Y172098D02*
X141049Y171710D01*
X139395Y170605D01*
X138290Y168951D01*
X137902Y167000D01*
X138290Y165049D01*
X139395Y163395D01*
X141049Y162290D01*
X143000Y161902D01*
X144951Y162290D01*
X146605Y163395D01*
X147710Y165049D01*
X148098Y167000D01*
X147710Y168951D01*
X146605Y170605D01*
X144951Y171710D01*
X143000Y172098D01*
D02*
G37*
G36*
X109000Y167098D02*
X107049Y166710D01*
X105395Y165605D01*
X104290Y163951D01*
X103902Y162000D01*
X104290Y160049D01*
X105395Y158395D01*
X107049Y157290D01*
X109000Y156902D01*
X110951Y157290D01*
X112605Y158395D01*
X113710Y160049D01*
X114098Y162000D01*
X113710Y163951D01*
X112605Y165605D01*
X110951Y166710D01*
X109000Y167098D01*
D02*
G37*
G36*
X510000Y161098D02*
X508049Y160710D01*
X506395Y159605D01*
X505290Y157951D01*
X504902Y156000D01*
X505290Y154049D01*
X506395Y152395D01*
X508049Y151290D01*
X510000Y150902D01*
X511951Y151290D01*
X513605Y152395D01*
X514710Y154049D01*
X515098Y156000D01*
X514710Y157951D01*
X513605Y159605D01*
X511951Y160710D01*
X510000Y161098D01*
D02*
G37*
G36*
X343000Y151098D02*
X341049Y150710D01*
X339395Y149605D01*
X338290Y147951D01*
X337902Y146000D01*
X338290Y144049D01*
X339395Y142395D01*
X341049Y141290D01*
X343000Y140902D01*
X344951Y141290D01*
X346605Y142395D01*
X347710Y144049D01*
X348098Y146000D01*
X347710Y147951D01*
X346605Y149605D01*
X344951Y150710D01*
X343000Y151098D01*
D02*
G37*
G36*
X643250Y151608D02*
X641104Y151181D01*
X639285Y149965D01*
X638069Y148146D01*
X637642Y146000D01*
X638069Y143854D01*
X639285Y142035D01*
X641104Y140819D01*
X643250Y140392D01*
X645396Y140819D01*
X647215Y142035D01*
X648431Y143854D01*
X648858Y146000D01*
X648431Y148146D01*
X647215Y149965D01*
X645396Y151181D01*
X643250Y151608D01*
D02*
G37*
G36*
X185000Y150098D02*
X183049Y149710D01*
X181395Y148604D01*
X180290Y146951D01*
X179902Y145000D01*
X180290Y143049D01*
X181395Y141395D01*
X183049Y140290D01*
X185000Y139902D01*
X186950Y140290D01*
X188604Y141395D01*
X189709Y143049D01*
X190098Y145000D01*
X189709Y146951D01*
X188604Y148604D01*
X186950Y149710D01*
X185000Y150098D01*
D02*
G37*
G36*
X437000Y145848D02*
X435049Y145460D01*
X433395Y144355D01*
X432290Y142701D01*
X431902Y140750D01*
X432290Y138799D01*
X433395Y137145D01*
X435049Y136040D01*
X437000Y135652D01*
X438951Y136040D01*
X440605Y137145D01*
X441710Y138799D01*
X442098Y140750D01*
X441710Y142701D01*
X440605Y144355D01*
X438951Y145460D01*
X437000Y145848D01*
D02*
G37*
G36*
X389000D02*
X387049Y145460D01*
X385395Y144355D01*
X384290Y142701D01*
X383902Y140750D01*
X384290Y138799D01*
X385395Y137145D01*
X387049Y136040D01*
X389000Y135652D01*
X390951Y136040D01*
X392605Y137145D01*
X393710Y138799D01*
X394098Y140750D01*
X393710Y142701D01*
X392605Y144355D01*
X390951Y145460D01*
X389000Y145848D01*
D02*
G37*
G36*
X218000Y143098D02*
X216049Y142710D01*
X214395Y141605D01*
X213290Y139951D01*
X212902Y138000D01*
X213290Y136049D01*
X214395Y134395D01*
X216049Y133290D01*
X218000Y132902D01*
X219951Y133290D01*
X221605Y134395D01*
X222710Y136049D01*
X223098Y138000D01*
X222710Y139951D01*
X221605Y141605D01*
X219951Y142710D01*
X218000Y143098D01*
D02*
G37*
G36*
X23000Y142098D02*
X21049Y141710D01*
X19395Y140605D01*
X18290Y138951D01*
X17902Y137000D01*
X18290Y135049D01*
X19395Y133395D01*
X21049Y132290D01*
X23000Y131902D01*
X24951Y132290D01*
X26605Y133395D01*
X27710Y135049D01*
X28098Y137000D01*
X27710Y138951D01*
X26605Y140605D01*
X24951Y141710D01*
X23000Y142098D01*
D02*
G37*
G36*
X401999Y142098D02*
X400048Y141710D01*
X398394Y140604D01*
X397289Y138951D01*
X396901Y137000D01*
X397289Y135049D01*
X398394Y133395D01*
X400048Y132290D01*
X401999Y131902D01*
X403950Y132290D01*
X405604Y133395D01*
X406709Y135049D01*
X407097Y137000D01*
X406709Y138951D01*
X405604Y140604D01*
X403950Y141710D01*
X401999Y142098D01*
D02*
G37*
G36*
X389250Y127848D02*
X387299Y127460D01*
X385645Y126355D01*
X384804Y125095D01*
X383977Y124757D01*
X383270Y124827D01*
X381950Y125710D01*
X379999Y126098D01*
X378048Y125710D01*
X376394Y124605D01*
X375289Y122951D01*
X374901Y121000D01*
X375289Y119049D01*
X376394Y117395D01*
X378048Y116290D01*
X379999Y115902D01*
X381950Y116290D01*
X383604Y117395D01*
X384446Y118654D01*
X385272Y118993D01*
X385979Y118922D01*
X387299Y118040D01*
X389250Y117652D01*
X391201Y118040D01*
X392855Y119145D01*
X393960Y120799D01*
X394348Y122750D01*
X393960Y124701D01*
X392855Y126355D01*
X391201Y127460D01*
X389250Y127848D01*
D02*
G37*
G36*
X421000Y133748D02*
X419049Y133360D01*
X417395Y132255D01*
X416290Y130601D01*
X415902Y128650D01*
X416290Y126699D01*
X417395Y125045D01*
X419049Y123940D01*
X421000Y123552D01*
X422951Y123940D01*
X424605Y125045D01*
X425710Y126699D01*
X426098Y128650D01*
X425710Y130601D01*
X424605Y132255D01*
X422951Y133360D01*
X421000Y133748D01*
D02*
G37*
G36*
X49750Y133348D02*
X47799Y132960D01*
X46145Y131855D01*
X45040Y130201D01*
X44652Y128250D01*
X45040Y126299D01*
X46145Y124645D01*
X47799Y123540D01*
X49750Y123152D01*
X51701Y123540D01*
X53355Y124645D01*
X54460Y126299D01*
X54848Y128250D01*
X54460Y130201D01*
X53355Y131855D01*
X51701Y132960D01*
X49750Y133348D01*
D02*
G37*
G36*
X75000Y133098D02*
X73049Y132710D01*
X71395Y131605D01*
X70290Y129951D01*
X69902Y128000D01*
X70290Y126049D01*
X71395Y124395D01*
X73049Y123290D01*
X75000Y122902D01*
X76951Y123290D01*
X78605Y124395D01*
X79710Y126049D01*
X80098Y128000D01*
X79710Y129951D01*
X78605Y131605D01*
X76951Y132710D01*
X75000Y133098D01*
D02*
G37*
G36*
X639250Y124848D02*
X637299Y124460D01*
X635645Y123355D01*
X634540Y121701D01*
X634152Y119750D01*
X634540Y117799D01*
X635645Y116145D01*
X637299Y115040D01*
X639250Y114652D01*
X641201Y115040D01*
X642855Y116145D01*
X643960Y117799D01*
X644348Y119750D01*
X643960Y121701D01*
X642855Y123355D01*
X641201Y124460D01*
X639250Y124848D01*
D02*
G37*
G36*
X479400Y130150D02*
X460400D01*
Y111150D01*
X479400D01*
Y130150D01*
D02*
G37*
G36*
X596900Y130232D02*
X594420Y129906D01*
X592109Y128948D01*
X590125Y127425D01*
X588602Y125441D01*
X587645Y123130D01*
X587318Y120650D01*
X587645Y118170D01*
X588602Y115859D01*
X590125Y113875D01*
X592109Y112352D01*
X594420Y111395D01*
X596900Y111068D01*
X599380Y111395D01*
X601691Y112352D01*
X603675Y113875D01*
X605198Y115859D01*
X606156Y118170D01*
X606482Y120650D01*
X606156Y123130D01*
X605198Y125441D01*
X603675Y127425D01*
X601691Y128948D01*
X599380Y129906D01*
X596900Y130232D01*
D02*
G37*
G36*
X571500D02*
X569020Y129906D01*
X566709Y128948D01*
X564725Y127425D01*
X563202Y125441D01*
X562244Y123130D01*
X561918Y120650D01*
X562244Y118170D01*
X563202Y115859D01*
X564725Y113875D01*
X566709Y112352D01*
X569020Y111395D01*
X571500Y111068D01*
X573980Y111395D01*
X576291Y112352D01*
X578275Y113875D01*
X579798Y115859D01*
X580756Y118170D01*
X581082Y120650D01*
X580756Y123130D01*
X579798Y125441D01*
X578275Y127425D01*
X576291Y128948D01*
X573980Y129906D01*
X571500Y130232D01*
D02*
G37*
G36*
X546100D02*
X543620Y129906D01*
X541309Y128948D01*
X539324Y127425D01*
X537802Y125441D01*
X536844Y123130D01*
X536518Y120650D01*
X536844Y118170D01*
X537802Y115859D01*
X539324Y113875D01*
X541309Y112352D01*
X543620Y111395D01*
X546100Y111068D01*
X548580Y111395D01*
X550891Y112352D01*
X552875Y113875D01*
X554398Y115859D01*
X555355Y118170D01*
X555682Y120650D01*
X555355Y123130D01*
X554398Y125441D01*
X552875Y127425D01*
X550891Y128948D01*
X548580Y129906D01*
X546100Y130232D01*
D02*
G37*
G36*
X520700D02*
X518220Y129906D01*
X515909Y128948D01*
X513924Y127425D01*
X512402Y125441D01*
X511445Y123130D01*
X511118Y120650D01*
X511445Y118170D01*
X512402Y115859D01*
X513924Y113875D01*
X515909Y112352D01*
X518220Y111395D01*
X520700Y111068D01*
X523180Y111395D01*
X525491Y112352D01*
X527475Y113875D01*
X528998Y115859D01*
X529955Y118170D01*
X530282Y120650D01*
X529955Y123130D01*
X528998Y125441D01*
X527475Y127425D01*
X525491Y128948D01*
X523180Y129906D01*
X520700Y130232D01*
D02*
G37*
G36*
X495300D02*
X492820Y129906D01*
X490509Y128948D01*
X488525Y127425D01*
X487002Y125441D01*
X486045Y123130D01*
X485718Y120650D01*
X486045Y118170D01*
X487002Y115859D01*
X488525Y113875D01*
X490509Y112352D01*
X492820Y111395D01*
X495300Y111068D01*
X497780Y111395D01*
X500091Y112352D01*
X502075Y113875D01*
X503598Y115859D01*
X504556Y118170D01*
X504882Y120650D01*
X504556Y123130D01*
X503598Y125441D01*
X502075Y127425D01*
X500091Y128948D01*
X497780Y129906D01*
X495300Y130232D01*
D02*
G37*
G36*
X268000Y119098D02*
X266049Y118710D01*
X264395Y117605D01*
X263290Y115951D01*
X262902Y114000D01*
X263290Y112049D01*
X264395Y110395D01*
X266049Y109290D01*
X268000Y108902D01*
X269951Y109290D01*
X271605Y110395D01*
X272710Y112049D01*
X273098Y114000D01*
X272710Y115951D01*
X271605Y117605D01*
X269951Y118710D01*
X268000Y119098D01*
D02*
G37*
G36*
X100000Y124098D02*
X98049Y123710D01*
X96395Y122605D01*
X95290Y120951D01*
X94902Y119000D01*
X95290Y117049D01*
X96055Y115905D01*
X96292Y115000D01*
X96055Y114095D01*
X95290Y112951D01*
X94902Y111000D01*
X95290Y109049D01*
X96395Y107395D01*
X98049Y106290D01*
X100000Y105902D01*
X101951Y106290D01*
X103605Y107395D01*
X104710Y109049D01*
X105098Y111000D01*
X104710Y112951D01*
X103945Y114095D01*
X103708Y115000D01*
X103945Y115905D01*
X104710Y117049D01*
X105098Y119000D01*
X104710Y120951D01*
X103605Y122605D01*
X101951Y123710D01*
X100000Y124098D01*
D02*
G37*
G36*
X168000Y115608D02*
X165854Y115181D01*
X164035Y113965D01*
X162819Y112146D01*
X162392Y110000D01*
X162819Y107854D01*
X164035Y106035D01*
X165854Y104819D01*
X168000Y104392D01*
X170146Y104819D01*
X171965Y106035D01*
X173181Y107854D01*
X173608Y110000D01*
X173181Y112146D01*
X171965Y113965D01*
X170146Y115181D01*
X168000Y115608D01*
D02*
G37*
G36*
X252000Y112098D02*
X250049Y111710D01*
X248395Y110605D01*
X247290Y108951D01*
X246902Y107000D01*
X247290Y105049D01*
X248395Y103395D01*
X250049Y102290D01*
X252000Y101902D01*
X253951Y102290D01*
X255605Y103395D01*
X256710Y105049D01*
X257098Y107000D01*
X256710Y108951D01*
X255605Y110605D01*
X253951Y111710D01*
X252000Y112098D01*
D02*
G37*
G36*
X234000D02*
X232049Y111710D01*
X230395Y110605D01*
X229290Y108951D01*
X228902Y107000D01*
X229290Y105049D01*
X230395Y103395D01*
X232049Y102290D01*
X234000Y101902D01*
X235951Y102290D01*
X237605Y103395D01*
X238710Y105049D01*
X239098Y107000D01*
X238710Y108951D01*
X237605Y110605D01*
X235951Y111710D01*
X234000Y112098D01*
D02*
G37*
G36*
X243000Y104098D02*
X241049Y103710D01*
X239395Y102605D01*
X238290Y100951D01*
X237902Y99000D01*
X238290Y97049D01*
X239395Y95395D01*
X241049Y94290D01*
X243000Y93902D01*
X244951Y94290D01*
X246605Y95395D01*
X247710Y97049D01*
X248098Y99000D01*
X247710Y100951D01*
X246605Y102605D01*
X244951Y103710D01*
X243000Y104098D01*
D02*
G37*
G36*
X21250Y99567D02*
X19500D01*
Y93250D01*
X28869D01*
X28800Y93773D01*
X28020Y95658D01*
X26777Y97277D01*
X25158Y98520D01*
X23273Y99300D01*
X21250Y99567D01*
D02*
G37*
G36*
X16500D02*
X14750D01*
X12727Y99300D01*
X10842Y98520D01*
X9223Y97277D01*
X7980Y95658D01*
X7200Y93773D01*
X7131Y93250D01*
X16500D01*
Y99567D01*
D02*
G37*
G36*
X341000Y102348D02*
X339049Y101960D01*
X337395Y100855D01*
X336290Y99201D01*
X335902Y97250D01*
X336290Y95299D01*
X337395Y93645D01*
X339049Y92540D01*
X341000Y92152D01*
X342951Y92540D01*
X344605Y93645D01*
X345710Y95299D01*
X346098Y97250D01*
X345710Y99201D01*
X344605Y100855D01*
X342951Y101960D01*
X341000Y102348D01*
D02*
G37*
G36*
X58750Y99580D02*
X57500D01*
Y91750D01*
X67882D01*
X67762Y92665D01*
X66830Y94915D01*
X65347Y96847D01*
X63415Y98330D01*
X61165Y99262D01*
X58750Y99580D01*
D02*
G37*
G36*
X54500D02*
X53250D01*
X50835Y99262D01*
X48585Y98330D01*
X46653Y96847D01*
X45170Y94915D01*
X44238Y92665D01*
X44118Y91750D01*
X54500D01*
Y99580D01*
D02*
G37*
G36*
X168000Y102608D02*
X165854Y102181D01*
X164035Y100965D01*
X162819Y99146D01*
X162392Y97000D01*
X162819Y94854D01*
X164035Y93035D01*
X165854Y91819D01*
X168000Y91392D01*
X170146Y91819D01*
X171965Y93035D01*
X173181Y94854D01*
X173608Y97000D01*
X173181Y99146D01*
X171965Y100965D01*
X170146Y102181D01*
X168000Y102608D01*
D02*
G37*
G36*
X479400Y104750D02*
X460400D01*
Y85750D01*
X479400D01*
Y104750D01*
D02*
G37*
G36*
X596900Y104832D02*
X594420Y104506D01*
X592109Y103548D01*
X590125Y102025D01*
X588602Y100041D01*
X587645Y97730D01*
X587318Y95250D01*
X587645Y92770D01*
X588602Y90459D01*
X590125Y88475D01*
X592109Y86952D01*
X594420Y85995D01*
X596900Y85668D01*
X599380Y85995D01*
X601691Y86952D01*
X603675Y88475D01*
X605198Y90459D01*
X606156Y92770D01*
X606482Y95250D01*
X606156Y97730D01*
X605198Y100041D01*
X603675Y102025D01*
X601691Y103548D01*
X599380Y104506D01*
X596900Y104832D01*
D02*
G37*
G36*
X571500D02*
X569020Y104506D01*
X566709Y103548D01*
X564725Y102025D01*
X563202Y100041D01*
X562244Y97730D01*
X561918Y95250D01*
X562244Y92770D01*
X563202Y90459D01*
X564725Y88475D01*
X566709Y86952D01*
X569020Y85995D01*
X571500Y85668D01*
X573980Y85995D01*
X576291Y86952D01*
X578275Y88475D01*
X579798Y90459D01*
X580756Y92770D01*
X581082Y95250D01*
X580756Y97730D01*
X579798Y100041D01*
X578275Y102025D01*
X576291Y103548D01*
X573980Y104506D01*
X571500Y104832D01*
D02*
G37*
G36*
X546100D02*
X543620Y104506D01*
X541309Y103548D01*
X539324Y102025D01*
X537802Y100041D01*
X536844Y97730D01*
X536518Y95250D01*
X536844Y92770D01*
X537802Y90459D01*
X539324Y88475D01*
X541309Y86952D01*
X543620Y85995D01*
X546100Y85668D01*
X548580Y85995D01*
X550891Y86952D01*
X552875Y88475D01*
X554398Y90459D01*
X555355Y92770D01*
X555682Y95250D01*
X555355Y97730D01*
X554398Y100041D01*
X552875Y102025D01*
X550891Y103548D01*
X548580Y104506D01*
X546100Y104832D01*
D02*
G37*
G36*
X520700D02*
X518220Y104506D01*
X515909Y103548D01*
X513924Y102025D01*
X512402Y100041D01*
X511445Y97730D01*
X511118Y95250D01*
X511445Y92770D01*
X512402Y90459D01*
X513924Y88475D01*
X515909Y86952D01*
X518220Y85995D01*
X520700Y85668D01*
X523180Y85995D01*
X525491Y86952D01*
X527475Y88475D01*
X528998Y90459D01*
X529955Y92770D01*
X530282Y95250D01*
X529955Y97730D01*
X528998Y100041D01*
X527475Y102025D01*
X525491Y103548D01*
X523180Y104506D01*
X520700Y104832D01*
D02*
G37*
G36*
X495300D02*
X492820Y104506D01*
X490509Y103548D01*
X488525Y102025D01*
X487002Y100041D01*
X486045Y97730D01*
X485718Y95250D01*
X486045Y92770D01*
X487002Y90459D01*
X488525Y88475D01*
X490509Y86952D01*
X492820Y85995D01*
X495300Y85668D01*
X497780Y85995D01*
X500091Y86952D01*
X502075Y88475D01*
X503598Y90459D01*
X504556Y92770D01*
X504882Y95250D01*
X504556Y97730D01*
X503598Y100041D01*
X502075Y102025D01*
X500091Y103548D01*
X497780Y104506D01*
X495300Y104832D01*
D02*
G37*
G36*
X28869Y90250D02*
X19500D01*
Y83933D01*
X21250D01*
X23273Y84199D01*
X25158Y84980D01*
X26777Y86223D01*
X28020Y87842D01*
X28800Y89727D01*
X28869Y90250D01*
D02*
G37*
G36*
X16500D02*
X7131D01*
X7200Y89727D01*
X7980Y87842D01*
X9223Y86223D01*
X10842Y84980D01*
X12727Y84199D01*
X14750Y83933D01*
X16500D01*
Y90250D01*
D02*
G37*
G36*
X67882Y88750D02*
X57500D01*
Y80920D01*
X58750D01*
X61165Y81238D01*
X63415Y82170D01*
X65347Y83653D01*
X66830Y85585D01*
X67762Y87835D01*
X67882Y88750D01*
D02*
G37*
G36*
X54500D02*
X44118D01*
X44238Y87835D01*
X45170Y85585D01*
X45356Y85343D01*
X44802Y83979D01*
X43159Y83652D01*
X41174Y82326D01*
X39848Y80341D01*
X39383Y78000D01*
X39848Y75659D01*
X41174Y73674D01*
X43159Y72348D01*
X44467Y72088D01*
Y70793D01*
X44049Y70710D01*
X42395Y69605D01*
X41290Y67951D01*
X40902Y66000D01*
X41290Y64049D01*
X42395Y62395D01*
X44049Y61290D01*
X46000Y60902D01*
X47951Y61290D01*
X49605Y62395D01*
X50710Y64049D01*
X51098Y66000D01*
X50710Y67951D01*
X49605Y69605D01*
X47951Y70710D01*
X47033Y70893D01*
Y72187D01*
X47841Y72348D01*
X49826Y73674D01*
X49989Y73918D01*
X51185Y73422D01*
X50902Y72000D01*
X51290Y70049D01*
X52395Y68395D01*
X54049Y67290D01*
X56000Y66902D01*
X57951Y67290D01*
X59605Y68395D01*
X60710Y70049D01*
X61098Y72000D01*
X60710Y73951D01*
X59605Y75605D01*
X57951Y76710D01*
X56000Y77098D01*
X54049Y76710D01*
X52442Y75636D01*
X52234Y75687D01*
X51257Y76187D01*
X51617Y78000D01*
X51239Y79904D01*
X51928Y80872D01*
X52200Y81058D01*
X53250Y80920D01*
X54500D01*
Y88750D01*
D02*
G37*
G36*
X108500Y86098D02*
X106549Y85710D01*
X104895Y84605D01*
X103790Y82951D01*
X103402Y81000D01*
X103790Y79049D01*
X104895Y77395D01*
X106549Y76290D01*
X108500Y75902D01*
X110451Y76290D01*
X112105Y77395D01*
X113210Y79049D01*
X113598Y81000D01*
X113210Y82951D01*
X112105Y84605D01*
X110451Y85710D01*
X108500Y86098D01*
D02*
G37*
G36*
X95000D02*
X93049Y85710D01*
X91395Y84605D01*
X90290Y82951D01*
X89902Y81000D01*
X90290Y79049D01*
X91395Y77395D01*
X93049Y76290D01*
X95000Y75902D01*
X96951Y76290D01*
X98605Y77395D01*
X99710Y79049D01*
X100098Y81000D01*
X99710Y82951D01*
X98605Y84605D01*
X96951Y85710D01*
X95000Y86098D01*
D02*
G37*
G36*
X350000Y82348D02*
X348049Y81960D01*
X346395Y80855D01*
X345290Y79201D01*
X344902Y77250D01*
X345290Y75299D01*
X346395Y73645D01*
X348049Y72540D01*
X350000Y72152D01*
X351951Y72540D01*
X353605Y73645D01*
X354710Y75299D01*
X355098Y77250D01*
X354710Y79201D01*
X353605Y80855D01*
X351951Y81960D01*
X350000Y82348D01*
D02*
G37*
G36*
X598400Y79234D02*
Y71350D01*
X606284D01*
X606156Y72330D01*
X605198Y74641D01*
X603675Y76625D01*
X601691Y78148D01*
X599380Y79106D01*
X598400Y79234D01*
D02*
G37*
G36*
X595400D02*
X594420Y79106D01*
X592109Y78148D01*
X590125Y76625D01*
X588602Y74641D01*
X587645Y72330D01*
X587515Y71350D01*
X595400D01*
Y79234D01*
D02*
G37*
G36*
X573000D02*
Y71350D01*
X580885D01*
X580756Y72330D01*
X579798Y74641D01*
X578275Y76625D01*
X576291Y78148D01*
X573980Y79106D01*
X573000Y79234D01*
D02*
G37*
G36*
X570000D02*
X569020Y79106D01*
X566709Y78148D01*
X564725Y76625D01*
X563202Y74641D01*
X562244Y72330D01*
X562116Y71350D01*
X570000D01*
Y79234D01*
D02*
G37*
G36*
X547600D02*
Y71350D01*
X555485D01*
X555355Y72330D01*
X554398Y74641D01*
X552875Y76625D01*
X550891Y78148D01*
X548580Y79106D01*
X547600Y79234D01*
D02*
G37*
G36*
X544600D02*
X543620Y79106D01*
X541309Y78148D01*
X539324Y76625D01*
X537802Y74641D01*
X536844Y72330D01*
X536716Y71350D01*
X544600D01*
Y79234D01*
D02*
G37*
G36*
X522200D02*
Y71350D01*
X530084D01*
X529955Y72330D01*
X528998Y74641D01*
X527475Y76625D01*
X525491Y78148D01*
X523180Y79106D01*
X522200Y79234D01*
D02*
G37*
G36*
X519200D02*
X518220Y79106D01*
X515909Y78148D01*
X513924Y76625D01*
X512402Y74641D01*
X511445Y72330D01*
X511315Y71350D01*
X519200D01*
Y79234D01*
D02*
G37*
G36*
X496800D02*
Y71350D01*
X504684D01*
X504556Y72330D01*
X503598Y74641D01*
X502075Y76625D01*
X500091Y78148D01*
X497780Y79106D01*
X496800Y79234D01*
D02*
G37*
G36*
X493800D02*
X492820Y79106D01*
X490509Y78148D01*
X488525Y76625D01*
X487002Y74641D01*
X486045Y72330D01*
X485915Y71350D01*
X493800D01*
Y79234D01*
D02*
G37*
G36*
X479400Y79350D02*
X471400D01*
Y71350D01*
X479400D01*
Y79350D01*
D02*
G37*
G36*
X468400D02*
X460400D01*
Y71350D01*
X468400D01*
Y79350D01*
D02*
G37*
G36*
X313000Y73098D02*
X311049Y72710D01*
X309395Y71605D01*
X308290Y69951D01*
X307902Y68000D01*
X308290Y66049D01*
X309395Y64395D01*
X311049Y63290D01*
X313000Y62902D01*
X314951Y63290D01*
X316605Y64395D01*
X317710Y66049D01*
X318098Y68000D01*
X317710Y69951D01*
X316605Y71605D01*
X314951Y72710D01*
X313000Y73098D01*
D02*
G37*
G36*
X66000Y71098D02*
X64049Y70710D01*
X62395Y69605D01*
X61290Y67951D01*
X60902Y66000D01*
X61290Y64049D01*
X62395Y62395D01*
X64049Y61290D01*
X66000Y60902D01*
X67951Y61290D01*
X69605Y62395D01*
X70710Y64049D01*
X71098Y66000D01*
X70710Y67951D01*
X69605Y69605D01*
X67951Y70710D01*
X66000Y71098D01*
D02*
G37*
G36*
X606284Y68350D02*
X598400D01*
Y60465D01*
X599380Y60595D01*
X601691Y61552D01*
X603675Y63074D01*
X605198Y65059D01*
X606156Y67370D01*
X606284Y68350D01*
D02*
G37*
G36*
X595400D02*
X587515D01*
X587645Y67370D01*
X588602Y65059D01*
X590125Y63074D01*
X592109Y61552D01*
X594420Y60595D01*
X595400Y60465D01*
Y68350D01*
D02*
G37*
G36*
X580885D02*
X573000D01*
Y60465D01*
X573980Y60595D01*
X576291Y61552D01*
X578275Y63074D01*
X579798Y65059D01*
X580756Y67370D01*
X580885Y68350D01*
D02*
G37*
G36*
X570000D02*
X562116D01*
X562244Y67370D01*
X563202Y65059D01*
X564725Y63074D01*
X566709Y61552D01*
X569020Y60595D01*
X570000Y60465D01*
Y68350D01*
D02*
G37*
G36*
X555485D02*
X547600D01*
Y60465D01*
X548580Y60595D01*
X550891Y61552D01*
X552875Y63074D01*
X554398Y65059D01*
X555355Y67370D01*
X555485Y68350D01*
D02*
G37*
G36*
X544600D02*
X536716D01*
X536844Y67370D01*
X537802Y65059D01*
X539324Y63074D01*
X541309Y61552D01*
X543620Y60595D01*
X544600Y60465D01*
Y68350D01*
D02*
G37*
G36*
X530084D02*
X522200D01*
Y60465D01*
X523180Y60595D01*
X525491Y61552D01*
X527475Y63074D01*
X528998Y65059D01*
X529955Y67370D01*
X530084Y68350D01*
D02*
G37*
G36*
X519200D02*
X511315D01*
X511445Y67370D01*
X512402Y65059D01*
X513924Y63074D01*
X515909Y61552D01*
X518220Y60595D01*
X519200Y60465D01*
Y68350D01*
D02*
G37*
G36*
X504684D02*
X496800D01*
Y60465D01*
X497780Y60595D01*
X500091Y61552D01*
X502075Y63074D01*
X503598Y65059D01*
X504556Y67370D01*
X504684Y68350D01*
D02*
G37*
G36*
X493800D02*
X485915D01*
X486045Y67370D01*
X487002Y65059D01*
X488525Y63074D01*
X490509Y61552D01*
X492820Y60595D01*
X493800Y60465D01*
Y68350D01*
D02*
G37*
G36*
X479400D02*
X471400D01*
Y60350D01*
X479400D01*
Y68350D01*
D02*
G37*
G36*
X468400D02*
X460400D01*
Y60350D01*
X468400D01*
Y68350D01*
D02*
G37*
G36*
X258000Y70098D02*
X256049Y69710D01*
X254395Y68605D01*
X253290Y66951D01*
X252902Y65000D01*
X253290Y63049D01*
X254395Y61395D01*
X256049Y60290D01*
X258000Y59902D01*
X258049Y58710D01*
X256395Y57605D01*
X255290Y55951D01*
X254902Y54000D01*
X255290Y52049D01*
X256395Y50395D01*
X258049Y49290D01*
X258208Y49258D01*
X258476Y47910D01*
X257645Y47355D01*
X256540Y45701D01*
X256152Y43750D01*
X256540Y41799D01*
X257645Y40145D01*
X259299Y39040D01*
X261250Y38652D01*
X263201Y39040D01*
X264855Y40145D01*
X265960Y41799D01*
X266348Y43750D01*
X265960Y45701D01*
X264855Y47355D01*
X263201Y48460D01*
X263042Y48492D01*
X262774Y49840D01*
X263605Y50395D01*
X264710Y52049D01*
X265098Y54000D01*
X264758Y55710D01*
X265347Y56305D01*
X265787Y56549D01*
X266549Y56040D01*
X268500Y55652D01*
X270451Y56040D01*
X272105Y57145D01*
X272653Y57966D01*
X274181D01*
X274395Y57645D01*
X276049Y56540D01*
X278000Y56152D01*
X279951Y56540D01*
X281605Y57645D01*
X282710Y59299D01*
X283098Y61250D01*
X282710Y63201D01*
X281605Y64855D01*
X279951Y65960D01*
X278000Y66348D01*
X276049Y65960D01*
X274395Y64855D01*
X273847Y64034D01*
X272319D01*
X272105Y64355D01*
X270451Y65460D01*
X268500Y65848D01*
X266549Y65460D01*
X264895Y64355D01*
X264235Y63367D01*
X263997Y63011D01*
X262801Y63506D01*
X262882Y63913D01*
X263098Y65000D01*
X262710Y66951D01*
X261605Y68605D01*
X259951Y69710D01*
X258000Y70098D01*
D02*
G37*
G36*
X95000Y55848D02*
X93049Y55460D01*
X91395Y54355D01*
X90290Y52701D01*
X89902Y50750D01*
X90290Y48799D01*
X91395Y47145D01*
X93049Y46040D01*
X95000Y45652D01*
X96951Y46040D01*
X98605Y47145D01*
X99710Y48799D01*
X100098Y50750D01*
X99710Y52701D01*
X98605Y54355D01*
X96951Y55460D01*
X95000Y55848D01*
D02*
G37*
G36*
X109000Y54098D02*
X107049Y53710D01*
X105395Y52605D01*
X104290Y50951D01*
X103902Y49000D01*
X104290Y47049D01*
X105395Y45395D01*
X107049Y44290D01*
X109000Y43902D01*
X110951Y44290D01*
X112605Y45395D01*
X113710Y47049D01*
X114098Y49000D01*
X113710Y50951D01*
X112605Y52605D01*
X110951Y53710D01*
X109000Y54098D01*
D02*
G37*
G36*
X293625Y52098D02*
X291674Y51710D01*
X290020Y50605D01*
X288915Y48951D01*
X288527Y47000D01*
X288915Y45049D01*
X290020Y43395D01*
X291674Y42290D01*
X293625Y41902D01*
X295576Y42290D01*
X297230Y43395D01*
X298335Y45049D01*
X298723Y47000D01*
X298335Y48951D01*
X297230Y50605D01*
X295576Y51710D01*
X293625Y52098D01*
D02*
G37*
G36*
X287250Y38848D02*
X285299Y38460D01*
X283645Y37355D01*
X283264Y36784D01*
X281736D01*
X281355Y37355D01*
X279701Y38460D01*
X277750Y38848D01*
X275799Y38460D01*
X274145Y37355D01*
X273760Y36778D01*
X272490D01*
X272105Y37355D01*
X270451Y38460D01*
X268500Y38848D01*
X266549Y38460D01*
X264895Y37355D01*
X263790Y35701D01*
X263402Y33750D01*
X263790Y31799D01*
X264895Y30145D01*
X266549Y29040D01*
X268500Y28652D01*
X270451Y29040D01*
X272105Y30145D01*
X272490Y30722D01*
X273760D01*
X274145Y30145D01*
X275799Y29040D01*
X277750Y28652D01*
X279701Y29040D01*
X281355Y30145D01*
X281736Y30716D01*
X283264D01*
X283645Y30145D01*
X285299Y29040D01*
X287250Y28652D01*
X289201Y29040D01*
X290855Y30145D01*
X291960Y31799D01*
X292348Y33750D01*
X291960Y35701D01*
X290855Y37355D01*
X289201Y38460D01*
X287250Y38848D01*
D02*
G37*
G36*
X433300Y34785D02*
Y26900D01*
X441185D01*
X441055Y27880D01*
X440098Y30191D01*
X438575Y32175D01*
X436591Y33698D01*
X434280Y34655D01*
X433300Y34785D01*
D02*
G37*
G36*
X430300D02*
X429320Y34655D01*
X427009Y33698D01*
X425024Y32175D01*
X423502Y30191D01*
X422545Y27880D01*
X422416Y26900D01*
X430300D01*
Y34785D01*
D02*
G37*
G36*
X407900D02*
Y26900D01*
X415784D01*
X415656Y27880D01*
X414698Y30191D01*
X413176Y32175D01*
X411191Y33698D01*
X408880Y34655D01*
X407900Y34785D01*
D02*
G37*
G36*
X404900D02*
X403920Y34655D01*
X401609Y33698D01*
X399624Y32175D01*
X398102Y30191D01*
X397145Y27880D01*
X397015Y26900D01*
X404900D01*
Y34785D01*
D02*
G37*
G36*
X226000Y39056D02*
X224303Y38833D01*
X222722Y38178D01*
X221364Y37136D01*
X220322Y35778D01*
X219667Y34197D01*
X219444Y32500D01*
X219667Y30803D01*
X220322Y29222D01*
X221364Y27864D01*
X222722Y26822D01*
X224303Y26167D01*
X226000Y25944D01*
X227697Y26167D01*
X229278Y26822D01*
X230636Y27864D01*
X231678Y29222D01*
X232333Y30803D01*
X232556Y32500D01*
X232333Y34197D01*
X231678Y35778D01*
X230636Y37136D01*
X229278Y38178D01*
X227697Y38833D01*
X226000Y39056D01*
D02*
G37*
G36*
X196000D02*
X194303Y38833D01*
X192722Y38178D01*
X191364Y37136D01*
X190322Y35778D01*
X189667Y34197D01*
X189444Y32500D01*
X189667Y30803D01*
X190322Y29222D01*
X191364Y27864D01*
X192722Y26822D01*
X194303Y26167D01*
X196000Y25944D01*
X197697Y26167D01*
X199278Y26822D01*
X200636Y27864D01*
X201678Y29222D01*
X202333Y30803D01*
X202556Y32500D01*
X202333Y34197D01*
X201678Y35778D01*
X200636Y37136D01*
X199278Y38178D01*
X197697Y38833D01*
X196000Y39056D01*
D02*
G37*
G36*
X58750Y25080D02*
X57500D01*
Y17250D01*
X67882D01*
X67762Y18165D01*
X66830Y20415D01*
X65347Y22347D01*
X63415Y23830D01*
X61165Y24762D01*
X58750Y25080D01*
D02*
G37*
G36*
X45500Y34118D02*
X43159Y33652D01*
X41174Y32326D01*
X39848Y30341D01*
X39383Y28000D01*
X39848Y25659D01*
X41174Y23674D01*
X43159Y22348D01*
X44802Y22021D01*
X45356Y20657D01*
X45170Y20415D01*
X44238Y18165D01*
X44118Y17250D01*
X54500D01*
Y25080D01*
X53250D01*
X52200Y24942D01*
X51928Y25128D01*
X51239Y26096D01*
X51617Y28000D01*
X51152Y30341D01*
X49826Y32326D01*
X47841Y33652D01*
X45500Y34118D01*
D02*
G37*
G36*
X441185Y23900D02*
X433300D01*
Y16015D01*
X434280Y16144D01*
X436591Y17102D01*
X438575Y18625D01*
X440098Y20609D01*
X441055Y22920D01*
X441185Y23900D01*
D02*
G37*
G36*
X430300D02*
X422416D01*
X422545Y22920D01*
X423502Y20609D01*
X425024Y18625D01*
X427009Y17102D01*
X429320Y16144D01*
X430300Y16015D01*
Y23900D01*
D02*
G37*
G36*
X415784D02*
X407900D01*
Y16015D01*
X408880Y16144D01*
X411191Y17102D01*
X413176Y18625D01*
X414698Y20609D01*
X415656Y22920D01*
X415784Y23900D01*
D02*
G37*
G36*
X404900D02*
X397015D01*
X397145Y22920D01*
X398102Y20609D01*
X399624Y18625D01*
X401609Y17102D01*
X403920Y16144D01*
X404900Y16015D01*
Y23900D01*
D02*
G37*
G36*
X517500Y34900D02*
X498500D01*
Y15900D01*
X517500D01*
Y34900D01*
D02*
G37*
G36*
X339700D02*
X320700D01*
Y15900D01*
X339700D01*
Y34900D01*
D02*
G37*
G36*
X635000Y34982D02*
X632520Y34655D01*
X630209Y33698D01*
X628224Y32175D01*
X626702Y30191D01*
X625745Y27880D01*
X625418Y25400D01*
X625745Y22920D01*
X626702Y20609D01*
X628224Y18625D01*
X630209Y17102D01*
X632520Y16144D01*
X635000Y15818D01*
X637480Y16144D01*
X639791Y17102D01*
X641775Y18625D01*
X643298Y20609D01*
X644256Y22920D01*
X644582Y25400D01*
X644256Y27880D01*
X643298Y30191D01*
X641775Y32175D01*
X639791Y33698D01*
X637480Y34655D01*
X635000Y34982D01*
D02*
G37*
G36*
X609600D02*
X607120Y34655D01*
X604809Y33698D01*
X602825Y32175D01*
X601302Y30191D01*
X600345Y27880D01*
X600018Y25400D01*
X600345Y22920D01*
X601302Y20609D01*
X602825Y18625D01*
X604809Y17102D01*
X607120Y16144D01*
X609600Y15818D01*
X612080Y16144D01*
X614391Y17102D01*
X616375Y18625D01*
X617898Y20609D01*
X618856Y22920D01*
X619182Y25400D01*
X618856Y27880D01*
X617898Y30191D01*
X616375Y32175D01*
X614391Y33698D01*
X612080Y34655D01*
X609600Y34982D01*
D02*
G37*
G36*
X584200D02*
X581720Y34655D01*
X579409Y33698D01*
X577425Y32175D01*
X575902Y30191D01*
X574944Y27880D01*
X574618Y25400D01*
X574944Y22920D01*
X575902Y20609D01*
X577425Y18625D01*
X579409Y17102D01*
X581720Y16144D01*
X584200Y15818D01*
X586680Y16144D01*
X588991Y17102D01*
X590975Y18625D01*
X592498Y20609D01*
X593456Y22920D01*
X593782Y25400D01*
X593456Y27880D01*
X592498Y30191D01*
X590975Y32175D01*
X588991Y33698D01*
X586680Y34655D01*
X584200Y34982D01*
D02*
G37*
G36*
X558800D02*
X556320Y34655D01*
X554009Y33698D01*
X552024Y32175D01*
X550502Y30191D01*
X549544Y27880D01*
X549218Y25400D01*
X549544Y22920D01*
X550502Y20609D01*
X552024Y18625D01*
X554009Y17102D01*
X556320Y16144D01*
X558800Y15818D01*
X561280Y16144D01*
X563591Y17102D01*
X565575Y18625D01*
X567098Y20609D01*
X568055Y22920D01*
X568382Y25400D01*
X568055Y27880D01*
X567098Y30191D01*
X565575Y32175D01*
X563591Y33698D01*
X561280Y34655D01*
X558800Y34982D01*
D02*
G37*
G36*
X533400D02*
X530920Y34655D01*
X528609Y33698D01*
X526624Y32175D01*
X525102Y30191D01*
X524145Y27880D01*
X523818Y25400D01*
X524145Y22920D01*
X525102Y20609D01*
X526624Y18625D01*
X528609Y17102D01*
X530920Y16144D01*
X533400Y15818D01*
X535880Y16144D01*
X538191Y17102D01*
X540175Y18625D01*
X541698Y20609D01*
X542655Y22920D01*
X542982Y25400D01*
X542655Y27880D01*
X541698Y30191D01*
X540175Y32175D01*
X538191Y33698D01*
X535880Y34655D01*
X533400Y34982D01*
D02*
G37*
G36*
X457200D02*
X454720Y34655D01*
X452409Y33698D01*
X450424Y32175D01*
X448902Y30191D01*
X447944Y27880D01*
X447618Y25400D01*
X447944Y22920D01*
X448902Y20609D01*
X450424Y18625D01*
X452409Y17102D01*
X454720Y16144D01*
X457200Y15818D01*
X459680Y16144D01*
X461991Y17102D01*
X463975Y18625D01*
X465498Y20609D01*
X466455Y22920D01*
X466782Y25400D01*
X466455Y27880D01*
X465498Y30191D01*
X463975Y32175D01*
X461991Y33698D01*
X459680Y34655D01*
X457200Y34982D01*
D02*
G37*
G36*
X381000D02*
X378520Y34655D01*
X376209Y33698D01*
X374225Y32175D01*
X372702Y30191D01*
X371744Y27880D01*
X371418Y25400D01*
X371744Y22920D01*
X372702Y20609D01*
X374225Y18625D01*
X376209Y17102D01*
X378520Y16144D01*
X381000Y15818D01*
X383480Y16144D01*
X385791Y17102D01*
X387775Y18625D01*
X389298Y20609D01*
X390256Y22920D01*
X390582Y25400D01*
X390256Y27880D01*
X389298Y30191D01*
X387775Y32175D01*
X385791Y33698D01*
X383480Y34655D01*
X381000Y34982D01*
D02*
G37*
G36*
X355600D02*
X353120Y34655D01*
X350809Y33698D01*
X348825Y32175D01*
X347302Y30191D01*
X346344Y27880D01*
X346018Y25400D01*
X346344Y22920D01*
X347302Y20609D01*
X348825Y18625D01*
X350809Y17102D01*
X353120Y16144D01*
X355600Y15818D01*
X358080Y16144D01*
X360391Y17102D01*
X362375Y18625D01*
X363898Y20609D01*
X364855Y22920D01*
X365182Y25400D01*
X364855Y27880D01*
X363898Y30191D01*
X362375Y32175D01*
X360391Y33698D01*
X358080Y34655D01*
X355600Y34982D01*
D02*
G37*
G36*
X21250Y22067D02*
X19500D01*
Y15750D01*
X28869D01*
X28800Y16273D01*
X28020Y18158D01*
X26777Y19777D01*
X25158Y21020D01*
X23273Y21800D01*
X21250Y22067D01*
D02*
G37*
G36*
X16500D02*
X14750D01*
X12727Y21800D01*
X10842Y21020D01*
X9223Y19777D01*
X7980Y18158D01*
X7200Y16273D01*
X7131Y15750D01*
X16500D01*
Y22067D01*
D02*
G37*
%LPD*%
D26*
X469900Y69850D02*
D03*
X635000Y463550D02*
D03*
X416560D02*
D03*
D126*
X495300Y69850D02*
D03*
X520700D02*
D03*
X546100D02*
D03*
X571500D02*
D03*
X596900D02*
D03*
X609600Y463550D02*
D03*
X584200D02*
D03*
X558800D02*
D03*
X482600D02*
D03*
X508000D02*
D03*
X533400D02*
D03*
X457200D02*
D03*
X391160D02*
D03*
X365760D02*
D03*
X340360D02*
D03*
X314960D02*
D03*
X289560D02*
D03*
X264160Y508000D02*
D03*
X406400Y25400D02*
D03*
X431800D02*
D03*
D127*
X87000Y145000D02*
D03*
X95000D02*
D03*
X91000Y137000D02*
D03*
Y153000D02*
D03*
D130*
X18000Y14250D02*
D03*
Y91750D02*
D03*
D131*
X56000Y15750D02*
D03*
Y90250D02*
D03*
D133*
X653000Y210000D02*
D03*
X667000Y160000D02*
D03*
X671000Y324000D02*
D03*
X158500Y344250D02*
D03*
X11000Y224000D02*
D03*
X621000Y521000D02*
D03*
X9000Y459000D02*
D03*
Y368000D02*
D03*
X108000Y460000D02*
D03*
X177000Y522000D02*
D03*
X437000Y517000D02*
D03*
X516000Y364000D02*
D03*
X652000Y392000D02*
D03*
X654000Y44000D02*
D03*
X567000Y167000D02*
D03*
X171000Y247000D02*
D03*
X368000Y143000D02*
D03*
X254000Y308999D02*
D03*
X255000Y338000D02*
D03*
X63480Y344270D02*
D03*
X204000Y414000D02*
D03*
X129600Y268850D02*
D03*
X130506Y277514D02*
D03*
X129850Y249000D02*
D03*
X472500Y396750D02*
D03*
X365250Y111250D02*
D03*
X398750Y109250D02*
D03*
X252000Y131000D02*
D03*
X234000D02*
D03*
X417000Y143000D02*
D03*
X56000Y33000D02*
D03*
X45000Y40000D02*
D03*
X66000D02*
D03*
X121000Y66000D02*
D03*
X157000D02*
D03*
X128000D02*
D03*
X35000Y240000D02*
D03*
X49750Y137750D02*
D03*
X52000Y276000D02*
D03*
X31000D02*
D03*
X641000Y232000D02*
D03*
X629000Y210000D02*
D03*
X293560Y102440D02*
D03*
X319825Y124000D02*
D03*
X460000Y141000D02*
D03*
X522000Y197000D02*
D03*
X530750Y248000D02*
D03*
X522750Y292250D02*
D03*
X418000Y357000D02*
D03*
X360250Y395500D02*
D03*
X321250Y395750D02*
D03*
X211340Y230340D02*
D03*
X134950Y218050D02*
D03*
X105750Y234250D02*
D03*
X99000Y257050D02*
D03*
X64985Y308000D02*
D03*
X92000D02*
D03*
X90000Y291000D02*
D03*
X243000Y139000D02*
D03*
X200600Y153750D02*
D03*
X263250Y189750D02*
D03*
X247516Y201000D02*
D03*
X222100Y246100D02*
D03*
X261250Y243250D02*
D03*
X238000Y290000D02*
D03*
X234000Y311000D02*
D03*
X119250Y369750D02*
D03*
X191250Y344000D02*
D03*
X121250Y345000D02*
D03*
X103000Y330000D02*
D03*
X382000Y84500D02*
D03*
X387500Y90000D02*
D03*
X376500D02*
D03*
X382000Y95500D02*
D03*
M02*
